<?xml version="1.0" encoding="UTF-8" standalone="no"?>
<!-- Created with Inkscape (http://www.inkscape.org/) -->

<svg
   xmlns:dc="http://purl.org/dc/elements/1.1/"
   xmlns:cc="http://creativecommons.org/ns#"
   xmlns:rdf="http://www.w3.org/1999/02/22-rdf-syntax-ns#"
   xmlns:svg="http://www.w3.org/2000/svg"
   xmlns="http://www.w3.org/2000/svg"
   xmlns:sodipodi="http://sodipodi.sourceforge.net/DTD/sodipodi-0.dtd"
   xmlns:inkscape="http://www.inkscape.org/namespaces/inkscape"
   width="3000"
   height="100"
   id="svg3103"
   version="1.1"
   inkscape:version="0.48.2 r9819"
   sodipodi:docname="New document 4">
  <defs
     id="defs3105" />
  <sodipodi:namedview
     id="base"
     pagecolor="#ffffff"
     bordercolor="#666666"
     borderopacity="1.0"
     inkscape:pageopacity="0.0"
     inkscape:pageshadow="2"
     inkscape:zoom="0.7"
     inkscape:cx="1803.5714"
     inkscape:cy="462.85714"
     inkscape:document-units="px"
     inkscape:current-layer="layer1"
     showgrid="false"
     inkscape:window-width="1630"
     inkscape:window-height="1006"
     inkscape:window-x="50"
     inkscape:window-y="0"
     inkscape:window-maximized="0" />
  <metadata
     id="metadata3108">
    <rdf:RDF>
      <cc:Work
         rdf:about="">
        <dc:format>image/svg+xml</dc:format>
        <dc:type
           rdf:resource="http://purl.org/dc/dcmitype/StillImage" />
        <dc:title></dc:title>
      </cc:Work>
    </rdf:RDF>
  </metadata>
  <g
     inkscape:label="Layer 1"
     inkscape:groupmode="layer"
     id="layer1"
     transform="translate(0,-952.36218)">
    <path
       style="fill:none;stroke:#000000;stroke-width:1px;stroke-linecap:butt;stroke-linejoin:miter;stroke-opacity:1"
       d="m 2980,-42.857143 c -6.6667,4.761905 -14.2069,8.492607 -20,14.285714 -9.5713,9.571311 -16.6593,21.367434 -25.7143,31.4285719 -33.8148,37.5720451 -67.3651,75.4366561 -102.8571,111.4285671 -32.1677,32.6207 -66.5226,63.01072 -100,94.28572 -38.9042,36.34466 -76.5374,74.13798 -117.1429,108.57143 C 2485.4196,426.42134 2298.583,572.44818 2160,674.28571 c -53.4412,39.27118 -108.6768,76.04077 -162.8571,114.28572 -26.7727,18.89835 -52.1362,39.89381 -80,57.14286 -32.2491,19.96368 -66.2828,36.91624 -100,54.28571 -2.3947,1.23362 3.4729,-4.22007 5.7142,-5.71429 0.7925,-0.52828 2.1838,0.67344 2.8572,0 0.6734,-0.67343 0,-1.90476 0,-2.85714"
       id="path3111"
       inkscape:connector-curvature="0"
       transform="translate(0,952.36218)" />
    <path
       style="fill:none;stroke:#000000;stroke-width:1px;stroke-linecap:butt;stroke-linejoin:miter;stroke-opacity:1"
       d="m 2697.1429,-34.285714 c -14.8149,17.777777 -12.8043,17.460317 -31.4286,31.4285711 -5.4942,4.1206301 -11.7345,7.1959409 -17.1429,11.4285715 C 2632.0543,21.497887 2615.9663,34.970484 2600,48.571429 c -4.926,4.196251 -34.5699,30.33157 -42.8571,40 -7.0669,8.244625 -13.2166,17.234981 -20,25.714281 -5.8577,7.3221 -19.7493,23.22666 -25.7143,31.42858 -4.0394,5.55417 -7.8952,11.25383 -11.4286,17.14285 -3.287,5.47832 -5.7143,11.42857 -8.5714,17.14286 -0.9524,1.90476 -1.6759,3.94236 -2.8572,5.71429 -1.4942,2.24132 -3.8095,3.80952 -5.7143,5.71428"
       id="path3113"
       inkscape:connector-curvature="0"
       transform="translate(0,952.36218)" />
    <path
       style="fill:none;stroke:#000000;stroke-width:1px;stroke-linecap:butt;stroke-linejoin:miter;stroke-opacity:1"
       d="m 2600,-71.428571 c 4.7619,4.761904 9.5238,9.523809 14.2857,14.285714 4.7619,4.761905 9.2801,9.780671 14.2857,14.285714 17.8472,16.06242 14.4,8.685649 34.2857,28.571429 1.5059,1.505846 1.4713,4.097381 2.8572,5.7142854 4.3826,5.1131 9.5238,9.52380955 14.2857,14.2857143 16.1905,16.1904763 32.381,32.3809523 48.5714,48.5714283 1.9048,1.904762 3.8096,3.809524 5.7143,5.714286 1.9048,1.904762 4.0981,3.559294 5.7143,5.714286 1.2778,1.703671 1.6759,3.942361 2.8571,5.714285 0.7472,1.120664 1.9048,1.904762 2.8572,2.857143 1.9047,1.904762 3.8095,3.809524 5.7143,5.714286 0.9524,0.952381 1.7365,2.110034 2.8571,2.857143 1.7719,1.181283 3.9424,1.67586 5.7143,2.857143 2.2413,1.494218 3.3049,4.509608 5.7143,5.714285 1.7037,0.851836 4.0106,-0.851835 5.7143,0 1.2046,0.602339 1.9047,1.904762 2.8571,2.857143 1.9048,1.904762 3.8095,3.809524 5.7143,5.714286 1.9048,1.90476 4.0315,3.61083 5.7143,5.71429 2.1451,2.68139 3.8095,5.71428 5.7143,8.57142 1.9047,2.85715 3.9476,5.62692 5.7143,8.57143 1.0956,1.82611 1.6758,3.94236 2.8571,5.71429 1.4942,2.24133 4.2201,3.47296 5.7143,5.71428 1.1813,1.77193 0.9524,4.76191 2.8571,5.71429 4.3436,2.17176 9.7387,1.15201 14.2857,2.85714 3.2153,1.20571 5.627,3.94758 8.5715,5.71429 11.079,6.6474 0.2444,-1.95955 14.2857,8.57143 1.0775,0.80812 1.7365,2.11003 2.8571,2.85714 6.3236,4.21571 6.4854,1.15664 11.4286,8.57143 0.3064,0.45967 0.347,8.22442 0,8.57143 -2.102,2.102 -5.1564,-2.29925 -5.7143,-2.85715 -0.9524,-0.95238 -2.4312,-1.57939 -2.8571,-2.85714 -0.9035,-2.71052 0,-5.71428 0,-8.57143 0,-4.34197 -0.5384,-9.97873 0,-14.28571 0.7185,-5.74837 1.1534,-11.60593 2.8571,-17.14286 2.1331,-6.93238 5.8098,-13.2932 8.5714,-20 3.9056,-9.48484 7.7108,-19.01143 11.4286,-28.571427 12.6198,-32.450861 10.1689,-27.925862 22.8572,-71.428572 1.9413,-6.6561 4.8175,-13.1247996 5.7142,-19.9999996 3.822,-29.3013104 2.8572,-59.1019324 2.8572,-88.5714284 0,-4.761903 0,-9.523813 0,-14.285713 0,-0.95238 0,-1.90476 0,-2.85714 0,-0.95239 0.6734,-2.18371 0,-2.85715 -0.6734,-0.67343 -1.9048,0 -2.8572,0 -14.781,0 -3.2363,-2.0203 -14.2857,5.71429 -40.7689,28.538264 -4.8604,-0.77954 -48.5714,31.42857 -9.8188,7.234909 -18.5593,15.892196 -28.5714,22.857143 -99.0586,68.910339 19.9545,-20.680175 -68.5715,45.714286 -71.0443,53.283224 -2.1972,3.4484383 -94.2857,74.285714 -17.8158,13.704467 -35.9954,26.93551 -54.2857,39.999997 -15.0475,10.7482 -30.9208,20.33344 -45.7143,31.42857 -49.8847,37.41354 -32.8394,27.3662 -68.5714,57.14286 -14.397,11.99754 -28.0667,20.51658 -40,34.28572 -8.8651,10.22891 -17.4613,20.69971 -25.7143,31.42857 -1.2984,1.68796 -1.6758,3.94236 -2.8571,5.71428 -0.7471,1.12067 -2.1101,1.73648 -2.8572,2.85715 -1.1813,1.77192 -1.6758,3.94236 -2.8571,5.71428 0.2852,5.66017 -4.2085,1.3513 -5.7143,2.85714 -0.6734,0.67344 0.6734,2.18371 0,2.85715 -0.6734,0.67343 -1.9048,0 -2.8571,0 -4.7619,0 -9.5239,0 -14.2858,0 -1.494,0 -10.6773,0.37563 -11.4285,0 -1.2047,-0.60234 -2.2122,-1.67473 -2.8572,-2.85715 -5.0988,-9.34778 -10.2315,-18.7255 -14.2857,-28.57142 -2.6399,-6.4112 -4.9486,-13.10897 -5.7143,-20 -1.4724,-13.25179 0,-26.66667 0,-40 0,-10.47619 0,-20.95239 0,-31.42858 0,-1.90476 0.462,-3.86639 0,-5.71428 -0.5165,-2.06601 -2.1837,-3.69398 -2.8571,-5.71429 -1.2418,-3.72526 -0.8369,-8.06139 -2.8572,-11.42857 -1.0956,-1.82611 -4.3509,-1.22115 -5.7142,-2.85714 -3.5552,-4.26616 -5.6485,-9.56395 -8.5715,-14.28572 -9.5238,-15.238091 -19.0476,-30.476186 -28.5714,-45.714281 -3.8095,-4.761905 -8.0459,-9.211694 -11.4286,-14.285715 -4.2591,-6.388765 -7.1694,-13.611234 -11.4285,-20 1.5086,-10.899562 -10.1597,-10.95379 -14.2858,-17.142857 -1.1812,-1.771925 -1.5793,-4.010615 -2.8571,-5.714286 -1.6162,-2.1549917 -4.098,-3.5592932 -5.7143,-5.7142853 C 2253.008,4.0106149 2252.5242,1.8261071 2251.4286,0 c -1.7667,-2.9445092 -3.9476,-5.6269193 -5.7143,-8.5714286 -1.0957,-1.8261074 -1.3513,-4.2084394 -2.8572,-5.7142854 -0.6734,-0.673435 -2.5034,0.884263 -2.8571,0 -1.8036,-4.508877 -1.152,-9.738704 -2.8571,-14.285715 -3.496,-9.322535 -6.1986,-7.312348 -11.4286,-14.285714 -1.2778,-1.703671 -1.6759,-3.942361 -2.8572,-5.714286 -0.7471,-1.120663 -1.9047,-1.904761 -2.8571,-2.857142 -1.9048,-1.904762 -3.8095,-3.809524 -5.7143,-5.714286 -2.8571,-2.857143 -5.2094,-6.330101 -8.5714,-8.571429 -0.7924,-0.528286 -2.0053,0.425918 -2.8572,0 -26.9495,-13.474789 0.6257,-0.535301 -11.4285,-8.571428 -1.772,-1.181283 -3.694,-2.183708 -5.7143,-2.857143 -0.9035,-0.301169 -2.1837,0.673435 -2.8572,0 -0.6734,-0.673435 0.6735,-2.183708 0,-2.857143 -0.6734,-0.673435 -1.9047,0 -2.8571,0 -0.9524,0 -2.0053,-0.425918 -2.8571,0 -1.2047,0.602339 -1.9048,1.904762 -2.8572,2.857143 -2.8571,2.857143 -5.5305,5.910668 -8.5714,8.571428 -4.5894,4.015702 -9.9736,7.116484 -14.2857,11.428572 -7.1587,7.158712 -13.0758,15.471346 -20,22.857143 -15.6601,16.704061 -32.8013,31.9712678 -48.5715,48.571428 -17.7572,11.401118 -26.1516,30.942692 -40,45.714286 -17.5024,18.669245 -36.8726,35.53314 -54.2857,54.28571 -27.4555,29.56745 -1.2336,4.3375 -28.5714,37.14286 -4.3112,5.17347 -9.5238,9.52381 -14.2857,14.28572 -0.9524,0.95238 -2.049,1.77964 -2.8572,2.85714 -2.0603,2.74709 -3.2861,6.14332 -5.7142,8.57143 -1.5059,1.50584 -4.0107,1.57939 -5.7143,2.85714 -2.155,1.61624 -3.8096,3.80952 -5.7143,5.71429 -0.9524,0.95238 -1.6525,2.2548 -2.8572,2.85714 -0.8518,0.42592 -2.1837,-0.67344 -2.8571,0 -1.5058,1.50585 -1.3513,4.20844 -2.8571,5.71428 -0.6735,0.67344 -2.0054,-0.42591 -2.8572,0 -1.2047,0.60234 -1.6525,2.25481 -2.8571,2.85715 -0.8519,0.42591 -2.0053,-0.42592 -2.8572,0 -1.2046,0.60234 -1.6524,2.2548 -2.8571,2.85714 -0.8518,0.42592 -2.0053,-0.42592 -2.8572,0 -1.2046,0.60234 -1.6524,2.2548 -2.8571,2.85714 -0.8518,0.42592 -1.9048,0 -2.8571,0 -0.9524,0 -2.1838,0.67344 -2.8572,0 -0.6734,-0.67343 -0.9524,-2.85714 0,-2.85714 0.9524,0 -0.9524,2.85714 0,2.85714 1.3469,0 1.6525,-2.2548 2.8572,-2.85714 0.8518,-0.42592 1.9047,0 2.8571,0 0.9524,0 1.9048,0 2.8571,0"
       id="path3115"
       inkscape:connector-curvature="0"
       transform="translate(0,952.36218)" />
    <path
       style="fill:none;stroke:#000000;stroke-width:1px;stroke-linecap:butt;stroke-linejoin:miter;stroke-opacity:1"
       d="m 1985.7143,254.28571 c 4.7619,-5.71428 9.1877,-11.72626 14.2857,-17.14285 56.2637,-59.78022 6.2338,-2.07792 68.5714,-68.57143 16.6068,-17.71393 32.1874,-36.3656 48.5715,-54.28572 83.8586,-91.720411 10.7383,-7.73588 65.7142,-74.28571 10.3293,-12.503815 20.8066,-24.886742 31.4286,-37.1428571 8.7685,-10.1174269 4.6514,-1.7279471 14.2857,-17.1428569 2.2574,-3.611775 3.523,-7.776357 5.7143,-11.428572 0.693,-1.154931 1.9048,-1.904762 2.8572,-2.857143 0.9523,-0.952381 1.6524,-2.254804 2.8571,-2.857142 0.8518,-0.425918 2.0053,0.425917 2.8571,0 1.2047,-0.602339 1.9048,-3.809524 2.8572,-2.857143 0.9524,0.952381 -3.4595,4.06182 -2.8572,2.857143 9.8836,-19.767052 0.4021,2.455096 17.1429,-14.285715 2.1296,-2.129588 1.5103,-5.877688 2.8571,-8.571428 2.4835,-4.967012 5.8163,-9.464111 8.5715,-14.285715 1.0565,-1.849 1.7615,-3.888178 2.8571,-5.714285 1.7667,-2.94451 3.9476,-5.62692 5.7143,-8.571429 1.0957,-1.826107 2.1837,-3.69398 2.8571,-5.714286 2.102,-6.306019 -3.6461,0.788979 2.8572,-5.714285"
       id="path3117"
       inkscape:connector-curvature="0"
       transform="translate(0,952.36218)" />
    <path
       style="fill:none;stroke:#000000;stroke-width:1px;stroke-linecap:butt;stroke-linejoin:miter;stroke-opacity:1"
       d="m 2185.7143,214.28571 c 20.4207,-43.42455 49.1374,-82.23298 74.2857,-122.857139 12.8099,-20.692914 24.4523,-42.090811 37.1429,-62.857142 8.2653,-13.525181 17.6505,-26.3536451 25.7142,-40 4.3336,-7.333678 7.2524,-15.432754 11.4286,-22.857143 4.4049,-7.830883 9.5238,-15.238096 14.2857,-22.857143 9.5238,-18.095238 18.8322,-36.305525 28.5715,-54.285713 2.6449,-4.88296 5.8745,-9.43127 8.5714,-14.28572 4.1369,-7.44638 7.0459,-15.55271 11.4286,-22.85714 1.3859,-2.30986 4.5096,-3.30493 5.7142,-5.71428 1.9048,-3.80953 -2.8571,-2.85715 2.8572,-2.85715"
       id="path3119"
       inkscape:connector-curvature="0"
       transform="translate(0,952.36218)" />
    <path
       style="fill:none;stroke:#000000;stroke-width:1px;stroke-linecap:butt;stroke-linejoin:miter;stroke-opacity:1"
       d="m 2294.2857,171.42857 c 4.7619,-7.61905 8.7348,-15.79227 14.2857,-22.85714 4.9928,-6.35441 12.0946,-10.83249 17.1429,-17.14286 6.4353,-8.04418 11.5465,-17.06539 17.1428,-25.71428 9.762,-15.08665 18.2666,-30.993112 28.5715,-45.71429 1.5447,-2.206798 3.8095,-3.809524 5.7143,-5.714286 4.7619,-4.761904 10.2451,-8.898234 14.2857,-14.285714 4.607,-6.142673 7.9947,-13.132283 11.4285,-20 6.0699,-12.1396405 3.4852,-13.5898708 11.4286,-22.8571429 3.5061,-4.0904799 7.6191,-7.6190471 11.4286,-11.4285711 1.9047,-1.904762 4.098,-3.559294 5.7143,-5.714286 1.2777,-1.703671 1.6758,-3.942361 2.8571,-5.714286 0.7471,-1.120663 1.9048,-1.904762 2.8572,-2.857143 3.8095,-3.809523 7.619,-7.619047 11.4285,-11.428571 3.8096,-3.809524 7.6191,-7.619048 11.4286,-11.428571 1.9048,-1.904762 4.3778,-3.375465 5.7143,-5.714286 1.9047,-4.761905 3.8095,-9.52381 5.7143,-14.285714 1.9047,-1.904762 4.3283,-3.404423 5.7143,-5.714286 1.5495,-2.582506 1.5102,-5.877689 2.8571,-8.571429 0.6023,-1.204677 2.2548,-1.652465 2.8571,-2.857143 0.426,-0.851835 0,-1.904761 0,-2.857142 1.9048,-1.904762 3.8096,-3.809524 5.7143,-5.714286"
       id="path3121"
       inkscape:connector-curvature="0"
       transform="translate(0,952.36218)" />
    <path
       style="fill:none;stroke:#000000;stroke-width:1px;stroke-linecap:butt;stroke-linejoin:miter;stroke-opacity:1"
       d="m 2397.1429,162.85714 c 3.8095,-6.66666 7.1694,-13.61123 11.4285,-20 3.3827,-5.07402 7.6999,-9.46029 11.4286,-14.28571 12.4624,-16.12785 25.2095,-32.048294 37.1429,-48.57143 12.8371,-17.774512 24.3989,-36.444237 37.1428,-54.285714 33.134,-46.387635 10.7667,-5.767685 48.5714,-71.428572 20.7538,-36.046073 29.2741,-59.304884 51.4286,-94.285714 21.843,-34.48891 30.3434,-38.01048 48.5714,-71.42857 5.5105,-10.10253 8.9261,-21.24523 14.2858,-31.42857 4.1846,-7.95077 9.7585,-15.09631 14.2857,-22.85715 11.6067,-19.89716 21.5082,-40.8337 34.2857,-60 0.7471,-1.12066 1.9047,-1.90476 2.8571,-2.85714 3.8096,-3.80952 7.6191,-7.61905 11.4286,-11.42857"
       id="path3123"
       inkscape:connector-curvature="0"
       transform="translate(0,952.36218)" />
    <path
       style="fill:none;stroke:#000000;stroke-width:1px;stroke-linecap:butt;stroke-linejoin:miter;stroke-opacity:1"
       d="m 2480,142.85714 c 3.0205,-6.04109 9.8028,-17.5852 11.4286,-25.71428 0.3735,-1.86778 -0.5233,-3.88281 0,-5.71429 1.4089,-4.93139 4.0924,-9.42017 5.7143,-14.285713 1.2417,-3.725258 1.6153,-7.703313 2.8571,-11.428571 5.1467,-15.44023 5.2056,-12.02374 11.4286,-25.714286 3.0013,-6.602995 4.9168,-13.73491 8.5714,-20 3.0727,-5.267508 7.8841,-9.323394 11.4286,-14.285714 1.2378,-1.732918 1.9047,-3.809524 2.8571,-5.714286 1.9048,-3.809524 3.6012,-7.73057 5.7143,-11.4285714 1.7037,-2.981424 4.3616,-5.4152148 5.7143,-8.5714286 1.5468,-3.6092686 1.2623,-7.8402462 2.8571,-11.428571 4.0637,-9.143302 9.3708,-14.665623 14.2857,-22.857143 1.0957,-1.826107 1.6759,-3.942361 2.8572,-5.714286 1.4942,-2.241327 4.3284,-3.404423 5.7143,-5.714286 2.1913,-3.652214 3.3517,-7.884722 5.7143,-11.428571 11.7748,-17.662338 10.1298,-11.861472 25.7142,-25.714286 8.0533,-7.158494 15.2381,-15.238095 22.8572,-22.857147 3.8095,-3.80952 7.9224,-7.33809 11.4286,-11.42857 2.2347,-2.60718 3.5159,-5.93346 5.7142,-8.57143 2.5868,-3.10408 6.1471,-5.33894 8.5715,-8.57142 0.5714,-0.76191 -0.5283,-2.06472 0,-2.85715 3.3827,-5.07402 8.0459,-9.21169 11.4285,-14.28571 0.5283,-0.79243 -0.5282,-2.06472 0,-2.85714 1.4943,-2.24133 4.2201,-3.47296 5.7143,-5.71429 0.5283,-0.79243 -0.4259,-2.00531 0,-2.85714 0.6024,-1.20468 2.2548,-1.65247 2.8572,-2.85715 0.4259,-0.85183 -0.4259,-2.0053 0,-2.85714 1.7653,-3.53058 2.7585,-2.85714 5.7143,-2.85714"
       id="path3125"
       inkscape:connector-curvature="0"
       transform="translate(0,952.36218)" />
    <path
       style="fill:none;stroke:#000000;stroke-width:1px;stroke-linecap:butt;stroke-linejoin:miter;stroke-opacity:1"
       d="m 1811.4286,41.428571 c -0.4762,2.857143 -1.019,5.703987 -1.4286,8.571429 -0.2593,1.815048 0,3.878266 0,5.714286 0,3.333333 0,6.666666 0,10 0,0.747029 0.1878,5.338655 0,5.714285 -0.3012,0.602339 -1.1274,0.826233 -1.4286,1.428572 -0.4259,0.851835 0.3012,1.953635 0,2.857143 -0.3367,1.010152 -1.0918,1.84699 -1.4285,2.857143 -0.2998,0.899141 0,5.855193 0,7.142857 0,0.47619 0.3367,1.091854 0,1.428571 -0.3368,0.336718 -1.0919,-0.336717 -1.4286,0 -0.6734,0.673435 0.4259,2.005308 0,2.857143 -0.3012,0.602339 -1.4286,0.755136 -1.4286,1.428571 0,0.476191 0.9524,0 1.4286,0 0.4762,0 0.9524,0 1.4286,0 1.9047,0 3.8095,0 5.7142,0 1.0126,0 8.2021,0.184679 8.5715,0 0.6023,-0.301169 0.7897,-1.215612 1.4285,-1.428571 0.8359,-0.278609 7.3453,0 8.5715,0 0.4762,0 1.0026,0.212959 1.4285,0 0.6024,-0.301169 0.8263,-1.127402 1.4286,-1.428571 0.5207,-0.26034 6.3197,0 7.1429,0 7.1428,0 14.2857,0 21.4285,0 0.4762,0 0.9524,0 1.4286,0 0.4762,0 1.0919,0.336717 1.4286,0 0.3367,-0.336718 0,-0.952381 0,-1.428572 0,-2.857143 0,-5.714286 0,-8.571428 0,-6.666667 0,-13.333334 0,-20 0,-0.339472 -0.1601,-5.3941 0,-5.714286 0.3012,-0.602339 1.1274,-0.826233 1.4286,-1.428572 0.4259,-0.851835 -0.426,-2.005307 0,-2.857142 1.7652,-3.530578 1.4285,0.493111 1.4285,-2.857143 0,-1.428572 0,-2.857143 0,-4.285715 0,-0.47619 -0.4762,-1.428571 0,-1.428571 0.4762,0 0,1.904762 0,1.428571 0,-0.952381 0.4259,-2.005307 0,-2.857142 -0.2129,-0.425918 -0.9524,0 -1.4285,0 -0.4762,0 -0.9524,0 -1.4286,0 -3.3333,0 -6.6667,0 -10,0 -7.2394,0 1.7037,-0.425918 -5.7143,1.428571 -0.9239,0.230986 -1.9048,0 -2.8571,0 -3.8096,0 -7.6191,0 -11.4286,0 -0.9524,0 -1.9048,0 -2.8572,0 -0.9523,0 -1.9332,-0.230986 -2.8571,0 -1.033,0.258251 -1.847,1.091854 -2.8571,1.428571 -1.1499,0.383286 -4.8014,-0.456444 -5.7143,0 -0.6024,0.30117 -0.8263,1.127403 -1.4286,1.428572 -0.4259,0.212959 -0.9589,0.07829 -1.4286,0 -2.395,-0.399178 -4.7619,-0.952381 -7.1428,-1.428572 z"
       id="path3127"
       inkscape:connector-curvature="0"
       transform="translate(0,952.36218)" />
    <path
       style="fill:none;stroke:#000000;stroke-width:1px;stroke-linecap:butt;stroke-linejoin:miter;stroke-opacity:1"
       d="m 1870,2.8571428 c 0,5.7142857 0,11.4285712 0,17.1428572 0,0.952381 0,1.904762 0,2.857143 0,0.47619 0.213,1.002654 0,1.428571 -0.3012,0.602339 -1.2156,0.789695 -1.4286,1.428572 0,0.0065 0,4.28435 0,4.285714 -0.3367,0.336717 -1.0918,-0.336718 -1.4285,0 -0.3368,0.336717 0,0.952381 0,1.428571 0,0.476191 0,0.952381 0,1.428572 0,0.47619 0,1.904762 0,1.428571 0,-0.952381 0,-3.809524 0,-2.857143 0,1.904762 0,3.809524 0,5.714286 0,0.476191 0.4761,1.428572 0,1.428572 -0.4762,0 -0.3368,-1.091854 0,-1.428572 0.3367,-0.336717 1.0918,0.336718 1.4285,0 2.381,-2.380952 -5.2381,-1.428571 2.8572,-1.428571 3.8095,0 -0.4762,0.47619 1.4285,-1.428572 0.3368,-0.336717 0.9524,0 1.4286,0 1.9048,0 3.8095,0 5.7143,0 7.619,0 15.2381,0 22.8571,0 0.3465,0 4.2398,-0.04594 4.2858,0 1.9047,1.904762 -2.381,1.428572 1.4285,1.428572 0.3465,0 4.2398,0.04594 4.2857,0 0.3368,-0.336718 0,-0.952381 0,-1.428572 0,-1.904762 0,-3.809524 0,-5.714285 0,-9.52381 0,-19.0476195 0,-28.571429052763637 0,-1.904761947236361 0,-3.809523847236361 0,-5.714285747236361 0,-0.4761904 0,-0.9523809 0,-1.4285714 0,-0.4761905 -0.4761,-1.4285714 0,-1.4285714 0.4762,0 0.4762,1.4285714 0,1.4285714 -0.6734,0 -0.9523,-0.952381 -1.4285,-1.4285714"
       id="path3129"
       inkscape:connector-curvature="0"
       transform="translate(0,952.36218)" />
    <path
       style="fill:none;stroke:#000000;stroke-width:1px;stroke-linecap:butt;stroke-linejoin:miter;stroke-opacity:1"
       d="m 1912.8571,35.714286 c 0,11.904762 0,23.809524 0,35.714285 0,1.904762 0,3.809524 0,5.714286 0,0.476191 0,0.952381 0,1.428572 0,0.47619 0.4762,1.428571 0,1.428571 -0.4761,0 -0.4761,-1.428571 0,-1.428571 0.6735,0 0.8263,1.127402 1.4286,1.428571 0.1909,0.09542 5.7068,0.0012 5.7143,0 1.9367,-0.322778 3.7776,-1.105793 5.7143,-1.428571 0.9394,-0.156571 1.9047,0 2.8571,0 1.4286,0 2.8572,0 4.2857,0 3.8096,0 7.6191,0 11.4286,0 6.1905,0 12.381,0 18.5714,0 0.4762,0 0.9524,0 1.4286,0 0.4762,0 1.0919,0.336717 1.4286,0 0.057,-0.05749 0,-5.189662 0,-5.714286 0,-8.095238 0,-16.190476 0,-24.285714 0,-2.857143 0,-5.714286 0,-8.571429 0,-0.476191 -0.4762,-1.428571 0,-1.428571 0.4762,0 0,1.904761 0,1.428571 0,-0.952381 0,-1.904762 0,-2.857143 0,-0.47619 -0.4762,-1.428571 0,-1.428571 0.4762,0 0.4762,1.428571 0,1.428571 -0.6734,0 -0.8262,-1.127402 -1.4286,-1.428571 -0.4259,-0.212959 -0.9524,0 -1.4286,0 -0.4761,0 -0.9523,0 -1.4285,0 -6.5033,0 -0.082,-0.673435 -4.2857,1.428571 -0.8519,0.425918 -2.0053,-0.425918 -2.8572,0 -0.6023,0.301169 -0.8262,1.127402 -1.4286,1.428572 -0.4259,0.212958 -0.9523,0 -1.4285,0 -0.9524,0 -1.9048,0 -2.8572,0 -5.7143,0 -11.4285,0 -17.1428,0 -1.9048,0 -3.8096,0 -5.7143,0 -0.4762,0 -1.9048,0 -1.4286,0 0.9524,0 3.8095,0 2.8572,0 -1.4286,0 -2.8572,0 -4.2858,0 -0.4761,0 -1.0026,0.212958 -1.4285,0 -0.6024,-0.30117 -0.8263,-1.127403 -1.4286,-1.428572 -0.4259,-0.212959 -0.9616,0.09339 -1.4286,0 -1.9252,-0.385051 -3.8095,-0.952381 -5.7143,-1.428571 z"
       id="path3131"
       inkscape:connector-curvature="0"
       transform="translate(0,952.36218)" />
    <path
       style="fill:none;stroke:#000000;stroke-width:1px;stroke-linecap:butt;stroke-linejoin:miter;stroke-opacity:1"
       d="m 1684.2857,34.285714 c -4.2529,0.591598 -8.5976,-0.473278 -12.8571,0 -2.4133,0.26814 -4.7873,0.83967 -7.1429,1.428572 -6.7936,1.698395 -1.9835,1.521066 -10,2.857143 -0.9394,0.15657 -1.9536,-0.30117 -2.8571,0 -0.6389,0.212958 -0.9524,0.95238 -1.4286,1.428571 -0.4762,0.47619 -1.1274,0.826233 -1.4286,1.428571 -0.4259,0.851836 0.4259,2.005308 0,2.857143 -4.7379,4.737975 0.6735,-1.34687 -1.4285,2.857143 -0.3012,0.602339 -1.1274,0.826233 -1.4286,1.428572 -0.4259,0.851835 0.4259,2.005307 0,2.857142 -0.3012,0.602339 -1.1274,0.826233 -1.4286,1.428572 -0.2129,0.425918 0.3367,1.091854 0,1.428571 -0.3367,0.336718 -1.2156,-0.425917 -1.4286,0 -0.6388,1.277753 0,2.857143 0,4.285715 0,0.47619 0,0.952381 0,1.428571 0,0.47619 -0.2129,1.002654 0,1.428571 0.3012,0.602339 1.1274,0.826233 1.4286,1.428572 0.4259,0.851835 -0.4259,2.005307 0,2.857143 0.3012,0.602338 1.1274,0.826233 1.4286,1.428571 0.2129,0.425918 -0.3367,1.091854 0,1.428572 0.3367,0.336717 1.0918,-0.336718 1.4286,0 0.3367,0.336717 -0.3368,1.091853 0,1.428571 0.3367,0.336717 1.0918,-0.336718 1.4285,0 0.3367,0.336717 -0.2129,1.002654 0,1.428571 0.3012,0.602339 0.9524,0.952381 1.4286,1.428572 0.4762,0.47619 0.8262,1.127402 1.4286,1.428571 0.4259,0.212959 1.0918,-0.336717 1.4285,0 0.3368,0.336718 -0.3367,1.091854 0,1.428572 0.6735,0.673435 2.1838,-0.673435 2.8572,0 0.3367,0.336717 -0.3367,1.091854 0,1.428571 0.292,0.292052 3.7193,-0.283208 4.2857,0 0.6023,0.301169 0.7897,1.215613 1.4286,1.428572 0.8185,0.272853 5.8017,0 7.1428,0 0.7471,0 5.3387,0.187815 5.7143,0 3.1587,-1.579325 0.4433,-0.886633 1.4286,-2.857143 0.3012,-0.602339 1.1274,-0.826233 1.4286,-1.428572 0.2129,-0.425917 -0.3368,-1.091854 0,-1.428571 2.9557,-2.955765 -0.1156,4.5168 2.8571,-1.428572 0.213,-0.425917 -0.3367,-1.091854 0,-1.428571 0.3367,-0.336718 1.0919,0.336717 1.4286,0 0.3367,-0.336718 -0.213,-1.002654 0,-1.428571 0.3011,-0.602339 1.1274,-0.826233 1.4285,-1.428572 0.426,-0.851835 -0.6734,-2.183708 0,-2.857143 0.3368,-0.336717 0.9524,0 1.4286,0 0,-0.47619 -0.2129,-1.002653 0,-1.428571 0.3012,-0.602339 0.9524,-0.952381 1.4286,-1.428572 0,-0.952381 -0.3012,-1.953635 0,-2.857142 0.2129,-0.638877 1.1274,-0.826233 1.4286,-1.428572 1.1468,-2.293637 1.7103,-4.84922 2.8571,-7.142857 0.3012,-0.602339 1.1274,-0.826233 1.4286,-1.428571 0.2129,-0.425918 0,-0.952381 0,-1.428572 0,-0.47619 0,-0.952381 0,-1.428571 0,-0.476191 0,-0.952381 0,-1.428572 0,-0.47619 -0.4762,-1.428571 0,-1.428571 0.4762,0 0,1.904762 0,1.428571 0,-0.952381 0.4259,-2.005307 0,-2.857143 -0.4259,-0.851835 -2.2622,0.743685 -2.8572,0 -1.7345,-2.168194 -2.8571,-4.761904 -4.2857,-7.142857 z"
       id="path3133"
       inkscape:connector-curvature="0"
       transform="translate(0,952.36218)" />
    <path
       style="fill:none;stroke:#000000;stroke-width:1px;stroke-linecap:butt;stroke-linejoin:miter;stroke-opacity:1"
       d="m 1077.1429,70 c 1.8053,-5.984372 8.158,-7.33139 10,-12.857143 0.1505,-0.451754 -0.2642,-1.032357 0,-1.428571 0.7471,-1.120664 2.11,-1.73648 2.8571,-2.857143 0.2641,-0.396215 -0.213,-1.002654 0,-1.428572 0.3012,-0.602338 0.9524,-0.952381 1.4286,-1.428571 0.9524,-0.952381 1.8224,-1.994898 2.8571,-2.857143 7.8014,-6.501153 4.3061,-2.304057 12.8572,-10 3.5039,-3.15353 6.6666,-6.666667 10,-10 2.2388,-2.238884 4.0354,-4.678477 7.1428,-5.714286 0.4518,-0.150584 0.9524,0 1.4286,0 0.4762,-0.47619 0.8262,-1.127402 1.4286,-1.428571 0.6101,-0.30506 6.5781,0 7.1428,0 2.0509,0 5.4456,-0.424328 7.1429,0 0.6533,0.163332 0.8682,1.055017 1.4285,1.428571 0.886,0.590642 1.9048,0.952381 2.8572,1.428572 2.9673,1.483664 4.2697,1.987191 7.1428,4.285714 1.0518,0.841383 1.9048,1.904762 2.8572,2.857143 0.9524,0.952381 2.2548,1.652466 2.8571,2.857143 0.8781,1.756104 0.6552,3.909651 1.4286,5.714286 0.6763,1.578106 1.9048,2.857142 2.8571,4.285714 1.4286,2.857143 3.1641,5.580435 4.2858,8.571428 0.3344,0.891742 0,1.904762 0,2.857143 0,2.857143 0,5.714286 0,8.571429 0,0.47619 -0.213,1.002654 0,1.428571 0.3011,0.602339 1.1274,0.826233 1.4285,1.428572 0.213,0.425917 -0.3367,1.091854 0,1.428571 0.3367,0.336718 1.0919,-0.336717 1.4286,0 0.3367,0.336718 -0.3367,1.091854 0,1.428572 0.3367,0.336717 1.0027,-0.212959 1.4286,0 1.2046,0.602338 1.7365,2.110033 2.8571,2.857142 -0.1627,2.706325 3.3333,0.952381 4.2857,1.428572 0.6024,0.301169 0.8263,1.127402 1.4286,1.428571 0.4348,0.217382 3.6423,0 4.2857,0 3.8095,0 7.6191,0 11.4286,0 1.1167,0 9.2191,0.260304 10,0 1.0101,-0.336717 1.847,-1.091854 2.8571,-1.428571 0.4518,-0.150585 1.0027,0.212959 1.4286,0 1.2047,-0.602339 1.6525,-2.254804 2.8571,-2.857143 0.426,-0.212959 1.0919,0.336717 1.4286,0 0.7529,-0.752923 1.0919,-1.84699 1.4286,-2.857143 0.1506,-0.451754 -0.3367,-1.091854 0,-1.428571 0.3367,-0.336718 1.2156,0.425917 1.4286,0 0.5714,-1.142857 -0.5715,-3.142857 0,-4.285715 0.3011,-0.602338 1.1274,-0.826232 1.4285,-1.428571 0.4259,-0.851835 -0.3011,-1.953635 0,-2.857143 0.3367,-1.010152 1.0919,-1.84699 1.4286,-2.857143 0.1506,-0.451754 -0.213,-1.002653 0,-1.428571 0.3012,-0.602339 1.2156,-0.789695 1.4286,-1.428572 0.3011,-0.903508 -0.3012,-1.953635 0,-2.857142 0.2129,-0.638877 1.1274,-0.826233 1.4285,-1.428572 0.213,-0.425918 -0.2129,-1.002654 0,-1.428571 0.3012,-0.602339 1.1274,-0.826233 1.4286,-1.428572 0.4259,-0.851835 -0.4259,-2.005307 0,-2.857143 0.7029,-1.405755 5.0114,-4.30853 5.7143,-5.714285 0.213,-0.425918 -0.3367,-1.091854 0,-1.428572 0.3367,-0.336717 1.1644,0.396215 1.4286,0 0.8353,-1.25294 0.7551,-2.938844 1.4285,-4.285714 0.3012,-0.602339 0.9524,-0.952381 1.4286,-1.428571 0.4762,-0.476191 0.8262,-1.127403 1.4286,-1.428572 0.4259,-0.212959 1.0918,0.336718 1.4286,0 0.3367,-0.336717 -0.426,-1.215612 0,-1.428571 0.8518,-0.425918 2.0053,0.425917 2.8571,0 0.4259,-0.212959 -0.3367,-1.091854 0,-1.428572 0.2921,-0.292052 3.7193,0.283209 4.2857,0 0.6024,-0.301169 0.8262,-1.127402 1.4286,-1.428571 0.5166,-0.25831 6.1492,0 7.1428,0 4.2858,0 8.5715,0 12.8572,0 0.4762,0 1.0918,-0.336718 1.4286,0 0.3367,0.336717 -0.3368,1.091854 0,1.428571 0.6734,0.673435 2.0053,-0.425917 2.8571,0 0.6023,0.30117 0.9524,0.952381 1.4286,1.428572 0.4762,0.47619 0.9524,0.952381 1.4285,1.428571 2.381,2.380952 4.7619,4.761905 7.1429,7.142857 0.9524,0.952381 1.7796,2.049021 2.8571,2.857143 0.8519,0.638877 1.9712,0.83793 2.8572,1.428572 0.6055,0.403679 3.9902,3.694642 4.2857,4.285714 0.213,0.425918 -0.3367,1.091854 0,1.428571 0.3367,0.336718 1.0919,-0.336717 1.4286,0 0.3367,0.336718 -0.213,1.002654 0,1.428572 0.6023,1.204677 2.2548,1.652465 2.8571,2.857143 0.213,0.425917 -0.3367,1.091853 0,1.428571 0.7529,0.752923 2.1042,0.675648 2.8572,1.428571 0.3367,0.336718 -0.213,1.002654 0,1.428572 0.6023,1.204677 2.2548,1.652465 2.8571,2.857143 0.213,0.425917 -0.3367,1.091854 0,1.428571 0.3367,0.336718 1.0919,-0.336717 1.4286,0 0.3367,0.336718 -0.213,1.002654 0,1.428572 0.3011,0.602338 1.1274,0.826232 1.4285,1.428571 0.213,0.425918 -0.3367,1.091854 0,1.428571 0.3368,0.336718 1.0919,-0.336717 1.4286,0 0.3367,0.336718 -0.3367,1.091854 0,1.428572 0.3367,0.336717 1.0919,-0.336718 1.4286,0 0.3367,0.336717 -0.3367,1.091854 0,1.428571 0.3367,0.336718 1.0918,-0.336717 1.4286,0 0.3367,0.336718 -0.3368,1.091854 0,1.428572 0.3367,0.336717 1.0026,-0.212959 1.4285,0 1.2047,0.602338 1.6525,2.254804 2.8572,2.857143 0.4259,0.212958 1.0323,-0.264143 1.4285,0 1.1207,0.747109 1.7365,2.110033 2.8572,2.857142 0.3962,0.264143 1.0918,-0.336717 1.4286,0 0.3367,0.336718 -0.426,1.215613 0,1.428572 0.3359,0.167965 4.7758,0 5.7142,0 0.5648,0 6.5328,0.30506 7.1429,0 0.6023,-0.301169 0.8262,-1.127402 1.4286,-1.428572 0.8518,-0.425917 2.0053,0.425918 2.8571,0 0.6024,-0.301169 0.8262,-1.127402 1.4286,-1.428571 0.4259,-0.212959 1.0026,0.212959 1.4286,0 0.6023,-0.301169 0.8262,-1.127402 1.4285,-1.428571 0.8979,-0.448945 4.8164,0.448944 5.7143,0 0.6024,-0.30117 0.8262,-1.127403 1.4286,-1.428572 0.4259,-0.212959 1.0918,0.336718 1.4286,0 0.3367,-0.336717 -0.3368,-1.091854 0,-1.428571 0.3367,-0.336718 1.0918,0.336717 1.4285,0 0.3367,-0.336718 -0.3367,-1.091854 0,-1.428572 0.753,-0.752923 1.9048,-0.952381 2.8572,-1.428571 2.8571,-1.428572 5.7143,-2.857143 8.5714,-4.285714 0.9524,-0.476191 1.9712,-0.83793 2.8571,-1.428572 0.5604,-0.373554 0.9524,-0.952381 1.4286,-1.428571 0.4762,-0.476191 1.1274,-0.826233 1.4286,-1.428572 1.2644,-2.528886 -2.1249,-0.488155 1.4286,-2.857143 2.6578,-1.771924 5.9135,-2.513789 8.5714,-4.285714 1.1207,-0.747109 1.8054,-2.01576 2.8571,-2.857143 1.3407,-1.072557 2.9122,-1.826985 4.2857,-2.857143 0.5388,-0.404061 0.8683,-1.055016 1.4286,-1.428571 0.9524,-0.476191 1.9048,-0.952381 2.8572,-1.428571 0.4761,0 1.0026,0.212958 1.4285,0 2.9513,-1.475627 -0.087,-2.323133 2.8572,-4.285715 0.8859,-0.590641 1.9712,-0.83793 2.8571,-1.428571 0.5603,-0.373555 0.9524,-0.952381 1.4286,-1.428572 0.9524,-0.952381 1.9047,-1.904762 2.8571,-2.857142 0.4762,-0.476191 0.9524,-0.952381 1.4286,-1.428572 0.4762,-0.47619 1.1274,-0.826233 1.4286,-1.428571 0.2129,-0.425918 -0.213,-1.002654 0,-1.428572 1.7653,-3.530578 1.4285,0.493112 1.4285,-2.857143"
       id="path3135"
       inkscape:connector-curvature="0"
       transform="translate(0,952.36218)" />
    <path
       style="fill:none;stroke:#000000;stroke-width:1px;stroke-linecap:butt;stroke-linejoin:miter;stroke-opacity:1"
       d="m 1335.7143,40 c 11.8427,-2.960668 2.448,-2.347411 7.1428,0 0.426,0.212959 1.0919,-0.336718 1.4286,0 0.3367,0.336717 0,0.952381 0,1.428571 0,0.952381 0,1.904762 0,2.857143 0,0.476191 0,0.952381 0,1.428572 0,0.47619 0.3367,1.091854 0,1.428571 -0.3367,0.336718 -0.9524,0 -1.4286,0 -2.3809,0 -4.7619,0 -7.1428,0 -0.9524,0 -1.9048,0 -2.8572,0 -0.4761,0 -1.6054,0.442132 -1.4285,0 1.0312,-2.578049 6.2491,-5.179473 4.2857,-7.142857 -1.9634,-1.963384 -4.6594,3.043961 -7.1429,4.285714 -0.4259,0.212959 -0.9524,0 -1.4285,0 -0.4762,0 -0.9524,0 -1.4286,0 -2.0509,0 -5.4456,0.424328 -7.1429,0 -0.6533,-0.163332 -0.8262,-1.127402 -1.4285,-1.428571 -0.426,-0.212959 -1.0919,0.336717 -1.4286,0 -0.046,-0.04594 0,-3.939248 0,-4.285714 0,-0.476191 0,-0.952381 0,-1.428572 0,-0.47619 -0.3367,-1.091854 0,-1.428571 1.9584,-1.958379 4.7123,-1.428572 7.1428,-1.428572 0.3465,0 4.2398,-0.04594 4.2858,0 0.3367,0.336718 0,0.952381 0,1.428572 0,0.47619 0,1.904762 0,1.428571 0,-0.952381 0,-3.809524 0,-2.857143 0,9.047619 1.4285,2.857143 -1.4286,4.285715 -5.9454,2.972686 1.5272,-0.09862 -1.4286,2.857142 -0.7529,0.752924 -1.9047,0.952381 -2.8571,1.428572"
       id="path3137"
       inkscape:connector-curvature="0"
       transform="translate(0,952.36218)" />
    <path
       style="fill:none;stroke:#000000;stroke-width:1px;stroke-linecap:butt;stroke-linejoin:miter;stroke-opacity:1"
       d="m 1260,54.285714 c 1.9555,-0.338268 6.9556,-3.231603 8.5714,0 0.2174,0.434763 0,3.642346 0,4.285715 0,0.47619 0,0.952381 0,1.428571 0,0.47619 0.3367,1.091854 0,1.428571 -0.3367,0.336718 -0.9524,0 -1.4285,0 -0.4762,0 -0.9524,0 -1.4286,0 -0.348,0 -4.2079,0.194511 -4.2857,0 -0.8984,-2.245993 -2.1375,-10.02137 -1.4286,-12.857142 0.1155,-0.461973 0.9524,0 1.4286,0 0.4762,0 0.9524,0 1.4285,0 0.4762,0 1.6416,-0.425918 1.4286,0 -1.0648,2.129588 -4.0228,3.347895 -4.2857,5.714285 -0.2832,2.54868 2.4356,4.613384 2.8571,7.142857 0.3301,1.980546 -3.5124,1.428572 -4.2857,1.428572 -1.0125,0 -8.202,0.184679 -8.5714,0 -5.9454,-2.972686 1.5272,0.09862 -1.4286,-2.857143 -0.3367,-0.336718 -0.9524,0 -1.4285,0 0,-0.952381 0.3011,-1.953635 0,-2.857143 -0.213,-0.638876 -1.1274,-0.826233 -1.4286,-1.428571 -0.2174,-0.434763 0,-3.642347 0,-4.285715 0,-0.47619 -0.3367,-1.091854 0,-1.428571 0.3367,-0.336718 1.0026,0.212959 1.4286,0 0.6023,-0.301169 0.8262,-1.127402 1.4285,-1.428571 0.4259,-0.212959 1.0919,0.336717 1.4286,0 0.3367,-0.336718 -0.4259,-1.215613 0,-1.428572 0.6072,-0.303582 5.9457,0 7.1429,0 0.4761,0 0.9523,0 1.4285,0 0.4762,0 1.0919,-0.336717 1.4286,0 0.3367,0.336718 0,0.952381 0,1.428572 0,1.904761 -0.1895,3.818976 0,5.714285 0.2882,2.882179 1.0189,5.703987 1.4286,8.571429 0.067,0.471404 0.3367,1.091854 0,1.428571 -0.3367,0.336718 -1.0919,-0.336717 -1.4286,0 -0.3367,0.336718 0.4259,1.215613 0,1.428572 -0.8518,0.425917 -1.9048,0 -2.8571,0 -2.381,0 -4.7619,0 -7.1429,0 -0.4762,0 -1.0919,0.336717 -1.4286,0 -0.6734,-0.673435 0.4259,-2.005308 0,-2.857143 -0.3011,-0.602339 -1.1274,-0.826233 -1.4285,-1.428572 -0.213,-0.425917 0.1505,-0.976817 0,-1.428571 -0.3368,-1.010153 -1.0919,-1.84699 -1.4286,-2.857143 -0.2577,-0.773152 0,-5.227609 0,-5.714286 0,-2.044234 -0.6734,-3.234711 1.4286,-4.285714 0.5272,-0.263644 7.327,0 8.5714,0"
       id="path3139"
       inkscape:connector-curvature="0"
       transform="translate(0,952.36218)" />
    <path
       style="fill:none;stroke:#000000;stroke-width:1px;stroke-linecap:butt;stroke-linejoin:miter;stroke-opacity:1"
       d="m 1191.4286,44.285714 c -7.021,-1.755235 -4.326,-0.04025 -8.5715,-4.285714 -0.4761,-0.476191 -1.1274,-0.826233 -1.4285,-1.428571 -0.213,-0.425918 0,-0.952381 0,-1.428572 0,-0.47619 0,-0.952381 0,-1.428571 0,-0.476191 -0.3367,-1.091854 0,-1.428572 0.6734,-0.673435 2.0053,0.425918 2.8571,0 0.6024,-0.301169 0.8262,-1.127402 1.4286,-1.428571 0.4259,-0.212959 0.9524,0 1.4286,0 0.4761,0 0.9523,0 1.4285,0 0.9524,0 1.9048,0 2.8572,0 0.9524,0 2.1837,-0.673435 2.8571,0 0.6734,0.673435 0,1.904762 0,2.857143 0,0.47619 0,0.952381 0,1.428571 -0.9524,2.380952 -2.602,4.59122 -2.8571,7.142857 2.3541,11.770621 2.2001,3.399562 0,10 -0.1506,0.451754 0.3367,1.091854 0,1.428572 -0.3367,0.336717 -0.9524,0 -1.4286,0 -0.4762,0 -0.9524,0 -1.4286,0 -0.6433,0 -3.8509,0.217381 -4.2857,0 -3.1586,-1.579325 -0.4433,-0.886633 -1.4286,-2.857143 -0.3011,-0.602339 -1.1274,-0.826233 -1.4285,-1.428572 -0.1878,-0.37563 0,-4.967256 0,-5.714285 0,-0.346467 -0.046,-4.239772 0,-4.285715 0.3367,-0.336717 0.9524,0 1.4285,0 0.4762,0 0.9769,-0.150584 1.4286,0 2.4328,0.810924 5.474,0.910133 7.1429,2.857143 1.5802,1.843555 1.0294,4.74779 1.4285,7.142857 0.078,0.469712 0,0.952381 0,1.428572 0,0.47619 0.3368,1.091854 0,1.428571 -0.1428,0.142857 -4.1428,0.142857 -4.2857,0 -0.3367,-0.336717 0.213,-1.002653 0,-1.428571 -0.3011,-0.602339 -1.6415,-0.789695 -1.4285,-1.428572 0.878,-2.634155 3.158,-4.605528 4.2857,-7.142857 0.7974,-1.794162 1.4285,-3.750902 1.4285,-5.714285 0,-0.476191 -1.313,-0.461973 -1.4285,0 -0.462,1.84789 0,3.809523 0,5.714285 z"
       id="path3141"
       inkscape:connector-curvature="0"
       transform="translate(0,952.36218)" />
    <path
       style="fill:none;stroke:#000000;stroke-width:1px;stroke-linecap:butt;stroke-linejoin:miter;stroke-opacity:1"
       d="m 1130,52.857143 c -1.4286,-1.904762 -3.2209,-3.584697 -4.2857,-5.714286 -0.4259,-0.851835 0,-1.904762 0,-2.857143 0,-0.952381 -0.231,-1.933197 0,-2.857143 0.2582,-1.033002 0.9524,-1.904762 1.4286,-2.857142 0.4761,-0.952381 0.8379,-1.971181 1.4285,-2.857143 0.2232,-0.334735 1.8456,-2.440126 2.8572,-1.428572 0.3367,0.336718 0,0.952381 0,1.428572 0,3.724381 0.6206,14.800925 -1.4286,17.142857 -1.9832,2.26653 -5.9565,1.362925 -8.5714,2.857143 -0.9245,0.528286 -0.6757,2.104219 -1.4286,2.857143 -0.01,0.01024 -4.2857,1.763158 -4.2857,2.857142 0,0.476191 0.9524,0 1.4286,0 4.2857,0 8.5714,0 12.8571,0 2.8571,0 5.7363,0.354385 8.5714,0 1.0566,-0.132071 1.8685,-1.033116 2.8572,-1.428571 1.3981,-0.559257 2.8571,-0.952381 4.2857,-1.428571 1.4286,-0.476191 2.8248,-1.06335 4.2857,-1.428572 0.462,-0.115493 1.7653,0.336718 1.4286,0 -0.753,-0.752923 -1.8242,-1.170321 -2.8572,-1.428571 -0.9239,-0.230987 -1.9047,0 -2.8571,0 -2.381,0 -4.7619,0 -7.1429,0 -0.9524,0 -1.9536,0.301169 -2.8571,0 C 1133.694,55.040851 1130,54.986731 1130,52.857143 c 0,-3.433859 3.7184,-5.777183 5.7143,-8.571429 0.9852,-1.379251 2.8571,-2.580734 2.8571,-1.428571 0,0.47619 -0.9524,0 -1.4285,0 -0.9524,0 -1.9048,0 -2.8572,0 -0.4762,0 -1.0026,0.212959 -1.4286,0 C 1132.0634,42.460261 1130.4606,40 1130,40 c -0.4762,0 0,0.952381 0,1.428571 0,1.428572 0,2.857143 0,4.285715"
       id="path3143"
       inkscape:connector-curvature="0"
       transform="translate(0,952.36218)" />
    <path
       style="fill:none;stroke:#000000;stroke-width:1px;stroke-linecap:butt;stroke-linejoin:miter;stroke-opacity:1"
       d="m 1457.1429,-15.714286 c 18.5113,-3.555877 0.4058,7.5486597 2.8571,10.0000002 0.3367,0.3367175 1.0919,-0.3367175 1.4286,0 0.3367,0.3367175 -0.3367,1.0918539 0,1.4285715 0.3367,0.3367175 1.0918,-0.3367176 1.4285,0 0.6735,0.673435 -0.6734,2.1837078 0,2.8571428 0.3368,0.3367175 1.2157,-0.4259177 1.4286,0 0.6389,1.27775315 -0.6389,3.0079612 0,4.2857143 0.6024,1.2046772 2.2548,1.6524657 2.8572,2.8571429 0.2129,0.4259177 -0.213,1.0026537 0,1.4285714 0.3011,0.6023386 1.1274,0.8262328 1.4285,1.4285714 0.213,0.4259177 -0.3367,1.0918539 0,1.4285715 0.3367,0.336717 1.0919,-0.3367176 1.4286,0 0.3367,0.336717 0,0.952381 0,1.428571 0.4762,0 1.0919,-0.336717 1.4286,0 0.3367,0.336718 0,0.952381 0,1.428572 0.9524,0.952381 1.7365,2.110034 2.8571,2.857143 2.2168,1.477882 0.9295,-2.426759 2.8572,1.428571 0.2129,0.425918 -0.3368,1.091854 0,1.428572 0.3367,0.336717 0.9523,0 1.4285,0 0.4762,0 0.9524,0 1.4286,0 1.4286,0 2.8571,0 4.2857,0 0.9524,0 1.9332,-0.230987 2.8572,0 6.3166,1.579156 2.2805,1.428571 5.7142,1.428571 0.4762,0 0.9524,0 1.4286,0 0.4762,0 1.4286,-0.476191 1.4286,0 0,0.47619 -1.9048,0 -1.4286,0 0.9524,0 1.9048,0 2.8572,0 0.4761,0 1.0026,0.212959 1.4285,0 0.6024,-0.301169 0.7897,-1.215613 1.4286,-1.428571 0.9035,-0.30117 1.9536,0.301169 2.8571,0 0.6389,-0.212959 0.8263,-1.127403 1.4286,-1.428572 0.8979,-0.448944 4.8164,0.448945 5.7143,0 0.6023,-0.301169 0.8262,-1.127402 1.4286,-1.428571 0.4259,-0.212959 1.0918,0.336717 1.4285,0 0.3368,-0.336718 -0.3367,-1.091854 0,-1.428572 5.5754,-5.575335 0.7673,0.33068 4.2858,-1.428571 5.9453,-2.9726862 -1.5272,0.09862 1.4285,-2.857143 0.3367,-0.3367176 1.0919,0.336717 1.4286,0 0.6734,-0.6734351 -0.6734,-2.1837079 0,-2.8571429 0.3367,-0.3367175 1.0919,0.3367175 1.4286,0 0.6734,-0.673435 -0.4259,-2.0053074 0,-2.8571429 0.3011,-0.6023386 1.1274,-0.8262328 1.4285,-1.4285714 0.5715,-1.1428571 -0.5714,-3.14285714 0,-4.2857143 0.3012,-0.6023386 1.1274,-0.8262328 1.4286,-1.4285714 0.4259,-0.8518354 -0.6734,-2.1837078 0,-2.8571429 0.3367,-0.3367175 1.0919,0.3367175 1.4286,0 0.7143,-0.7142857 -0.7143,-3.5714285 0,-4.2857142 0.3367,-0.336718 1.0918,0.3367175 1.4286,0 0.3367,-0.336718 -0.1506,-0.976818 0,-1.428571 0.3367,-1.010153 1.0918,-1.846991 1.4285,-2.857143 0.3276,-0.982618 -0.4214,-3.442829 0,-4.285715 0.3012,-0.602338 1.1274,-0.826232 1.4286,-1.428571 0.213,-0.425918 -0.213,-1.002654 0,-1.428571 0.3012,-0.602339 1.1274,-0.826233 1.4286,-1.428572 0.2129,-0.425918 -0.3367,-1.091854 0,-1.428571 0.3367,-0.336718 1.0918,0.336717 1.4285,0 0.3368,-0.336718 0.3368,-1.091854 0,-1.428572 -0.3367,-0.336717 -0.9523,0 -1.4285,0"
       id="path3145"
       inkscape:connector-curvature="0"
       transform="translate(0,952.36218)" />
    <path
       style="fill:none;stroke:#000000;stroke-width:1px;stroke-linecap:butt;stroke-linejoin:miter;stroke-opacity:1"
       d="m -25.714286,-14.285714 c 6.647619,0 6,-1.142857 11.428572,4.285714 0.336717,0.3367175 -0.212959,1.0026537 0,1.4285714 1.241753,2.4835057 2.745509,4.8325499 4.285714,7.1428571 1.3207147,1.98107215 3.1294216,3.6329589 4.2857143,5.7142857 1.0276693,1.8498047 3.4489308,8.6392928 4.2857143,11.4285718 0.99615434,3.320514 2.28721774,6.580449 2.8571428,10 0.3914262,2.348557 0,4.761904 0,7.142857 0,4.761905 0,9.523809 0,14.285714 0,3.333333 0.6984303,6.740659 0,10 C -1.0350557,68.639784 -6.9001898,70.398818 -14.285714,80 c -6.041552,7.854018 -11.415352,16.199824 -17.142857,24.28571 -7.023422,9.91542 -17.832746,24.9376 -24.285715,32.85715 -4.471663,5.48795 -9.649408,10.3647 -14.285714,15.71428 -1.559358,1.79926 -2.703896,3.93474 -4.285714,5.71429 -2.23703,2.51666 -4.761905,4.7619 -7.142857,7.14286 -1.904762,1.90476 -3.809524,3.80952 -5.714286,5.71428 -0.952381,0.95238 -1.779647,2.04902 -2.857143,2.85714 -6.918963,5.18923 0.08375,-1.51232 -4.285714,2.85715"
       id="path3147"
       inkscape:connector-curvature="0"
       transform="translate(0,952.36218)" />
    <path
       style="fill:none;stroke:#000000;stroke-width:1px;stroke-linecap:butt;stroke-linejoin:miter;stroke-opacity:1"
       d="m -52.857143,-104.28571 c 1.904762,0 3.854882,-0.41321 5.714286,0 6.758571,1.5019 16.641125,8.069692 21.428571,12.857138 3.104382,3.104383 5.859032,6.547859 8.571429,10 3.065806,3.901936 12.306588,17.222929 14.2857141,21.428572 1.92355498,4.087554 2.56566204,8.679873 4.2857143,12.857143 1.6216809,3.938368 4.2187888,7.440579 5.7142857,11.428571 1.3787801,3.676747 1.8061677,7.645061 2.8571429,11.428572 1.330611,4.790201 3.07993,9.462578 4.285714,14.285714 1.177804,4.7112147 1.321475,9.67870981 2.857143,14.2857142 C 18.962378,9.744278 22.148795,14.657702 24.285714,20 c 17.119094,42.797734 -10.120426,-19.80480453 10,27.142857 11.81118,27.559418 2.736504,3.975498 12.857143,30 1.474639,3.791929 3.1377,7.525323 4.285714,11.428572 0.712328,2.421913 5.533859,25.338581 5.714286,27.142861 0.473827,4.73827 0,9.52381 0,14.28571 0,5.71429 0,11.42857 0,17.14286 0,5.23809 0.453774,10.49588 0,15.71428 -1.289065,14.82425 -3.267664,19.2189 -8.571428,32.85715 -1.314433,3.37997 -3.065971,6.58471 -4.285715,10 -1.165983,3.26475 -0.934153,7.11551 -2.857143,10 C 37.033568,222.30679 27.73093,229.85067 20,232.85714 c -5.060232,1.96787 -10.5020552,2.76548 -15.7142857,4.28572 -6.2178151,1.81353 -12.4269105,3.66611 -18.5714283,5.71428 -6.715806,2.2386 -13.17036,5.28023 -20,7.14286 -3.703893,1.01015 -7.641637,0.79742 -11.428572,1.42857 -4.790135,0.79836 -9.553867,1.76518 -14.285714,2.85714 -1.467284,0.33861 -2.857143,0.95239 -4.285714,1.42858 -3.809524,0.47619 -7.641637,0.79741 -11.428572,1.42857 -1.936669,0.32278 -3.789029,1.04352 -5.714285,1.42857 -0.466944,0.0934 -0.952381,0 -1.428572,0 -1.428571,0 -2.857143,0 -4.285714,0"
       id="path3149"
       inkscape:connector-curvature="0"
       transform="translate(0,952.36218)" />
    <path
       style="fill:none;stroke:#000000;stroke-width:1px;stroke-linecap:butt;stroke-linejoin:miter;stroke-opacity:1"
       d="m 158.57143,-95.714286 c 3.34055,6.167397 5.81976,12.87111 10,18.571429 3.60626,4.91763 7.85812,9.342019 11.42857,14.285714 2.63024,3.641873 4.7619,7.619048 7.14286,11.428571 3.80952,4.761905 7.82231,9.368085 11.42857,14.285715 1.642,2.239099 2.61973,4.921542 4.28571,7.142857 2.63416,3.512207 6.19737,6.307008 8.57143,10 1.96109,3.050583 2.81283,6.686009 4.28572,10 0.43245,0.9730212 1.09185,1.8469903 1.42857,2.8571428 0.62087,1.8626293 0.95238,3.8095238 1.42857,5.7142857 1.16158,4.6463283 1.87493,5.5363587 1.42857,10 -0.33505,3.3504645 0.0773,6.9883075 -1.42857,10.0000005 -1.50585,3.011693 -4.76191,4.761904 -7.14286,7.142857 -4.28571,4.285714 -8.17854,9.004175 -12.85714,12.857143 -3.4678,2.855833 -7.7867,4.512615 -11.42857,7.142857 -4.9437,3.570446 -9.49933,7.649848 -14.28572,11.428571 -4.26144,3.364301 -8.71241,6.492917 -12.85714,10 -9.70983,8.21601 -1.52866,3.640236 -12.85714,11.428572 -5.11628,3.517443 -10.54828,6.555997 -15.71429,10 -4.50587,1.470316 -6.4275,6.019642 -10,8.571428 -1.73292,1.237798 -3.86528,1.800571 -5.71428,2.857143 -1.49072,0.85184 -2.70761,2.18081 -4.28572,2.85714 -3.87969,1.66273 -5.51336,0.56359 -8.57143,2.85715 -1.07749,0.80812 -1.65246,2.2548 -2.85714,2.85714 -1.756104,0.87805 -3.809524,0.95238 -5.714286,1.42857 -7.574655,1.89366 -5.178695,1.45606 -14.285714,2.85714 -3.328021,0.51201 -6.687138,0.82624 -10,1.42857 -3.590984,0.008 -6.600602,2.17727 -10,2.85715 -1.40083,0.28016 -2.857143,0 -4.285714,0 -5.714286,0 -11.428572,0 -17.142857,0 -1.139938,0 -6.285795,-0.28569 -7.142858,0 -1.010152,0.33671 -1.84699,1.09185 -2.857142,1.42857 -0.451754,0.15058 -1.002654,-0.21296 -1.428572,0 -0.602338,0.30117 -0.789695,1.21561 -1.428571,1.42857 -2.142857,0.71429 -5,-0.71429 -7.142857,0 -0.638877,0.21296 -0.826233,1.1274 -1.428572,1.42857 -0.434763,0.21738 -3.642346,0 -4.285714,0"
       id="path3151"
       inkscape:connector-curvature="0"
       transform="translate(0,952.36218)" />
    <path
       style="fill:none;stroke:#000000;stroke-width:1px;stroke-linecap:butt;stroke-linejoin:miter;stroke-opacity:1"
       d="m 32.857143,-55.714286 c 2.857143,0 5.81496,-0.751764 8.571428,0 4.08873,1.115108 11.199631,7.755575 14.285715,10 2.777085,2.019699 5.714285,3.809524 8.571428,5.714286 2.857143,2.857143 5.416242,6.047279 8.571429,8.571429 1.662929,1.330343 4.208439,1.351296 5.714286,2.857142 2.896553,2.896554 4.68505,6.722924 7.142857,10 3.257644,4.343526 6.988307,8.339604 10,12.8571432 0.835293,1.2529401 0.697267,2.9693676 1.428571,4.2857143 1.667629,3.0017323 4.361623,5.4152147 5.714283,8.5714286 1.54683,3.6092689 1.53643,7.7305699 2.85715,11.4285719 1.07438,3.008284 3.51096,5.472422 4.28571,8.571428 0.69296,2.771836 -0.21913,5.722702 0,8.571429 1.59656,20.755305 1.43843,-1.270775 2.85714,21.428571 0.23763,3.802105 0,7.619048 0,11.428572 0,10.725 0.29704,27.479436 -1.42857,37.142861 -1.05885,5.92958 -3.63197,11.49085 -5.71428,17.14285 -9.090684,24.67471 -1.37624,2.73503 -5.71429,12.85715 -0.181701,0.42396 -2.985445,8.04959 -4.285714,10 -0.373555,0.56033 -0.952381,0.95238 -1.428572,1.42857 -0.47619,0.47619 -0.789695,1.21561 -1.428571,1.42857 -11.732318,3.91077 -21.504012,3.95129 -34.285714,5.71428 -6.204565,0.85581 -12.374768,1.94587 -18.571429,2.85715 -9.994036,1.46971 -20.035917,2.62503 -30,4.28571 -12.8972374,2.14954 -26.673705,5.66216 -40,7.14286 -7.750963,3.01932 -16.32605,0.70496 -24.285714,1.42857 -2.418133,0.21983 -4.739157,1.08519 -7.142857,1.42857 -0.18727,0.0267 -7.063517,0.0397 -7.142858,0 -0.425917,-0.21296 -0.47619,-1.42857 0,-1.42857 0.476191,0 0,0.95238 0,1.42857"
       id="path3153"
       inkscape:connector-curvature="0"
       transform="translate(0,952.36218)" />
    <path
       style="fill:none;stroke:#000000;stroke-width:1px;stroke-linecap:butt;stroke-linejoin:miter;stroke-opacity:1"
       d="m 238.57143,-97.142857 c 3.06094,7.384933 7.68082,0.595738 11.42857,1.428571 3.83326,0.851836 7.61905,1.904762 11.42857,2.857143 1.90476,0.476191 3.95818,0.55052 5.71429,1.428571 1.20467,0.602339 1.73648,2.110034 2.85714,2.857143 1.77192,1.181284 3.94236,1.67586 5.71429,2.857143 1.12066,0.747109 1.90476,1.904762 2.85714,2.857143 1.42857,1.428571 3.11143,2.641724 4.28571,4.285714 1.2378,1.732918 1.83739,3.84473 2.85715,5.714286 1.83839,3.370391 4.28845,6.43542 5.71428,10 0.53056,1.326395 -0.14215,2.864233 0,4.285714 0.47619,3.333334 0.95238,6.666667 1.42857,10 0,2.380953 -0.21556,4.771683 0,7.142857 0.26224,2.884659 1.18803,5.684881 1.42857,8.571429 0.23728,2.847274 0,5.714286 0,8.571429 0,7.142857 0,14.285714 0,21.4285711 0,2.38095237 0,4.7619048 0,7.1428571 0,2.8571429 -0.40406,5.7430018 0,8.5714288 0.0952,0.666666 1.34505,0.760337 1.42858,1.428571 0.41344,3.307593 0,6.666667 0,10 0,10 0,20 0,30 0,4.761905 0,9.52381 0,14.285715 0,2.380952 0.46694,4.808141 0,7.142857 C 295.10628,78.754329 291.47934,85.612743 290,88.571429 284.73967,99.092092 284.56281,100.93117 277.14286,110 c -1.70578,2.08484 -3.80953,3.80952 -5.71429,5.71429 -2.85714,2.85714 -5.71428,5.71428 -8.57143,8.57142 -2.85714,2.85715 -5.71428,5.71429 -8.57143,8.57143 -2.38095,2.38096 -4.64005,4.89034 -7.14285,7.14286 -2.26639,2.03974 -4.76191,3.80952 -7.14286,5.71429 -2.38095,1.90476 -4.64493,3.96573 -7.14286,5.71428 -2.27471,1.5923 -4.88341,2.67182 -7.14285,4.28572 -9.50258,6.78755 4.65995,-0.77264 -7.14286,4.28571 -7.15109,3.06475 -4.02207,2.12753 -10,5.71429 -3.37642,2.02585 -6.14173,2.35658 -10,4.28571 -0.60234,0.30117 -0.95238,0.95238 -1.42857,1.42857 -0.95238,0.95238 -1.77965,2.04902 -2.85715,2.85714 -1.70367,1.27776 -3.94236,1.67586 -5.71428,2.85715 -2.64793,1.76529 -0.13101,1.42857 -2.85714,1.42857"
       id="path3155"
       inkscape:connector-curvature="0"
       transform="translate(0,952.36218)" />
    <path
       style="fill:none;stroke:#000000;stroke-width:1px;stroke-linecap:butt;stroke-linejoin:miter;stroke-opacity:1"
       d="m 227.14286,-71.428572 c 2.38095,0.952381 4.63956,2.300855 7.14285,2.857143 1.85941,0.413201 3.83544,-0.313141 5.71429,0 1.05031,0.175051 1.84699,1.091854 2.85714,1.428572 1.86263,0.620876 3.87592,0.739181 5.71429,1.428571 1.16127,0.435477 13.27773,6.470866 14.28571,7.142857 1.12067,0.747109 1.65247,2.254805 2.85715,2.857143 1.7561,0.878052 3.95818,0.55052 5.71428,1.428572 1.20468,0.602338 1.70221,2.164184 2.85714,2.857142 8.19439,2.731461 0.86776,-0.42061 7.14286,4.285715 3.85465,2.890984 2.34107,-0.02393 7.14286,2.857143 1.15493,0.692959 1.77965,2.04902 2.85714,2.857142 0.85184,0.638877 2.02568,0.7634 2.85714,1.428572 2.53217,2.025736 6.11783,6.117821 8.57143,8.571429 2.15916,2.159158 5.32383,4.869071 7.14286,7.142857 1.07256,1.340696 1.55355,3.168351 2.85714,4.285714 2.10819,1.807016 4.92155,2.619728 7.14286,4.285714 1.61624,1.212183 2.85714,2.857143 4.28571,4.285715 1.90477,0.95238 3.94237,1.6758592 5.71429,2.8571424 1.12066,0.7471091 1.90476,1.9047619 2.85714,2.8571428 1.90476,1.9047619 3.9898,3.6448973 5.71429,5.714285747236376 C 345.5406,8.3630028 337.61741,-0.47947071 340,4.2857142 c 0.30117,0.6023386 1.1274,0.8262329 1.42857,1.4285715 0.42592,0.8518354 -0.42592,2.0053074 0,2.8571428 0.30117,0.6023386 1.1274,0.8262329 1.42857,1.4285715 0.21296,0.425918 -0.15058,0.976817 0,1.428571 0.33672,1.010153 1.09186,1.846991 1.42857,2.857143 0.15059,0.451754 -0.33671,1.091854 0,1.428572 0.33672,0.336717 1.21562,-0.425918 1.42858,0 0.42591,0.851835 -0.30117,1.953635 0,2.857143 0.21295,0.638876 1.21561,0.789694 1.42857,1.428571 0.19271,0.578145 0,10.934867 0,11.428571 0,1.287664 0.29971,6.243716 0,7.142858 -0.86487,2.594611 -1.22264,2.651211 -2.85715,4.285714 -0.47619,0.47619 -1.1274,0.826233 -1.42857,1.428571 -0.21296,0.425918 0.26415,1.032357 0,1.428572 -0.74711,1.120663 -1.90476,1.904762 -2.85714,2.857143 -0.95238,0.95238 -1.77965,2.04902 -2.85714,2.857142 -0.85184,0.638877 -2.00531,0.789695 -2.85715,1.428572 -1.07749,0.808122 -1.77964,2.049021 -2.85714,2.857143 -0.85183,0.638876 -2.00531,0.789695 -2.85714,1.428571 -1.0775,0.808122 -1.77965,2.049021 -2.85714,2.857143 -0.85184,0.638877 -2.00531,0.789695 -2.85715,1.428571 -1.07749,0.808122 -1.73648,2.110034 -2.85714,2.857143 -0.39621,0.264143 -1.00265,-0.212959 -1.42857,0 -8.35274,4.176372 -1.69622,1.272167 -5.71429,4.285715 -1.37354,1.030157 -2.81346,1.97379 -4.28571,2.857142 -0.91305,0.547833 -1.90476,0.952381 -2.85714,1.428572 -1.42858,0.47619 -2.97828,0.681462 -4.28572,1.428571 -2.06724,1.181283 -3.64704,3.104431 -5.71428,4.285715 -1.30745,0.747109 -2.99447,0.653819 -4.28572,1.428571 -1.15493,0.692959 -1.80541,2.01576 -2.85714,2.857143 -2.87315,2.298523 -4.17553,2.80205 -7.14286,4.285714 -1.90476,0.952381 -3.94236,1.67586 -5.71428,2.857143 -1.12067,0.747109 -1.70222,2.164184 -2.85715,2.857143 -1.29125,0.774751 -2.88757,0.869314 -4.28571,1.428571 -0.98864,0.395455 -1.90476,0.952381 -2.85714,1.428572 -1.42858,0.952381 -2.70761,2.180811 -4.28572,2.857143 -1.80463,0.773414 -3.95818,0.550519 -5.71428,1.428571 -2.12959,1.06479 -3.73322,2.965 -5.71429,4.28571 -0.88596,0.59065 -1.90476,0.95239 -2.85714,1.42858 -0.95238,0.47619 -1.86851,1.03311 -2.85715,1.42857 -1.39814,0.55925 -2.97827,0.68146 -4.28571,1.42857 -3.68524,2.10585 -4.87307,4.4815 -8.57143,5.71428 -2.84605,0.94869 0.4577,-1.58113 -4.28571,0 -0.63888,0.21296 -0.82624,1.12741 -1.42857,1.42858 -0.42592,0.21295 -0.97682,-0.15059 -1.42858,0 -1.01015,0.33671 -1.82414,1.17032 -2.85714,1.42857 -1.38592,0.34648 -2.93045,-0.45176 -4.28571,0 -1.01016,0.33671 -1.84699,1.09185 -2.85715,1.42857 -0.45175,0.15058 -0.97681,-0.15059 -1.42857,0 -1.01015,0.33672 -1.84699,1.09185 -2.85714,1.42857 -1.18585,0.39528 -3.33703,-0.31623 -4.28571,0 -0.63888,0.21296 -0.7897,1.21561 -1.42858,1.42857 -0.9035,0.30117 -1.95363,-0.30117 -2.85714,0 -0.63888,0.21296 -0.78969,1.21561 -1.42857,1.42857 -2.14286,0.71429 -5,-0.71428 -7.14286,0 -0.63887,0.21296 -0.86824,1.05502 -1.42857,1.42857 -2.78173,1.85449 -2.6217,1.42858 -5.71428,1.42858"
       id="path3157"
       inkscape:connector-curvature="0"
       transform="translate(0,952.36218)" />
    <path
       style="fill:none;stroke:#000000;stroke-width:1px;stroke-linecap:butt;stroke-linejoin:miter;stroke-opacity:1"
       d="m 81.428571,-91.428572 c 9.52381,0 19.047619,0 28.571429,0 2.38095,0 4.77372,-0.236913 7.14286,0 2.41605,0.241606 4.74298,1.059361 7.14285,1.428572 3.79453,0.583773 7.66396,0.675648 11.42858,1.428571 3.39939,0.67988 6.66666,1.904762 10,2.857143 28.82334,8.235242 -7.12578,-2.192545 18.57142,5.714286 11.42128,3.514239 7.5538,1.60469 17.14286,5.714286 1.9574,0.838886 3.66664,2.2721 5.71429,2.857142 2.33468,0.667052 4.91107,0.472095 7.14285,1.428572 1.23797,0.530558 1.77965,2.049021 2.85715,2.857143 0.85183,0.638876 1.90476,0.952381 2.85714,1.428571 0.95238,0.476191 1.86851,1.033117 2.85714,1.428572 1.39815,0.559257 2.99446,0.653819 4.28572,1.428571 1.15493,0.692959 1.90476,1.904762 2.85714,2.857143 2.85714,2.857143 5.71429,5.714286 8.57143,8.571428 6.8986,6.898603 -1.86777,-1.494218 7.14286,5.714286 3.42806,2.74245 2.92987,3.430304 5.71428,7.142857 0.40406,0.538748 1.21561,0.789695 1.42857,1.428572 0.30117,0.903508 -0.23098,1.933197 0,2.857143 0.25825,1.033002 1.09186,1.84699 1.42857,2.857143 0.45176,1.355261 -0.34648,2.899796 0,4.285714 0.25825,1.033002 1.17033,1.82414 1.42858,2.857143 0.23098,0.923945 -0.15657,1.91772 0,2.857143 0.32277,1.936669 1.10579,3.777616 1.42857,5.714285 0.23485,1.409134 0,2.857143 0,4.285715 0,2.3809519 0,4.7619043 0,7.1428567 0,2.3809523 0,4.76190472 0,7.1428571 0,1.4285714 0.23485,2.8765801 0,4.2857143 -0.29193,1.7515413 -3.13739,9.8974629 -4.28572,11.4285719 -0.80812,1.077496 -2.16418,1.702211 -2.85714,2.857142 -0.77475,1.291253 -0.89983,2.875747 -1.42857,4.285715 -0.90041,2.401089 -1.71033,4.84922 -2.85714,7.142857 C 217.13686,50.011994 227.97247,26.712544 220,40 c -0.77475,1.291253 -0.68146,2.978273 -1.42857,4.285714 -1.18128,2.067246 -2.965,3.733214 -4.28572,5.714286 -0.59064,0.885962 -0.78969,2.005307 -1.42857,2.857143 -0.80812,1.077496 -2.04902,1.779647 -2.85714,2.857143 -1.27775,1.703671 -1.67586,3.942361 -2.85714,5.714285 -2.6984,4.04759 -0.75716,-2.685655 -2.85715,5.714286 -0.35714,1.428572 0.71429,2.857143 0,4.285714 -0.60233,1.204678 -2.2548,1.652466 -2.85714,2.857143 -0.42592,0.851836 0.42592,2.005308 0,2.857143 -0.60234,1.204677 -2.04902,1.779647 -2.85714,2.857143 -0.63888,0.851835 -0.95238,1.904762 -1.42857,2.857143 -0.95238,0.952381 -2.01576,1.805414 -2.85715,2.857143 -1.07255,1.340696 -1.53816,3.186563 -2.85714,4.285714 -1.63599,1.363329 -3.94236,1.67586 -5.71428,2.857143 -1.12067,0.747109 -1.73648,2.110034 -2.85715,2.857143 -1.77192,1.181283 -3.98137,1.619344 -5.71428,2.857143 -1.64399,1.174278 -2.66947,3.073531 -4.28572,4.285711 -2.22131,1.66599 -4.83255,2.74551 -7.14285,4.28572 -1.98108,1.32071 -3.69525,3.02381 -5.71429,4.28571 -6.90056,4.31285 -5.57956,1.48252 -12.85714,7.14286 -10.87409,8.45762 -0.48673,3.16135 -11.42857,10 -1.80589,1.12868 -3.86529,1.80057 -5.71429,2.85714 -1.49071,0.85184 -2.81346,1.97379 -4.28571,2.85714 -5.5395,3.3237 -0.12221,-0.97977 -7.14286,4.28572 -1.54507,1.1588 -2.91846,2.91845 -4.28572,4.28571 -0.47619,0.47619 -0.82623,1.12741 -1.42857,1.42857 -0.42591,0.21296 -0.97681,-0.15058 -1.42857,0 -1.01015,0.33672 -1.90476,0.95239 -2.85714,1.42858"
       id="path3159"
       inkscape:connector-curvature="0"
       transform="translate(0,952.36218)" />
    <path
       style="fill:none;stroke:#000000;stroke-width:1px;stroke-linecap:butt;stroke-linejoin:miter;stroke-opacity:1"
       d="m 522.85714,-74.285714 c -4.19956,1.212183 -8.6145,-0.606092 -12.85714,0 -1.94365,0.277664 -3.80952,0.952381 -5.71429,1.428571 -2.49408,0.623521 -6.2648,1.127175 -8.57142,2.857143 -1.0775,0.808122 -1.80542,2.01576 -2.85715,2.857143 -1.34069,1.072557 -3.07166,1.64309 -4.28571,2.857143 -1.21405,1.214052 -1.42857,3.333333 -2.85714,4.285714 -1.63364,1.089089 -4.24684,0.12417 -5.71429,1.428571 -3.06165,2.721464 -4.2463,7.103447 -7.14286,10 -1.50584,1.505847 -4.20844,1.351297 -5.71428,2.857143 -1.50585,1.505847 -1.67586,3.942361 -2.85715,5.714286 -0.7471,1.120664 -1.90476,1.904762 -2.85714,2.857143 -3.33333,3.333333 -6.66666,6.666666 -10,10 -1.42857,1.428571 -2.95533,2.76528 -4.28571,4.285714 -2.00785,2.294687 -3.4196,5.135006 -5.71429,7.142857 -1.60268,1.402344 -4.09738,1.471225 -5.71428,2.857143 -1.80776,1.549503 -2.71785,3.9224365 -4.28572,5.7142858 -13.75531,13.7553148 0.1313,-0.8784026 -8.57143,10 C 422.01576,3.9088716 420.95238,4.7619047 420,5.7142857 418.57143,7.1428571 417.14286,8.5714285 415.71429,10 c -1.90477,1.904762 -4.09805,3.559294 -5.71429,5.714286 -1.27775,1.703671 -1.90476,3.809523 -2.85714,5.714285 -1.90476,3.809524 -3.98447,7.536487 -5.71429,11.428572 -1.04149,2.343345 -1.81565,4.799511 -2.85714,7.142857 -1.19048,2.678571 -6.54762,12.648809 -7.14286,14.285714 -0.82979,2.281917 -0.95238,4.761905 -1.42857,7.142857 -0.47619,2.380953 -1.22693,4.72314 -1.42857,7.142858 -0.27682,3.321819 0,6.666666 0,10 0,2.857142 0,5.714285 0,8.571428 0,5.238095 0,10.476191 0,15.714283 0,2.38096 0,4.76191 0,7.14286 0,0.95238 -0.49,2.04048 0,2.85714 1.03944,1.7324 2.85714,2.85715 4.28571,4.28572 0.95238,0.95238 1.90476,1.90476 2.85715,2.85714 0.95238,0.95238 1.70221,2.16418 2.85714,2.85714 0.0274,0.0165 8.39881,2.79241 8.57143,2.85715 2.40109,0.9004 4.7619,1.90476 7.14285,2.85714 4.76191,1.90476 9.42018,4.09244 14.28572,5.71428 0.45175,0.15059 0.95238,0 1.42857,0 0.51726,0 7.57051,-0.25022 8.57143,0 1.033,0.25825 1.82414,1.17033 2.85714,1.42858 0.97014,0.24253 3.31557,-0.24254 4.28572,0 1.46088,0.36522 2.80911,1.13325 4.28571,1.42857 0.93389,0.18677 1.90476,0 2.85714,0 1.90477,0 3.80953,0 5.71429,0"
       id="path3161"
       inkscape:connector-curvature="0"
       transform="translate(0,952.36218)" />
    <path
       style="fill:none;stroke:#000000;stroke-width:1px;stroke-linecap:butt;stroke-linejoin:miter;stroke-opacity:1"
       d="m 518.57143,-108.57143 c -7.78029,1.94507 -3.95818,0.55052 -11.42857,4.28572 -0.95238,0.47619 -1.97118,0.83793 -2.85715,1.42857 -1.68099,1.12066 -2.70812,3.023637 -4.28571,4.285711 -1.3407,1.072557 -2.81346,1.97379 -4.28571,2.857143 -0.91306,0.547832 -2.10422,0.675648 -2.85715,1.428572 -0.75292,0.752923 -0.67565,2.104219 -1.42857,2.857142 -0.75292,0.752924 -2.02568,0.7634 -2.85714,1.428572 -2.62932,2.103458 -4.76191,4.761905 -7.14286,7.142857 -0.95238,0.952381 -2.04902,1.779647 -2.85714,2.857143 -0.63888,0.851835 -0.67565,2.10422 -1.42857,2.857143 -1.68359,1.683587 -3.85508,2.798345 -5.71429,4.285714 -0.52586,0.420692 -0.95238,0.952381 -1.42857,1.428571 -0.95238,0.952381 -2.04902,1.779647 -2.85714,2.857143 -1.27776,1.703671 -1.3513,4.20844 -2.85715,5.714286 -0.33671,0.336718 -1.04761,-0.285714 -1.42857,0 -0.74513,0.558849 -9.44115,9.254868 -10,10 -0.28571,0.380952 0,0.952381 0,1.428571 -0.47619,0.952381 -0.78969,2.005308 -1.42857,2.857143 -0.80812,1.077496 -2.11003,1.73648 -2.85714,2.857143 -0.26414,0.396215 0.38095,1.142857 0,1.428572 -1.70367,1.277753 -4.20844,1.351296 -5.71429,2.857142 -0.67343,0.673436 0.42592,2.005308 0,2.857143 -0.9035,1.807016 -2.85714,2.857143 -4.28571,4.285715 -2.38095,2.380952 -4.3412,5.275084 -7.14286,7.142857 -2.13368,1.422453 -4.91636,1.584862 -7.14286,2.857143 -1.16941,0.668234 -1.90476,1.904762 -2.85714,2.857143 -1.42857,1.428571 -2.64172,3.111435 -4.28571,4.285714 -1.73292,1.237798 -3.94236,1.675859 -5.71429,2.857143 -1.12066,0.747109 -1.90476,1.904762 -2.85714,2.857143 -3.26382,3.2638162 -7.81989,7.5043683 -10,11.428570947236348 C 397.61793,1.716306 397.94026,3.920123 397.14286,5.7142857 c -1.1277,2.5373291 -2.85715,4.7619043 -4.28572,7.1428573 -0.95238,3.333333 -1.67241,6.742 -2.85714,10 -0.72777,2.001373 -1.90476,3.809524 -2.85714,5.714286 -5.47467,10.949344 0.0323,0.300592 -7.14286,12.857142 -2.2335,3.90863 -0.90589,2.264725 -2.85714,7.142858 -0.39546,0.988636 -1.09186,1.84699 -1.42857,2.857142 -0.29889,0.896648 0,4.564236 0,5.714286 0,0.952381 0,1.904762 0,2.857143 0,0.47619 -0.21296,1.002654 0,1.428571 0.30117,0.602339 1.21561,0.789695 1.42857,1.428572 0.30117,0.903508 -0.30117,1.953635 0,2.857143 0.21296,0.638876 1.26524,0.775243 1.42857,1.428571 0.34648,1.385918 0,2.857143 0,4.285714 0,0.952381 -0.30117,1.953635 0,2.857143 0.21296,0.638877 1.21561,0.789695 1.42857,1.428572 0.30117,0.903508 -0.15657,1.91772 0,2.857143 0.32278,1.936669 1.10579,3.777616 1.42857,5.714285 0.15657,0.939423 -0.18678,1.923257 0,2.857143 0.29532,1.476604 1.13325,2.80911 1.42857,4.285714 0.18678,0.933887 -0.30117,1.953635 0,2.857143 0.21296,0.638877 1.21562,0.789695 1.42857,1.428572 1.42858,4.285714 -0.71428,1.428571 0,4.285714 0.47619,1.42857 0.95239,2.85714 1.42858,4.28571 0,0.95239 -0.23099,1.9332 0,2.85715 0.25825,1.033 0.95238,1.90476 1.42857,2.85714 0.47619,0.95238 0.83793,1.97118 1.42857,2.85714 1.55543,2.33316 2.11729,0.58644 2.85714,4.28572 1.13247,5.66231 -1.48296,2.77555 1.42857,7.14285 0.89125,1.33688 4.79938,4.79938 5.71429,5.71429 2.15916,2.15916 4.86907,5.32383 7.14286,7.14286 1.34069,1.07255 2.85714,1.90476 4.28571,2.85714 1.90476,1.42857 3.88519,2.76147 5.71429,4.28571 1.55204,1.29337 2.60471,3.16505 4.28571,4.28572 0.88596,0.59064 2.02568,0.7634 2.85714,1.42857 1.5776,1.26207 2.70812,3.02364 4.28572,4.28571 0.83146,0.66518 1.94409,0.88074 2.85714,1.42858 2.02788,1.21672 8.79048,5.93333 10,7.14285 1.68359,1.68359 2.38095,4.28572 4.28571,5.71429 2.0515,1.53862 4.79952,1.81565 7.14286,2.85714 1.94604,0.86491 3.85269,1.82292 5.71429,2.85714 2.42722,1.34846 4.80031,2.79501 7.14285,4.28572 2.89702,1.84355 5.5001,4.17862 8.57143,5.71428 1.75611,0.87806 3.92013,0.63117 5.71429,1.42858 16.10491,7.15773 -1.68127,1.82053 14.28571,7.14285 7.31906,2.43969 6.02122,0.30693 11.42857,5.71429"
       id="path3163"
       inkscape:connector-curvature="0"
       transform="translate(0,952.36218)" />
    <path
       style="fill:none;stroke:#000000;stroke-width:1px;stroke-linecap:butt;stroke-linejoin:miter;stroke-opacity:1"
       d="m 587.14286,-48.571429 c -5.2381,0 -10.47619,0 -15.71429,0 -0.95238,0 -1.9332,-0.230986 -2.85714,0 -1.033,0.258251 -1.86851,1.033117 -2.85714,1.428572 -11.78077,4.712304 5.73317,-3.34173 -11.42858,4.285714 -1.94604,0.864908 -3.76824,1.992235 -5.71428,2.857143 -2.34335,1.041487 -4.84922,1.710324 -7.14286,2.857143 -2.4835,1.241753 -4.65935,3.043961 -7.14286,4.285714 -2.29363,1.146819 -4.84922,1.710324 -7.14285,2.857143 -6.44081,3.220404 -7.27425,4.583644 -12.85715,8.571429 -1.39712,0.997944 -2.94501,1.784585 -4.28571,2.857142 -2.10346,1.682766 -3.55929,4.098042 -5.71429,5.714286 -0.85183,0.638877 -2.10422,0.675648 -2.85714,1.428572 -0.75292,0.752923 -0.78969,2.005307 -1.42857,2.8571424 -0.80812,1.077496 -2.11003,1.7364792 -2.85714,2.8571428 -6.75872,10.1380805 1.59223,1.4456144 -7.14286,11.4285715 -13.75531,13.7553153 0.13129,-0.8784026 -8.57143,10.0000003 -0.84138,1.051728 -2.16418,1.702211 -2.85714,2.857143 -0.77475,1.291252 -0.75514,2.938844 -1.42857,4.285714 -0.30117,0.602338 -1.21562,0.789695 -1.42857,1.428571 -0.26252,0.787541 0,7.359077 0,8.571429 0,8.095238 0,16.190476 0,24.285714 0,4.761905 0,9.52381 0,14.285714 0,0.919296 -0.2417,9.033222 0,10 1.72462,6.898492 0.67888,-0.0708 2.85714,4.285715 0.21296,0.425917 -0.26414,1.032357 0,1.428571 0.74711,1.120664 1.90476,1.904762 2.85714,2.857143 8.7209,8.720894 -5.85163,-5.739783 15.71429,14.28571 2.46744,2.2912 4.7619,4.76191 7.14285,7.14286 1.42858,1.42857 2.70813,3.02364 4.28572,4.28572 3.19871,2.55896 6.68714,4.7335 10,7.14285 1.92556,1.40041 4.0307,2.60213 5.71428,4.28572 0.33672,0.33671 -0.33671,1.09185 0,1.42857 2.63275,2.63274 4.32463,2.59477 7.14286,4.28571 3.15942,-0.13952 3.73322,2.965 5.71429,4.28572 1.77192,1.18128 3.94236,1.67586 5.71428,2.85714 0.56033,0.37355 0.86824,1.05502 1.42857,1.42857 0.88597,0.59064 2.10422,0.67565 2.85715,1.42857 0.75292,0.75293 0.5971,2.19197 1.42857,2.85715 3.57143,2.85714 5.35714,2.14285 8.57143,4.28571 0.56033,0.37355 0.82623,1.1274 1.42857,1.42857 0.42592,0.21296 0.95238,0 1.42857,0 0.47619,0 0.95238,0 1.42857,0 0.74703,0 5.33866,-0.18781 5.71429,0 0.60234,0.30117 0.95238,0.95238 1.42857,1.42857"
       id="path3165"
       inkscape:connector-curvature="0"
       transform="translate(0,952.36218)" />
    <path
       style="fill:none;stroke:#000000;stroke-width:1px;stroke-linecap:butt;stroke-linejoin:miter;stroke-opacity:1"
       d="m 550,38.571429 c -9.6303,-2.27468 -16.87876,-2.444171 -25.71429,2.857142 -0.57746,0.34648 -0.95238,0.952381 -1.42857,1.428572 -0.95238,0.952381 -1.90476,1.904762 -2.85714,2.857143 -0.47619,0.47619 -0.82623,1.127402 -1.42857,1.428571 -0.42592,0.212959 -1.09186,-0.336717 -1.42857,0 -0.2217,0.221696 0.18529,3.729824 0,4.285714 -1.64153,4.924591 -1.42857,1.058234 -1.42857,4.285715 0,1.276745 -0.22763,6.687609 0,7.142857 0.85714,1.714286 3.42857,2.571428 4.28571,4.285714 0.21296,0.425918 -0.33672,1.091854 0,1.428572 0.33672,0.336717 1.00265,-0.212959 1.42857,0 1.20468,0.602338 1.65247,2.254804 2.85714,2.857142 0.43477,0.217382 3.64235,0 4.28572,0 5.23809,0 10.47619,0 15.71428,0 3.33334,0 6.66667,0 10,0 0.64337,0 3.85096,0.217382 4.28572,0 C 559.17377,71.127402 559.39766,70.301169 560,70 c 0.42592,-0.212959 1.00265,0.212959 1.42857,0 5.94537,-2.972686 -1.52719,0.09862 1.42857,-2.857143 0.33672,-0.336717 1.09186,0.336718 1.42857,0 0.33672,-0.336717 -0.33671,-1.091854 0,-1.428571 0.33672,-0.336718 1.09186,0.336717 1.42858,0 0.67343,-0.673435 -0.67344,-2.183708 0,-2.857143 0.33671,-0.336718 1.09185,0.336717 1.42857,0 0.29205,-0.292052 -0.28321,-3.719298 0,-4.285714 0.30117,-0.602339 1.1274,-0.826233 1.42857,-1.428572 0.21738,-0.434763 0,-3.642346 0,-4.285714 0,-3.333334 0,-6.666667 0,-10 0,-0.476191 0,-0.952381 0,-1.428572 0,-0.47619 0.33672,-1.091854 0,-1.428571 -0.33672,-0.336718 -1.09186,0.336717 -1.42857,0 -0.33672,-0.336718 0.21296,-1.002654 0,-1.428571 -0.30117,-0.602339 -0.95238,-0.952381 -1.42857,-1.428572 -0.47619,-0.47619 -0.7897,-1.215612 -1.42858,-1.428571 -0.9035,-0.30117 -1.90476,0 -2.85714,0 -7.00556,0 -4.39323,-0.660527 -11.42857,2.857143 z"
       id="path3167"
       inkscape:connector-curvature="0"
       transform="translate(0,952.36218)" />
    <path
       style="fill:none;stroke:#000000;stroke-width:1px;stroke-linecap:butt;stroke-linejoin:miter;stroke-opacity:1"
       d="M 542.85714,55.714286 C 542.38095,53.809524 541.42857,51.963384 541.42857,50 c 0,-0.476191 0.95238,0 1.42857,0 0.47619,0 1.42857,-0.476191 1.42857,0 0,0.275659 -4.36465,-0.315762 -4.28571,0 0.5165,2.066004 4.62907,4.533003 2.85714,5.714286 -2.13368,1.422453 -4.94393,-1.537789 -7.14285,-2.857143 -0.40833,-0.244998 -0.44214,-1.605424 0,-1.428572 2.57805,1.03122 5.17947,6.249098 7.14285,4.285715 C 548.90815,49.663282 532.30976,50 538.57143,50 c 0.47619,0 0.95238,0 1.42857,0"
       id="path3169"
       inkscape:connector-curvature="0"
       transform="translate(0,952.36218)" />
    <path
       style="fill:none;stroke:#000000;stroke-width:1px;stroke-linecap:butt;stroke-linejoin:miter;stroke-opacity:1"
       d="m 610,57.142857 c 8.09524,0 16.19048,0 24.28571,0 2.09202,0 5.19426,0.324767 7.14286,0 1.93667,-0.322778 3.77064,-1.150907 5.71429,-1.428571 3.67439,-0.524914 7.80094,0.725525 11.42857,0 0.66036,-0.132072 0.76821,-1.2965 1.42857,-1.428572 14.93771,0 -0.5502,0.851836 8.57143,-1.428571 0.92394,-0.230986 1.91433,0.134687 2.85714,0 2.4037,-0.343386 4.78725,-0.83967 7.14286,-1.428572 1.46088,-0.365221 2.83781,-1.014883 4.28571,-1.428571 3.77568,-1.078766 7.59532,-2.005307 11.42857,-2.857143 2.37029,-0.52673 4.80818,-0.76152 7.14286,-1.428571 1.02383,-0.292522 1.86851,-1.033117 2.85714,-1.428572 1.39815,-0.559257 2.93885,-0.755136 4.28572,-1.428571 6.74598,-3.372991 -8.71945,0.75129 5.71428,-2.857143 1.34454,-0.336134 2.94118,0.336134 4.28572,0 1.033,-0.258251 1.82414,-1.170321 2.85714,-1.428571 2.17574,-0.543934 4.92915,0.368951 7.14286,0 18.55162,-4.637906 -4.58123,0.654461 10,-1.428572 4.46594,-0.637992 5.92954,-1.694153 10,-2.857143 1.88784,-0.539383 3.82644,-0.889188 5.71428,-1.428571 1.44791,-0.413688 2.82483,-1.06335 4.28572,-1.428572 0.46197,-0.115493 0.95238,0 1.42857,0 0.95238,-0.47619 1.84699,-1.091854 2.85714,-1.428571 2.14286,-0.714286 1.42857,1.428571 4.28572,0 0.42592,-0.212959 -0.42592,-1.215613 0,-1.428571 0.97183,-0.485918 8.48898,0.377754 10,0 1.033,-0.258251 1.84699,-1.091854 2.85714,-1.428572 0.45175,-0.150585 0.95238,0 1.42857,0 0.95238,0 1.91772,0.156571 2.85714,0 1.93667,-0.322778 3.78903,-1.04352 5.71429,-1.428571 0.93389,-0.186778 1.95364,0.301169 2.85714,0 1.01016,-0.336718 1.84699,-1.091854 2.85715,-1.428572 0.45175,-0.150584 0.96659,0.115493 1.42857,0 1.46088,-0.365221 2.82483,-1.06335 4.28571,-1.428571 0.92395,-0.230986 1.95364,0.301169 2.85714,0 1.01016,-0.336718 1.847,-1.091854 2.85715,-1.428572 0.93237,-0.310791 6.86341,0 8.57143,0 0.47619,0 1.00265,0.212959 1.42857,0 0.60234,-0.301169 0.82623,-1.127402 1.42857,-1.428571 0.42592,-0.212959 0.95238,0 1.42857,0 1.42857,0 2.88489,0.280166 4.28571,0 1.04412,-0.208823 1.847,-1.091854 2.85715,-1.428571 0.90351,-0.30117 1.90476,0 2.85714,0 1.42857,0 2.85714,0 4.28571,0 4.76191,0 9.52381,0 14.28572,0 4.7619,0 9.52381,0 14.28571,0 1.21199,0 7.62362,-0.236952 8.57143,0 1.033,0.25825 1.84699,1.091853 2.85714,1.428571 0.45176,0.150585 0.96163,-0.09339 1.42858,0 1.92525,0.385051 3.78903,1.04352 5.71428,1.428571 0.46695,0.09339 0.95238,0 1.42857,0 2.85715,0.476191 5.76136,0.726054 8.57143,1.428572 1.033,0.25825 1.84699,1.091854 2.85714,1.428571 1.35527,0.451754 2.88489,-0.280166 4.28572,0 1.4766,0.295321 2.80911,1.133251 4.28571,1.428572 0.93389,0.186777 1.95364,-0.30117 2.85715,0 0.63887,0.212959 0.78969,1.215612 1.42857,1.428571 0.90351,0.301169 1.95363,-0.301169 2.85714,0 0.63888,0.212959 0.7897,1.215613 1.42857,1.428572 0.90351,0.301169 1.9332,-0.230987 2.85714,0 1.03301,0.25825 1.82415,1.17032 2.85715,1.428571 0.92394,0.230986 2.00531,-0.425918 2.85714,0 1.20468,0.602339 1.70221,2.164184 2.85714,2.857143 12.06725,7.240346 -1.57017,-2.056641 7.14286,1.428571 1.59413,0.637652 2.75005,2.089309 4.28571,2.857143 12.91792,6.458956 2.7621,1.650826 10,2.857143 1.93667,0.322778 3.82645,0.889188 5.71429,1.428571 0.12825,0.03664 8.539,2.852511 8.57143,2.857143 1.88562,0.269374 3.83544,-0.313141 5.71428,0 1.05031,0.175051 1.83332,1.13605 2.85715,1.428572 3.03232,2.888723 7.95736,0.734328 11.42857,1.428571 1.04412,0.208823 1.80684,1.25352 2.85714,1.428572 1.87885,0.31314 3.82867,-0.269374 5.71429,0 1.49071,0.212958 2.795,1.215612 4.28571,1.428571 4.48607,0.640867 9.83963,-0.741009 14.28573,0 1.0503,0.175051 1.8068,1.25352 2.8571,1.428571 1.8789,0.313141 3.8096,0 5.7143,0 0.9524,0 1.9233,-0.186777 2.8572,0 1.4766,0.295321 2.8091,1.133251 4.2857,1.428572 0.9339,0.186777 1.9047,0 2.8571,0 2.381,0 4.7619,0 7.1429,0 5.2381,0 10.4762,0 15.7143,0"
       id="path3171"
       inkscape:connector-curvature="0"
       transform="translate(0,952.36218)" />
    <path
       style="fill:none;stroke:#000000;stroke-width:1px;stroke-linecap:butt;stroke-linejoin:miter;stroke-opacity:1"
       d="m 798.57143,28.571429 c 0.47619,1.904761 3.33333,5.238095 1.42857,5.714285 -1.90476,0.476191 -3.18467,-6.592337 -1.42857,-5.714285 2.4835,1.241752 2.67182,4.883409 4.28571,7.142857 3.36458,4.710411 1.84654,1.384904 5.71429,4.285714 1.99026,1.492699 3.91199,3.911996 5.71428,5.714286 0.4762,0.47619 0.82624,1.127402 1.42858,1.428571 0.42591,0.212959 1.09185,-0.336717 1.42857,0 0.33672,0.336718 -0.33672,1.091854 0,1.428572 0.75292,0.752923 2.10422,0.675648 2.85714,1.428571 0.33672,0.336717 -0.33672,1.091854 0,1.428571 0.33672,0.336718 1.09185,-0.336717 1.42857,0 0.33672,0.336718 -0.21296,1.002654 0,1.428572 0.30117,0.602338 1.1274,0.826233 1.42857,1.428571 0.42592,0.851836 -0.67343,2.183708 0,2.857143 0.33672,0.336718 1.09186,-0.336717 1.42857,0 0.33672,0.336718 -0.33671,1.091854 0,1.428572 0.33672,0.336717 1.09186,-0.336718 1.42858,0 0.75292,0.752923 1.09185,1.84699 1.42857,2.857142 0.15058,0.451754 -0.33672,1.091854 0,1.428572 0.33672,0.336717 1.21561,-0.425918 1.42857,0 0.42592,0.851835 -0.42592,2.005307 0,2.857143 0.21296,0.425917 1.09185,0.336717 1.42857,0 0.33672,-0.336718 0,-0.952381 0,-1.428572 0,-1.428571 0,-2.857143 0,-4.285714 0,-1.428571 -0.45175,-2.930452 0,-4.285714 0.21296,-0.638877 1.1274,-0.826233 1.42857,-1.428572 0.42592,-0.851835 -0.42592,-2.005307 0,-2.857143 0.81887,-1.637739 2.98073,-1.987154 4.28572,-2.857142 1.98107,-1.320715 3.69524,-3.023813 5.71428,-4.285715 1.80589,-1.128679 3.78071,-1.964721 5.71429,-2.857143 4.25827,-1.965354 8.52797,-3.910465 12.85714,-5.714285 1.39001,-0.579172 2.85714,-0.952381 4.28571,-1.428572 1.42858,-0.952381 2.75005,-2.089309 4.28572,-2.857143 1.34687,-0.673435 2.93884,-0.755136 4.28571,-1.428571 0.60234,-0.301169 0.82624,-1.127402 1.42857,-1.428571 0.85184,-0.425918 2.00531,0.425917 2.85715,0 0.60234,-0.30117 0.82623,-1.127403 1.42857,-1.428572 0.85183,-0.425918 2.18371,0.673435 2.85714,0 0.33672,-0.336717 0,-0.952381 0,-1.428571 0,-0.476191 0,-0.952381 0,-1.428572"
       id="path3173"
       inkscape:connector-curvature="0"
       transform="translate(0,952.36218)" />
    <path
       style="fill:none;stroke:#000000;stroke-width:1px;stroke-linecap:butt;stroke-linejoin:miter;stroke-opacity:1"
       d="m 634.28571,58.571429 c 4.73798,-4.737975 -0.67343,1.34687 1.42858,-2.857143 2.97268,-5.945372 -0.0986,1.527193 2.85714,-1.428572 0.33672,-0.336717 -0.15059,-0.976817 0,-1.428571 C 638.90815,51.84699 639.40936,50.885962 640,50 c 0.37355,-0.560332 0.95238,-0.952381 1.42857,-1.428571 0,-0.476191 -0.21296,-1.002654 0,-1.428572 0.30117,-0.602338 1.1274,-0.826233 1.42857,-1.428571 0.21296,-0.425918 -0.15058,-0.976818 0,-1.428572 1.64153,-4.924591 1.42857,-1.058234 1.42857,-4.285714 0,-0.476191 -0.39621,-1.164429 0,-1.428571 1.25294,-0.835294 3.22092,-0.363778 4.28572,-1.428572 0.67343,-0.673435 -0.30117,-1.953635 0,-2.857143 0.21296,-0.638876 1.05502,-0.868239 1.42857,-1.428571 0.59064,-0.885963 0.7897,-2.005308 1.42857,-2.857143 0.80812,-1.077496 2.11004,-1.736479 2.85714,-2.857143 0.26415,-0.396214 -0.15058,-0.976817 0,-1.428571 0.33672,-1.010153 0.95239,-1.904762 1.42858,-2.857143 0.47619,-0.952381 0.95238,-1.904762 1.42857,-2.857143 0.47619,-0.952381 0.78969,-2.005307 1.42857,-2.857143 0.80812,-1.077496 2.04902,-1.779647 2.85714,-2.857143 2.3035,-3.071336 1.8373,-7.8617314 5.71429,-9.9999998 0.47619,2.3809524 0.95238,4.7619048 1.42857,7.1428568 0.47619,0.476191 1.1274,0.826233 1.42857,1.428572 0,3.809524 -0.47619,-0.476191 1.42857,1.428571 0.67344,0.673435 -0.67343,2.183708 0,2.857143 0.33672,0.336718 1.09186,-0.336717 1.42857,0 0.33672,0.336718 -0.33671,1.091854 0,1.428572 0.33672,0.336717 1.09186,-0.336718 1.42857,0 0.33672,0.336717 -0.33671,1.091853 0,1.428571 0.33672,0.336717 1.00266,-0.212959 1.42858,0 0.60233,0.301169 0.82623,1.127402 1.42857,1.428571 0.85183,0.425918 2.18371,-0.673435 2.85714,0 0.33672,0.336718 -0.33672,1.091854 0,1.428572 0.33672,0.336717 1.00265,-0.212959 1.42857,0 1.71429,0.857143 2.57143,3.428571 4.28572,4.285714 0.42591,0.212959 1.00265,-0.212959 1.42857,0 0.47619,0.476191 0.95238,0.952381 1.42857,1.428572 0.47619,0.47619 0.82623,1.127402 1.42857,1.428571 0.42592,0.212959 1.03236,-0.264143 1.42857,0 1.12067,0.747109 1.90476,1.904762 2.85714,2.857143 0.4762,0.47619 1.12741,0.826233 1.42858,1.428571 0.21295,0.425918 -0.21296,1.002654 0,1.428572 0.30117,0.602338 0.82623,1.127402 1.42857,1.428571 0.42592,0.212959 1.42857,-0.47619 1.42857,0 0,0.476191 -0.95238,0 -1.42857,0"
       id="path3175"
       inkscape:connector-curvature="0"
       transform="translate(0,952.36218)" />
  </g>
</svg>
