<?xml version="1.0" encoding="UTF-8" standalone="no"?>
<!-- Created with Inkscape (http://www.inkscape.org/) -->

<svg
   xmlns:dc="http://purl.org/dc/elements/1.1/"
   xmlns:cc="http://creativecommons.org/ns#"
   xmlns:rdf="http://www.w3.org/1999/02/22-rdf-syntax-ns#"
   xmlns:svg="http://www.w3.org/2000/svg"
   xmlns="http://www.w3.org/2000/svg"
   xmlns:sodipodi="http://sodipodi.sourceforge.net/DTD/sodipodi-0.dtd"
   xmlns:inkscape="http://www.inkscape.org/namespaces/inkscape"
   width="3000"
   height="200"
   id="svg2"
   version="1.1"
   inkscape:version="0.48.2 r9819"
   sodipodi:docname="helloheader.svg"
   inkscape:export-filename="/Users/ocoutts/workspace/drawnpersona/helloheader.png"
   inkscape:export-xdpi="90"
   inkscape:export-ydpi="90">
  <defs
     id="defs4" />
  <sodipodi:namedview
     id="base"
     pagecolor="#ffffff"
     bordercolor="#666666"
     borderopacity="1.0"
     inkscape:pageopacity="0.0"
     inkscape:pageshadow="2"
     inkscape:zoom="0.98994949"
     inkscape:cx="2472.0563"
     inkscape:cy="62.857143"
     inkscape:document-units="px"
     inkscape:current-layer="layer1"
     showgrid="false"
     width="3000px"
     inkscape:window-width="1630"
     inkscape:window-height="1006"
     inkscape:window-x="50"
     inkscape:window-y="0"
     inkscape:window-maximized="0" />
  <metadata
     id="metadata7">
    <rdf:RDF>
      <cc:Work
         rdf:about="">
        <dc:format>image/svg+xml</dc:format>
        <dc:type
           rdf:resource="http://purl.org/dc/dcmitype/StillImage" />
        <dc:title></dc:title>
      </cc:Work>
    </rdf:RDF>
  </metadata>
  <g
     inkscape:label="Layer 1"
     inkscape:groupmode="layer"
     id="layer1"
     transform="translate(0,-852.36218)">
    <path
       style="fill:none;stroke:#000000;stroke-width:1px;stroke-linecap:butt;stroke-linejoin:miter;stroke-opacity:1"
       d="m 71.720831,78.781695 c 0,5.724197 0,11.448395 0,17.172593 0,1.010152 0,2.020305 0,3.030457 0,0.336718 0,1.346875 0,1.010153 0,-1.010153 0,-4.04061 0,-3.030458 0,1.683588 0,3.36718 0,5.05076 0,0.67344 0,2.69374 0,2.02031 0,-0.67344 0,-2.69374 0,-2.02031 0,2.35703 0,4.71405 0,7.07107 0,1.01015 0,2.02031 0,3.03046 0,0.33672 0.336717,1.01015 0,1.01015 -0.336718,0 0,-0.67343 0,-1.01015 5.345747,-1.29864 10.735244,-1.01015 16.16244,-1.01015 0.399327,0 4.619344,-0.21571 5.050763,0 0.425918,0.21295 0.558399,0.85956 1.010153,1.01015 1.277753,0.42592 2.733954,-0.32667 4.04061,0 0.730443,0.18261 1.306019,0.77206 2.020303,1.01015 0.56993,0.18998 2.36668,0 3.03046,0 11.30637,1.96915 -0.67344,-5.38748 1.01015,-7.07107 0.2381,-0.23809 0.77206,0.2381 1.01015,0 0.4762,-0.47619 -0.47619,-1.54411 0,-2.0203 0.2381,-0.2381 0.77206,0.23809 1.01016,0 0.47619,-0.47619 -0.30117,-1.41797 0,-2.02031 0.21296,-0.42591 0.79719,-0.58423 1.01015,-1.01015 0.15058,-0.30117 0,-0.67343 0,-1.010152 0,-0.336718 0,-0.673435 0,-1.010153 0,-1.683587 0,-3.367175 0,-5.050762 0,-0.336718 0,-0.673435 0,-1.010153 0,-0.336717 -0.2381,-0.772057 0,-1.010152 0.2381,-0.238096 0.77206,0.238095 1.01015,0 0.14855,-0.148552 -0.11884,-3.030458 0,-3.030458 0.33672,0 0,1.34687 0,1.010153 0,-1.010153 0,-2.020306 0,-3.030458 0,-0.336718 0,-1.34687 0,-1.010153 0,0.673435 0,2.69374 0,2.020305 0,-1.34687 0,-2.69374 0,-4.04061 0,-0.336717 0,-1.34687 0,-1.010152 0,0.673435 0,2.69374 0,2.020305 0,-3.367175 1.01015,-3.030458 -1.01015,-3.030458 -4.04061,0 -8.08122,0 -12.121831,0 -0.336717,0 -0.673435,0 -1.010152,0 -0.336718,0 -0.708984,0.150585 -1.010153,0 -0.425918,-0.212959 -0.584235,-0.797193 -1.010152,-1.010152 -0.30117,-0.150585 -0.673435,0 -1.010153,0 -0.978704,0 -5.45859,0.200775 -6.060915,0 -0.714286,-0.238096 -1.30602,-0.772058 -2.020305,-1.010153 -0.63579,-0.21193 -4.140247,0 -5.050763,0 -0.336718,0 -0.772057,0.238095 -1.010153,0 -0.238095,-0.238095 0,-0.673435 0,-1.010152 -1.683587,0 -3.367175,0 -5.050762,0 z"
       id="path2985"
       inkscape:connector-curvature="0"
       transform="translate(0,852.36218)" />
    <path
       style="fill:none;stroke:#000000;stroke-width:1px;stroke-linecap:butt;stroke-linejoin:miter;stroke-opacity:1"
       d="m 107.07617,78.781695 c 0.33672,-1.346871 0.78191,-2.671178 1.01015,-4.040611 0.16607,-0.996408 0,-2.020305 0,-3.030457 0,-2.357023 0,-4.714045 0,-7.071068 0,-7.071068 0,-14.142136 0,-21.213204 5.7931,10e-7 3.31245,0 7.07107,0 0.67344,0 1.34687,0 2.02031,0 0.33671,0 0.70898,-0.150584 1.01015,0 0.42592,0.212959 0.58423,0.797194 1.01015,1.010153 0.30117,0.150585 0.67344,0 1.01015,0 0.33672,0 0.67344,0 1.01016,0 1.68358,0 3.36717,0 5.05076,0 2.0203,0 4.04061,0 6.06091,0 0.33672,0 1.01016,-0.336717 1.01016,0 0,0.336718 -1.34687,0 -1.01016,0 2.02031,0 4.04061,0 6.06092,0 0.33672,0 1.01015,-0.336717 1.01015,0 0,0.336718 -0.67343,0 -1.01015,0 0.33672,1.34687 0.83795,2.663009 1.01015,4.04061 1.03439,8.275124 0.0241,0.889665 -1.01015,6.060915 -0.19811,0.990537 0,2.020306 0,3.030458 0,2.020305 0,4.04061 0,6.060915 0,0.244989 0.0325,2.997972 0,3.030458 -0.2381,0.238095 -0.77206,-0.238095 -1.01015,0 -0.0325,0.03249 0,2.785469 0,3.030458 0,1.683587 0,3.367175 0,5.050762 0,0.995722 0,3.016027 0,2.020305 0,-0.673435 0,-2.69374 0,-2.020305 0,1.34687 0,2.69374 0,4.040611 -10.10153,-10e-7 -20.20305,-10e-7 -30.30458,0 z"
       id="path2987"
       inkscape:connector-curvature="0"
       transform="translate(0,852.36218)" />
    <path
       style="fill:none;stroke:#000000;stroke-width:1px;stroke-linecap:butt;stroke-linejoin:miter;stroke-opacity:1"
       d="m 135.36044,76.761389 c -7.5424,0.743767 0.0546,4.94148 -1.01015,7.071068 -2.31154,4.623072 0.41868,-4.286498 -2.02031,3.030458 -0.21296,0.638876 0.30117,1.417966 0,2.020305 -0.21296,0.425918 -0.79719,0.584235 -1.01015,1.010153 -0.40406,0.808122 0.40406,2.222335 0,3.030457 -0.21296,0.425918 -0.67343,0.673435 -1.01015,1.010153 0,0.673435 0.21296,1.381428 0,2.020305 -0.15059,0.451754 -0.7972,0.584235 -1.01015,1.010152 -0.274,0.547996 0.2764,3.76421 0,4.04061 -0.2381,0.2381 -0.77206,-0.23809 -1.01016,0 -0.33298,0.33299 0.24367,3.30962 0,4.04061 -0.15058,0.45175 -0.79719,0.58424 -1.01015,1.01015 -0.15371,0.30743 0,2.57553 0,3.03046 2.35702,0 4.71405,0 7.07107,0 7.07107,0 14.14213,0 21.2132,0 2.02031,0 4.04061,0 6.06092,0 0.45493,0 2.72303,-0.15371 3.03045,0 0.42592,0.21296 0.53397,1.01015 1.01016,1.01015 0.33671,0 0,-0.67343 0,-1.01015 0,-0.67343 0,-1.34687 0,-2.0203 4.25918,-2.67601 -1.0648,-6.90715 0,-10.10153 0.15058,-0.451754 0.79719,-0.584234 1.01015,-1.010152 0.20026,-0.400517 -0.20651,-2.823946 0,-3.030458 0.2381,-0.238095 0.77206,0.238095 1.01015,0 0.47619,-0.47619 -0.47619,-1.544114 0,-2.020305 0.2381,-0.238095 0.77206,0.238095 1.01016,0 0.23809,-0.238095 -0.2381,-0.772057 0,-1.010152 0.23809,-0.238096 0.77205,0.238095 1.01015,0 2.09004,-2.090042 -3.19386,0.0817 1.01015,-2.020306 0.30117,-0.150584 0.70898,0.150585 1.01015,0 0.42592,-0.212958 0.67344,-0.673435 1.01016,-1.010152 0.33671,-0.336718 0.67343,-0.673435 1.01015,-1.010153 0.33672,-0.336717 0.67343,-0.673435 1.01015,-1.010152 0.33672,-0.336718 0.58424,-0.797194 1.01015,-1.010153 0.30117,-0.150584 1.01016,0.336718 1.01016,0 0,-0.47619 -0.67344,-0.673435 -1.01016,-1.010152 -2.35702,-0.336718 -4.74681,-0.493652 -7.07106,-1.010153 -0.735,-0.163332 -1.28987,-0.827542 -2.02031,-1.010152 -0.65333,-0.163332 -1.38143,0.212959 -2.02031,0 -0.45175,-0.150585 -0.55839,-0.859568 -1.01015,-1.010153 -0.63887,-0.212959 -1.34687,0 -2.0203,0 -0.33672,0 -0.70899,0.150585 -1.01016,0 -0.42591,-0.212959 -0.58423,-0.797194 -1.01015,-1.010152 -0.30117,-0.150585 -0.67343,0 -1.01015,0 -0.33672,0 -0.67344,0 -1.01015,0 -1.68359,0 -3.36718,0 -5.05077,0 -0.33671,0 -0.67343,0 -1.01015,0 -0.33672,0 -0.70898,0.150584 -1.01015,0 -0.42592,-0.212959 -0.58424,-0.797194 -1.01015,-1.010153 -0.60234,-0.301169 -1.54412,0.47619 -2.02031,0 -0.23809,-0.238095 0.2381,-0.772057 0,-1.010153 -0.24307,-0.243074 -3.79753,0.243074 -4.04061,0 -0.23809,-0.238095 0.2381,-0.772057 0,-1.010152 -0.47619,-0.476191 -1.41797,0.301169 -2.0203,0 -0.42592,-0.212959 -0.58424,-0.797194 -1.01016,-1.010153 -1.14683,-0.573415 -5.02834,2.009097 -5.05076,2.020305 z"
       id="path2989"
       inkscape:connector-curvature="0"
       transform="translate(0,852.36218)" />
    <path
       style="fill:none;stroke:#000000;stroke-width:1px;stroke-linecap:butt;stroke-linejoin:miter;stroke-opacity:1"
       d="m 571.74634,71.710627 c -1.34687,0 -2.69374,0 -4.04061,0 -0.67343,0.336717 -1.27495,0.903673 -2.0203,1.010152 -1.66667,0.238096 -3.37748,-0.185921 -5.05077,0 -1.37983,0.153315 -2.67118,0.781914 -4.04061,1.010153 -0.66427,0.110712 -1.35995,-0.132072 -2.0203,0 -1.04412,0.208823 -1.98634,0.801329 -3.03046,1.010152 -3.12398,0.624797 -1.02581,-0.999713 -4.04061,1.010153 -0.33672,0.336717 -0.67344,0.673435 -1.01015,1.010152 0,0.336718 0.23809,0.772058 0,1.010153 -0.2381,0.238095 -0.77206,-0.238095 -1.01016,0 -0.47619,0.47619 0.30117,1.417967 0,2.020305 -0.21295,0.425918 -0.79719,0.584235 -1.01015,1.010153 -0.1328,0.265611 0,3.51238 0,4.04061 0,2.69374 0,5.38748 0,8.08122 0,3.030458 0,6.060915 0,9.09137 0,0.67344 -0.13207,1.35995 0,2.02031 0.20883,1.04411 0.67344,2.0203 1.01015,3.03046 0.33672,1.01015 0.53397,2.07807 1.01016,3.03045 0.21296,0.42592 0.79719,0.58424 1.01015,1.01016 1.74332,3.48664 -0.0328,4.00786 3.03046,7.07106 0.53239,0.5324 1.41796,0.5584 2.0203,1.01016 7.26601,5.4495 -2.1318,-1.12166 3.03046,4.04061 0.5324,0.53239 1.34687,0.67343 2.02031,1.01015 2.0203,1.01015 4.04061,2.0203 6.06091,3.03046 1.34687,0.67343 2.73317,1.27319 4.04061,2.0203 1.05409,0.60234 1.91457,1.54207 3.03046,2.02031 4.91924,2.10824 2.72604,0.38943 7.07107,1.01015 1.37436,0.19634 2.66301,0.83795 4.04061,1.01015 1.33647,0.16706 2.69374,0 4.04061,0 1.68358,0 3.36717,0 5.05076,0 1.68359,0 3.36717,0 5.05076,0 2.35702,0 4.74612,0.38749 7.07107,0 1.78861,-0.2981 3.40001,-1.26996 5.05076,-2.0203 4.26619,-1.93918 6.71401,-3.04979 10.10153,-6.06092 1.77954,-1.58182 3.68537,-3.10021 5.05076,-5.05076 2.32274,-3.31819 2.02031,-5.60358 2.02031,-9.09137 0,-1.34687 0.32666,-2.73396 0,-4.04061 -0.36523,-1.46089 -1.34687,-2.69374 -2.02031,-4.04061 -0.67343,-1.34687 -1.34687,-2.69374 -2.0203,-4.040615 -1.50209,-3.004161 -4.17778,-9.125663 -8.08122,-10.101525 -0.65333,-0.163332 -1.34688,0 -2.02031,0 -0.67344,0 -1.34687,0 -2.02031,0 -4.37732,0 -8.75465,0 -13.13198,0 -0.7026,0 -4.68546,0.182653 -5.05076,0 -0.42592,-0.212959 -0.58424,-0.797194 -1.01015,-1.010153 -0.60234,-0.301169 -1.38143,0.212959 -2.02031,0 -0.71428,-0.238095 -1.30602,-0.772057 -2.0203,-1.010152 -0.31944,-0.10648 -0.70899,0.150585 -1.01016,0 -0.42591,-0.212959 -0.58423,-0.797194 -1.01015,-1.010153 -0.59601,-0.298005 -2.33564,0.231606 -3.03046,0 -0.81514,-0.271715 -5.40489,-2.538444 -6.06091,-3.030457 -0.76191,-0.571429 -1.44888,-1.258401 -2.02031,-2.020305 -0.45175,-0.602339 -0.40781,-1.568551 -1.01015,-2.020305 -0.85183,-0.638877 -2.14449,-0.419511 -3.03046,-1.010153 -0.28016,-0.186777 -0.15058,-0.708983 0,-1.010153 0.87805,-1.756103 2.02031,-3.367175 3.03046,-5.050762 z"
       id="path2991"
       inkscape:connector-curvature="0"
       transform="translate(0,852.36218)" />
    <path
       style="fill:none;stroke:#000000;stroke-width:1px;stroke-linecap:butt;stroke-linejoin:miter;stroke-opacity:1"
       d="m 645.48748,88.88322 c 0,6.397633 0,12.79527 0,19.1929 0,1.16928 -0.22547,4.14891 0,5.05076 0.18261,0.73044 0.67343,1.34687 1.01015,2.02031 0.33672,0.67343 0.67343,1.34687 1.01015,2.0203 0.67344,1.01015 1.47737,1.94458 2.02031,3.03046 0.15058,0.30117 -0.2381,0.77206 0,1.01015 1.23035,1.23035 2.25689,0.47318 3.03045,2.02031 0.15059,0.30117 -0.23809,0.77205 0,1.01015 0.2381,0.23809 0.67344,0 1.01016,0 2.69374,0 5.38748,0 8.08122,0 1.68358,0 3.36717,0 5.05076,0 0.67343,0 1.38143,0.21296 2.02031,0 0.45175,-0.15059 0.61393,-0.74601 1.01015,-1.01015 1.63363,-1.08909 3.54245,-1.77353 5.05076,-3.03046 0.57841,-0.48201 0.67344,-1.34687 1.01015,-2.02031 0.33672,-0.67343 0.67344,-1.34687 1.01016,-2.0203 0.33671,-0.67344 0.67343,-1.34687 1.01015,-2.02031 0.33672,-0.67343 0.82754,-1.28986 1.01015,-2.0203 0.16333,-0.65333 -0.0835,-1.35207 0,-2.02031 0.25405,-2.03235 0.75611,-4.02856 1.01015,-6.06091 0.36846,-2.94769 -0.5089,-4.03295 1.01016,-7.07107 0.15058,-0.301169 -0.10648,0.690715 0,1.010153 0.23809,0.714286 0.55839,1.417966 1.01015,2.020305 0.57143,0.761902 1.49202,1.227872 2.0203,2.020302 1.3629,2.04434 -3.34869,0.23064 2.02031,2.02031 0.89644,0.29881 4.3893,-0.33073 5.05076,0 0.42592,0.21296 0.5584,0.85957 1.01015,1.01015 0.46203,0.15401 3.59112,-0.22475 4.04061,0 0.42592,0.21296 0.58424,0.79719 1.01016,1.01015 0.30117,0.15059 0.77205,-0.23809 1.01015,0 0.23809,0.2381 -0.2381,0.77206 0,1.01016 9.6e-4,9.6e-4 3.02588,-0.002 3.03046,0 0.45175,0.15058 0.5584,0.85956 1.01015,1.01015 0.95831,0.31944 2.0203,0 3.03046,0 1.01015,0 2.0203,0 3.03045,0 0.67344,0 1.36698,0.16333 2.02031,0 0.73044,-0.18261 1.30602,-0.77206 2.0203,-1.01015 0.31944,-0.10648 0.70899,0.15058 1.01016,0 0.42591,-0.21296 0.67343,-0.67344 1.01015,-1.01016 0.33672,-0.33671 0.67343,-0.67343 1.01015,-1.01015 0.33672,-0.33672 0.85957,-0.5584 1.01015,-1.01015 0.30305,-0.90914 -0.30304,-2.12132 0,-3.03046 0.2381,-0.71429 0.82755,-1.289862 1.01016,-2.020305 0.16333,-0.653327 -0.11071,-1.356032 0,-2.020305 0.22824,-1.369432 0.83795,-2.663009 1.01015,-4.04061 0.16706,-1.336469 0,-2.69374 0,-4.04061 0,-2.020305 0,-4.04061 0,-6.060915 0,-0.539637 0.14455,-4.761655 0,-5.050763 -0.21296,-0.425918 -0.85957,-0.558399 -1.01015,-1.010153 -0.21296,-0.638876 0,-1.34687 0,-2.020305 0,-0.336717 0.15058,-0.708983 0,-1.010152 -1.24825,-2.496496 -1.01016,0.348682 -1.01016,-2.020305"
       id="path2993"
       inkscape:connector-curvature="0"
       transform="translate(0,852.36218)" />
    <path
       style="fill:none;stroke:#000000;stroke-width:1px;stroke-linecap:butt;stroke-linejoin:miter;stroke-opacity:1"
       d="m 753.5738,83.832457 c 17.50931,0 35.01862,0 52.52793,0 4.29404,0 8.93905,0.387492 13.13198,-1.010152 1.15176,-0.383917 2.08245,-1.261893 3.03046,-2.020305 0.74369,-0.594948 1.49202,-1.227877 2.02031,-2.020305 0.18677,-0.280166 0,-0.673435 0,-1.010153 0,-0.673435 0,-1.34687 0,-2.020305 0,-0.336718 0.18677,-0.729987 0,-1.010153 -1.80136,-2.702035 -3.99411,-2.809826 -7.07107,-4.04061 -8.23902,-3.295608 -3.2727,-1.664692 -15.15229,-4.04061 -5.24546,-1.049091 -11.68809,-2.531866 -17.17259,-3.030458 -1.34134,-0.12194 -2.69374,0 -4.04061,0 -2.02031,0 -4.04061,0 -6.06092,0 -1.01015,0 -2.12695,-0.451754 -3.03046,0 -0.30116,0.150585 0.18678,0.729987 0,1.010153 -0.52828,0.792429 -1.34687,1.34687 -2.0203,2.020305 -5.44681,5.446809 1.4062,-1.406198 -4.04061,4.04061 -0.67344,0.673435 -1.49202,1.227876 -2.02031,2.020305 -0.18677,0.280166 0,0.673435 0,1.010153 0,1.683587 0,3.367175 0,5.050763 0,0.673435 0,1.34687 0,2.020305 0,0.336717 -0.15058,0.708983 0,1.010152 0.21296,0.425918 0.7972,0.584235 1.01016,1.010153 0.15058,0.301169 -0.15059,0.708983 0,1.010152 0.21296,0.425918 0.74601,0.613938 1.01015,1.010153 2.01558,3.023368 -0.21772,2.009095 4.04061,5.050763 1.22536,0.875255 2.81525,1.145049 4.04061,2.020305 1.16248,0.83034 1.933,2.115908 3.03046,3.030457 0.93266,0.777218 2.00621,1.36851 3.03046,2.020305 2.67996,1.705432 5.43814,3.28871 8.08122,5.05076 5.13157,3.42105 2.55344,2.34019 7.07106,5.05077 1.46409,0.87845 4.4808,2.3984 6.06092,3.03045 0.98864,0.39546 2.04182,0.6147 3.03046,1.01016 0.69907,0.27962 1.28986,0.82754 2.0203,1.01015 0.65333,0.16333 1.38143,-0.21296 2.02031,0 0.45175,0.15058 0.55839,0.85957 1.01015,1.01015 0.95831,0.31944 2.0203,0 3.03046,0 3.56631,0 5.38882,0.22403 9.09137,-1.01015 0.71429,-0.2381 1.30602,-0.77206 2.0203,-1.01015 1.31708,-0.43903 2.75159,-0.49455 4.04061,-1.01016 0.44214,-0.17685 0.58424,-0.79719 1.01016,-1.01015 0.30117,-0.15058 0.72998,0.18678 1.01015,0 0.79243,-0.52828 1.34687,-1.34687 2.0203,-2.0203 0.33672,-0.33672 0.58424,-0.7972 1.01016,-1.01016 0.30117,-0.15058 0.77205,0.2381 1.01015,0 0.2381,-0.23809 -0.2381,-0.77205 0,-1.01015 0.2381,-0.23809 0.77206,0.2381 1.01015,0 0.2381,-0.23809 -0.15058,-0.70898 0,-1.01015 0.21296,-0.42592 0.7972,-0.58424 1.01016,-1.01015 0.15058,-0.30117 -0.2381,-0.77206 0,-1.01016 0.23809,-0.23809 0.77205,0.2381 1.01015,0 0.99649,-0.99649 -2.06988,-2.020302 1.01015,-2.020302"
       id="path2995"
       inkscape:connector-curvature="0"
       transform="translate(0,852.36218)" />
    <path
       style="fill:none;stroke:#000000;stroke-width:1px;stroke-linecap:butt;stroke-linejoin:miter;stroke-opacity:1"
       d="m 864.69058,73.730932 c 0.71119,0.290897 -0.39551,5.884533 0,7.071068 0.15058,0.451754 0.91676,0.543209 1.01015,1.010152 0.27244,1.362216 0,5.224766 0,7.071068 0,4.714045 0,9.42809 0,14.14214 0,2.0203 0,4.04061 0,6.06091 0,0.33672 0.33672,1.01015 0,1.01015 -0.33672,0 0,-1.34687 0,-1.01015 0,1.34687 0,2.69374 0,4.04061 0,0.33672 0.33672,1.01015 0,1.01015 -0.33672,0 0,-0.67343 0,-1.01015 0,-0.67343 0,-1.34687 0,-2.0203 0,-3.36718 0,-6.73435 0,-10.10153 0,-1.710948 -0.34842,-4.841441 0,-6.060915 0.33353,-1.16734 1.54207,-1.914567 2.02031,-3.030457 2.50873,-1.67261 0.36246,-4.117848 1.01015,-6.060916 0.15058,-0.451754 0.85957,-0.558398 1.01015,-1.010152 0.21296,-0.638877 -0.21296,-1.381429 0,-2.020305 0.15059,-0.451754 0.74601,-0.613938 1.01015,-1.010153 0.41765,-0.62647 0.53981,-1.432371 1.01016,-2.020305 1.48737,-1.859211 3.36717,-3.367175 5.05076,-5.050763 0.33672,-0.336717 0.72444,-0.6292 1.01015,-1.010152 0.72843,-0.971242 1.39568,-1.989417 2.02031,-3.030458 0.38737,-0.645626 0.47775,-1.487908 1.01015,-2.020305 0.23809,-0.238095 0.67343,0 1.01015,0 0.33672,0 0.67344,0 1.01015,0 1.82561,0 5.48374,-0.226761 7.07107,0 1.37437,0.196338 2.67118,0.781914 4.04061,1.010153 6.70051,0 -1.42857,-0.476191 3.03046,1.010152 0.63888,0.212959 1.38143,-0.212959 2.02031,0 0.45175,0.150585 0.58423,0.797194 1.01015,1.010153 1.78819,0.894096 0.34518,-1.502538 2.0203,1.010152 2.22553,0.508706 0.53397,2.078077 1.01016,3.030458 0.21295,0.425918 0.74601,0.613938 1.01015,1.010152 0.41764,0.62647 0.5925,1.393836 1.01015,2.020306 0.52829,0.792428 1.59439,1.168469 2.02031,2.020305 0.15058,0.301169 0,0.673435 0,1.010152 0,0.673435 0,1.34687 0,2.020305 0,2.020305 0,4.04061 0,6.060916 0,1.010152 -0.31944,2.072142 0,3.030457 0.15058,0.451754 0.79719,0.584235 1.01015,1.010153 0.15058,0.301169 -0.15059,0.708983 0,1.010152 0.21296,0.425918 0.85957,0.558399 1.01015,1.010153 0.30305,0.909137 -0.30304,2.12132 0,3.030457 0.2381,0.714286 0.82754,1.289865 1.01015,2.020305 0.19703,0.78809 0,4.88189 0,6.06092 0,0.33671 -0.23809,0.77205 0,1.01015 0.2381,0.23809 0.77206,-0.2381 1.01016,0 0.21597,0.21597 -0.18565,3.48368 0,4.04061 1.16073,3.48221 1.01015,0.74828 1.01015,3.03046"
       id="path2997"
       inkscape:connector-curvature="0"
       transform="translate(0,852.36218)" />
    <path
       style="fill:none;stroke:#000000;stroke-width:1px;stroke-linecap:butt;stroke-linejoin:miter;stroke-opacity:1"
       d="m 1008.1322,126.25886 c 2.3571,-1.68358 4.9062,-3.12639 7.0711,-5.05076 1.429,-1.27023 3.2468,-5.68195 4.0406,-7.07107 1.2047,-2.10818 2.6585,-4.06454 4.0406,-6.06091 2.3396,-3.37934 4.6405,-6.78707 7.0711,-10.101527 1.275,-1.738645 2.9313,-3.20197 4.0406,-5.050763 0.9329,-1.554874 1.2094,-3.428916 2.0203,-5.050763 0.213,-0.425917 0.6734,-0.673435 1.0102,-1.010152 0.6734,-0.673435 1.492,-1.227876 2.0203,-2.020305 0.3735,-0.560332 -0.4762,-1.544115 0,-2.020305 0.2381,-0.238095 0.772,0.238095 1.0101,0 0.2381,-0.238095 -0.1506,-0.708984 0,-1.010153 0.213,-0.425918 0.5843,-0.797193 1.0102,-1.010152 0.3011,-0.150585 0.6734,0 1.0101,0 0.3367,0 1.0102,-0.336718 1.0102,0 0,0.336717 -1.3469,0 -1.0102,0 0.6735,0 1.418,-0.30117 2.0203,0 0.3121,0.156039 -0.1806,2.669102 0,3.030457 0.2695,0.538948 1.7509,1.481358 2.0203,2.020305 0.1506,0.30117 -0.1064,0.690715 0,1.010153 0.4762,1.428571 1.5442,2.612039 2.0203,4.04061 0.4391,1.317078 0.4946,2.751586 1.0102,4.04061 0.1768,0.442132 0.7972,0.584235 1.0101,1.010153 3.0506,6.101082 -0.1456,0.427691 1.0102,5.050762 0.1826,0.73044 0.8275,1.28986 1.0102,2.02031 0.2032,0.81314 0,7.77362 0,8.08122 0,0.33671 -0.1065,0.69071 0,1.01015 0.238,0.71428 0.8275,1.28986 1.0101,2.0203 0.1633,0.65333 -0.213,1.38143 0,2.02031 0.1506,0.45175 0.6734,0.67343 1.0102,1.01015 0,0.67344 -0.213,1.38143 0,2.02031 0.1505,0.45175 0.8595,0.55839 1.0101,1.01015 0.213,0.63888 -0.1633,1.36698 0,2.0203 0.1826,0.73045 0.7721,1.30602 1.0102,2.02031 0.1064,0.31944 -0.2381,0.77206 0,1.01015 0.2381,0.2381 0.772,-0.23809 1.0101,0 0,2.69374 -0.3367,-0.33672 1.0102,1.01015 0.2381,0.2381 0.2381,0.77206 0,1.01016 -0.2381,0.23809 -1.0102,0.33671 -1.0102,0 0,-0.33672 1.3469,0 1.0102,0 -5.3875,0 -10.775,0 -16.1625,0 -0.9889,0 -6.1455,-0.18511 -7.071,0 -0.7383,0.14766 -1.3061,0.77205 -2.0203,1.01015 -0.3195,0.10648 -0.6908,-0.10648 -1.0102,0 -0.7143,0.23809 -1.306,0.77206 -2.0203,1.01015 -0.3194,0.10648 -0.7721,-0.23809 -1.0102,0 -0.2381,0.2381 0.2381,0.77206 0,1.01015 -0.2381,0.2381 -0.6734,0 -1.0101,0 -2.0203,0 -4.0406,0 -6.0609,0 -2.8013,0 1.6125,-0.15058 -3.0305,1.01016 -0.98,0.24499 -2.0203,0 -3.0304,0 -2.0203,0 -4.0406,0 -6.061,0 -1.3473,0 -0.6729,0 -2.0203,0 -0.3367,0 -1.0101,0.33671 -1.0101,0 0,-1.71693 2.5458,-4.28293 1.0101,-5.05077 -1.7561,-0.87805 -3.3671,2.02031 -5.0507,3.03046"
       id="path3037"
       inkscape:connector-curvature="0"
       transform="translate(0,852.36218)" />
    <path
       style="fill:none;stroke:#000000;stroke-width:1px;stroke-linecap:butt;stroke-linejoin:miter;stroke-opacity:1"
       d="m 1045.5079,78.781695 c 2.0484,-5.71345 5.4476,-0.351741 8.0812,-1.010153 1.033,-0.258251 1.9975,-0.751902 3.0305,-1.010153 0.3266,-0.08167 0.6734,0 1.0101,0 0.6735,0 1.3469,0 2.0203,0 1.3469,0 2.6938,0 4.0406,0 4.7141,0 9.4281,0 14.1422,0 1.6836,0 3.3671,0 5.0507,0 0.6735,0 1.367,0.163332 2.0203,0 0.7305,-0.18261 1.2899,-0.827541 2.0203,-1.010152 0.8599,-0.214964 4.4709,0.289948 5.0508,0 0.4259,-0.212959 0.5842,-0.797194 1.0102,-1.010153 0.3011,-0.150584 0.7089,0.150585 1.0101,0 0.4259,-0.212958 0.5842,-0.797193 1.0102,-1.010152 0.3011,-0.150585 0.6734,0 1.0101,0 0.6734,0 1.3469,0 2.0203,0 2.6938,0 5.3875,0 8.0812,0 1.0102,0 2.0722,0.319438 3.0305,0 4.459,-1.486343 -3.6701,-1.010153 3.0305,-1.010153 3.7038,0 7.4077,0 11.1116,0 1.3469,0 2.6938,0 4.0406,0 0.3368,0 1.3469,0 1.0102,0 -5.8993,0 2.9882,0.622987 -3.0305,3.030458 -0.9379,0.375161 -2.0721,-0.319438 -3.0304,0 -1.1518,0.383917 -1.9146,1.542066 -3.0305,2.020305 -1.276,0.546887 -2.7988,0.389276 -4.0406,1.010153 -3.5188,1.759397 -5.1645,4.571017 -8.0812,7.071067 -1.8169,1.557293 -9.7409,5.82047 -10.1015,6.060916 -0.7925,0.528286 -1.3469,1.34687 -2.0203,2.020305 -1.6836,1.683587 -3.243,3.501259 -5.0508,5.050762 -3.2474,2.783505 -0.8533,0.284429 -3.0305,1.010153 -0.7142,0.238092 -1.3938,0.592502 -2.0203,1.010152 -0.3962,0.26414 -0.5584,0.85957 -1.0101,1.01015 -0.6389,0.21296 -1.418,-0.30117 -2.0203,0 -0.3012,0.15059 0.2381,0.77206 0,1.01016 -0.5324,0.53239 -1.3939,0.5925 -2.0203,1.01015 -0.3962,0.26414 -0.5843,0.79719 -1.0102,1.01015 -0.3012,0.15059 -0.772,-0.23809 -1.0101,0 -0.2381,0.2381 0.2381,0.77206 0,1.01015 -0.2381,0.2381 -0.7721,-0.23809 -1.0102,0 -0.2381,0.2381 0.1506,0.70899 0,1.01016 -0.3062,0.61245 -3.7161,3.60798 -4.0406,4.04061 -0.4518,0.60233 -0.5925,1.39383 -1.0101,2.0203 0.1008,2.00117 -1.488,0.47776 -2.0204,1.01015 -0.238,0.2381 0.2381,0.77206 0,1.01016 -2.09,2.09004 0.082,-3.19386 -2.0203,1.01015 -0.1505,0.30117 0.2381,0.77206 0,1.01015 -0.2381,0.2381 -0.7089,-0.15058 -1.0101,0 -0.4259,0.21296 -0.5842,0.79719 -1.0102,1.01015 -0.3011,0.15059 -0.772,-0.23809 -1.0101,0 -0.2381,0.2381 0.2381,0.77206 0,1.01016 -0.2381,0.23809 -0.7721,-0.2381 -1.0102,0 -0.2381,0.23809 0.2381,0.77205 0,1.01015 -0.2381,0.23809 -0.772,-0.2381 -1.0101,0 -0.2381,0.23809 0.2381,0.77206 0,1.01015 -0.2381,0.2381 -1.0102,0.33672 -1.0102,0 0,-0.33672 1.0102,-0.33672 1.0102,0 0,2.10201 -1.4166,0.40646 -2.0203,1.01015 -0.2381,0.2381 0.2381,0.77206 0,1.01016 -1.3469,1.34687 -1.0102,-1.68359 -1.0102,1.01015 4.5176,0.95386 -0.9035,4.2539 0,6.06091 0.213,0.42592 0.7972,0.58424 1.0102,1.01016 0.1506,0.30117 -0.1506,0.70898 0,1.01015 0.2129,0.42592 0.7972,0.58423 1.0101,1.01015 0.1506,0.30117 0,0.67344 0,1.01015 0,1.34687 0,2.69374 0,4.04061 0,0.67344 -0.2129,1.38143 0,2.02031 0.2717,0.81515 2.5385,5.4049 3.0305,6.06092 1.1428,1.5238 2.8977,2.5168 4.0406,4.04061 1.324,1.76528 1.0017,3.01353 2.0203,5.05076 0.5429,1.08588 1.2919,2.05921 2.0203,3.03046 0.2857,0.38095 0.8596,0.55839 1.0102,1.01015 0.2129,0.63887 -0.1321,1.35995 0,2.0203 0.2088,1.04412 0.7519,1.99746 1.0101,3.03046 0.082,0.32666 -0.1506,0.70898 0,1.01015 0.213,0.42592 0.7972,0.58424 1.0102,1.01016 0.1505,0.30117 -0.1506,0.70898 0,1.01015 0.2129,0.42592 0.7972,0.58423 1.0101,1.01015 0.1506,0.30117 0,0.67344 0,1.01015 0,0.33672 0,0.67344 0,1.01016 0,1.68358 0,3.36717 0,5.05076 0,2.28217 -0.3012,-0.30117 2.0203,2.0203 0.2381,0.2381 -0.2381,0.77206 0,1.01016 0.2381,0.23809 0.7721,-0.2381 1.0102,0 0.4762,0.47619 -0.4762,1.54411 0,2.0203 0.2381,0.2381 0.772,-0.23809 1.0101,0 0.2381,0.2381 0.3367,1.01015 0,1.01015 -0.3367,0 -0.1065,-0.69071 0,-1.01015 0.2381,-0.71428 0.7136,-1.32826 1.0102,-2.0203 0.6734,-1.68359 1.3468,-3.36718 2.0203,-5.05077 0.3367,-1.34687 0.4945,-2.75158 1.0101,-4.04061 0.1769,-0.44213 0.8596,-0.55839 1.0102,-1.01015 1.0762,-3.22856 1.0101,-3.75595 1.0101,-6.06091 0,-2.80271 -0.4517,-2.85791 1.0102,-5.05077 0.2641,-0.39621 0.8947,-0.54818 1.0101,-1.01015 0.245,-0.97999 0,-2.0203 0,-3.03046 0,-0.33671 -0.1064,-0.69071 0,-1.01015 0.2381,-0.71429 0.8276,-1.28986 1.0102,-2.0203 0.245,-0.98 -0.3194,-2.07215 0,-3.03046 0.2381,-0.71429 0.8625,-1.28201 1.0101,-2.02031 0.2025,-1.01234 0,-4.74554 0,-6.06091 0,-0.33672 -0.082,-0.68349 0,-1.01016 0.2583,-1.033 0.752,-1.99745 1.0102,-3.03045 0.082,-0.32667 -0.1506,-0.70899 0,-1.01016 0.4259,-0.85183 1.492,-1.22787 2.0203,-2.0203 1.0891,-1.63363 2.1524,-3.29466 3.0305,-5.05076 0.1505,-0.30117 -0.2021,-0.74078 0,-1.01016 0.8571,-1.14285 2.1733,-1.8876 3.0304,-3.03045 0.1612,-0.21496 -0.049,-4.75631 0,-5.05077 0.2283,-1.36943 0.7819,-2.67117 1.0102,-4.04061 0.1107,-0.66427 -0.1634,-1.36697 0,-2.0203 0.1826,-0.73044 0.772,-1.30602 1.0101,-2.02031 0.1065,-0.31943 -0.1506,-0.70898 0,-1.01015 0.2698,-0.53951 2.4987,-2.49865 3.0305,-3.03046 0.3367,-0.33671 0.6734,-0.67343 1.0101,-1.01015 0.3368,-0.33672 0.5843,-0.79719 1.0102,-1.01015 0.3012,-0.15059 0.772,0.23809 1.0101,0 0.2381,-0.2381 -0.1505,-0.70899 0,-1.01015 0.426,-0.85184 1.4921,-1.22788 2.0203,-2.02031 0.4177,-0.62647 0.5926,-1.393835 1.0102,-2.020305 0.2641,-0.396214 0.7972,-0.584234 1.0102,-1.010152 0.1505,-0.301169 -0.2381,-0.772057 0,-1.010153 0.238,-0.238095 0.772,0.238096 1.0101,0 0.2381,-0.238095 -0.1506,-0.708983 0,-1.010152 0.4259,-0.851836 1.5944,-1.16847 2.0203,-2.020305 0.1506,-0.30117 -0.1506,-0.708984 0,-1.010153 0.6061,-1.212183 2.4244,-1.818274 3.0305,-3.030457 0.3011,-0.602339 -0.3012,-1.417967 0,-2.020306 0.9298,-1.859705 2.1006,-0.160599 3.0304,-2.020305 0.1506,-0.301169 -0.1506,-0.708983 0,-1.010152 0.213,-0.425918 0.7972,-0.584235 1.0102,-1.010153 0.1506,-0.301169 -0.1506,-0.708983 0,-1.010152 0.4259,-0.851836 1.492,-1.227876 2.0203,-2.020305 0.4176,-0.62647 0.772,-1.30602 1.0101,-2.020305 0.1065,-0.319439 -0.3011,-0.859568 0,-1.010153 0.6024,-0.301169 1.418,0.301169 2.0203,0 0.3012,-0.150585 0,-0.673435 0,-1.010153 0,-0.336717 0,-0.673435 0,-1.010152 2.9052,0.726298 4.4717,0.381624 6.061,3.030458 0.5478,0.913053 0.4623,2.117404 1.0101,3.030457 0.98,1.63332 2.8507,2.553241 4.0406,4.04061 3.86,4.824929 0.541,1.081892 3.0305,6.060916 0.2129,0.425917 0.6734,0.673435 1.0101,1.010152 0.6735,0.673435 1.3469,1.34687 2.0203,2.020305 0.6735,0.673435 1.2887,1.410606 2.0203,2.020305 1.2934,1.077807 2.8502,1.839982 4.0406,3.030458 0.8585,0.858462 1.418,1.976362 2.0204,3.030462 0.7471,1.30744 1.145,2.81525 2.0203,4.04061 0.8303,1.16247 2.3216,1.79011 3.0304,3.03045 0.6888,1.2054 0.5711,2.72354 1.0102,4.04061 0.2381,0.71429 0.7135,1.32826 1.0101,2.02031 0.7143,1.66667 1.306,3.38409 2.0203,5.05076 0.2966,0.69205 0.5726,1.40763 1.0102,2.02031 2.2107,3.09494 4.4609,5.47102 7.071,8.08122 0.3368,0.33671 0.614,0.74601 1.0102,1.01015 0.6265,0.41765 1.418,0.5584 2.0203,1.01015 0.7619,0.57143 1.3469,1.34687 2.0203,2.02031 1.6836,1.68358 3.3672,3.36717 5.0508,5.05076 1.0101,1.01015 2.1733,1.8876 3.0304,3.03046 0.9035,1.20467 0.9555,2.97581 2.0203,4.04061 0.4762,0.47619 1.5442,-0.47619 2.0203,0 0.2381,0.23809 -0.2381,0.77205 0,1.01015 0.2381,0.2381 0.8234,-0.28017 1.0102,0 0.5906,0.88596 0.534,2.07808 1.0101,3.03046 0.213,0.42592 0.7972,0.58423 1.0102,1.01015 0.1506,0.30117 -0.1506,0.70898 0,1.01015 0.213,0.42592 0.6734,0.67344 1.0102,1.01016 0.3367,0.33671 0.5842,0.79719 1.0101,1.01015 0.3012,0.15058 0.7721,-0.2381 1.0102,0 0.2381,0.23809 0.2381,0.77206 0,1.01015 -0.2381,0.2381 -0.6908,-0.10648 -1.0102,0 -0.7143,0.2381 -1.282,0.86249 -2.0203,1.01015 -1.9811,0.39622 -4.0562,-0.25058 -6.0609,0 -12.4531,2.49062 2.3059,-0.11779 -10.1015,1.01016 -8.5258,0.77506 -4.0356,1.21116 -13.132,3.03045 -2.662,0.5324 -5.3759,0.78471 -8.0812,1.01016 -1.3423,0.11185 -2.6938,0 -4.0407,0 -4.8452,0 -11.4864,-0.54852 -16.1624,1.01015 -1.4286,0.47619 -2.6306,1.49157 -4.0406,2.0203 -4.2851,1.60693 -9.7372,1.77189 -14.1421,3.03046 -0.724,0.20685 -1.282,0.86249 -2.0203,1.01015 -0.9906,0.19811 -2.0204,0 -3.0305,0 -2.357,0 -4.7141,0 -7.0711,0 -1.0101,0 -2.0203,0 -3.0304,0 -0.3367,0 -0.709,-0.15058 -1.0102,0 -0.4259,0.21296 -0.5584,0.85957 -1.0101,1.01016 -0.7898,0.26324 -5.5051,-0.27795 -6.061,0 -0.4259,0.21296 -0.5583,0.85956 -1.0101,1.01015 -0.6872,0.22907 -4.5151,-0.26781 -5.0508,0 -0.4259,0.21296 -0.6734,1.34687 -1.0101,1.01015 -0.3367,-0.33672 1.0101,-1.48634 1.0101,-1.01015 0,0.75292 -0.6734,1.34687 -1.0101,2.0203"
       id="path3039"
       inkscape:connector-curvature="0"
       transform="translate(0,852.36218)" />
    <path
       style="fill:none;stroke:#000000;stroke-width:1px;stroke-linecap:butt;stroke-linejoin:miter;stroke-opacity:1"
       d="m 1126.3201,70.700474 c 0.3367,-1.34687 0.6734,-2.69374 1.0101,-4.04061 0.3368,-0.336718 0.8596,-0.558399 1.0102,-1.010153 0.5429,-1.628822 0.5385,-3.399894 1.0101,-5.050762 0.2069,-0.723954 0.6735,-1.34687 1.0102,-2.020305 0.6734,-2.357023 1.4885,-4.678101 2.0203,-7.071068 0.1461,-0.657399 0,-1.34687 0,-2.020305 0.3367,-1.34687 0.5711,-2.723533 1.0102,-4.04061 0.2381,-0.714286 0.5925,-1.393836 1.0101,-2.020306 0.2642,-0.396214 0.8596,-0.558398 1.0102,-1.010152 0.3578,-1.0734 -0.3578,-2.96721 0,-4.04061 0.2381,-0.714286 0.8275,-1.289862 1.0101,-2.020305 0.1633,-0.653328 0,-1.34687 0,-2.020305 0,-0.336718 -0.1506,-0.708984 0,-1.010153 0.213,-0.425918 0.8596,-0.558399 1.0102,-1.010153 0.2632,-0.78973 -0.278,-5.505026 0,-6.060915 0.2129,-0.425918 0.7972,-0.584235 1.0101,-1.010152 0.1506,-0.30117 -0.1065,-0.690715 0,-1.010153 2.439,-7.316955 -0.2912,1.592614 2.0203,-3.030458 0.1506,-0.301169 -0.1506,-0.708983 0,-1.010152 0.213,-0.425918 0.7972,-0.584235 1.0102,-1.010153 0.1506,-0.301169 -0.2381,-0.772057 0,-1.010152 0.2381,-0.238095 0.772,0.238095 1.0101,0 0.5388,-0.538748 -1.4142,-3.299832 2.0203,-1.010153 0.6265,0.417647 0.6735,1.34687 1.0102,2.020305 0.9743,1.948584 3.0826,6.739981 4.0406,8.081221 0.8303,1.162476 2.138,1.914931 3.0305,3.030457 0.4703,0.587935 0.6734,1.34687 1.0101,2.020305 0.6734,1.346871 1.185,2.787671 2.0203,4.040611 0.2642,0.396214 0.8596,0.558398 1.0102,1.010152 0.4259,1.277753 -0.426,2.762857 0,4.04061 0.1505,0.451754 0.7972,0.584235 1.0101,1.010153 0.3012,0.602339 -0.1633,1.366977 0,2.020305 0.2583,1.033002 0.534,2.078077 1.0102,3.030458 0.878,1.756103 2.341,3.212389 3.0304,5.050762 0.3547,0.945836 -0.1981,2.039922 0,3.030458 0.1477,0.738302 0.9037,1.274949 1.0102,2.020305 0.2381,1.666667 -0.3302,3.399869 0,5.050763 0.066,0.330179 0.9285,-0.326664 1.0101,0 1.7032,6.81278 0.085,6.800778 2.0203,12.12183 0.8764,2.409973 2.1541,4.661096 3.0305,7.071068 0.5588,1.536751 1.811,7.835676 2.0203,9.091373 0.055,0.332136 -0.1065,0.690714 0,1.010153 2.439,7.316955 -0.2912,-1.592614 2.0203,3.030457 0.1506,0.30117 -0.1506,0.708984 0,1.010153 0.213,0.425918 0.7972,0.584235 1.0102,1.010152 0.1505,0.30117 -0.1506,0.708984 0,1.010153 0.2129,0.425918 0.7972,0.584235 1.0101,1.010152 0.1506,0.30117 -0.1506,0.708984 0,1.010153 0.213,0.425922 0.7972,0.584232 1.0102,1.010152 0.3011,0.60234 -0.213,1.38143 0,2.02031 1.2207,3.66209 0.4792,0.71892 2.0203,3.03045 0.4176,0.62647 0.5925,1.39384 1.0101,2.02031 0.2642,0.39621 0.6735,0.67343 1.0102,1.01015 0.3367,0.33672 0.5842,0.79719 1.0101,1.01015 0.3012,0.15059 0.7721,-0.23809 1.0102,0 0.2381,0.2381 -0.1065,0.69072 0,1.01016 0.2381,0.71428 0.772,1.30602 1.0101,2.0203 0.1065,0.31944 -0.1506,0.70898 0,1.01015 0.213,0.42592 0.7972,0.58424 1.0102,1.01016 0.1506,0.30117 0,0.67343 0,1.01015 0,0.67343 -0.213,1.38143 0,2.0203 0.1506,0.45176 0.8596,0.5584 1.0101,1.01016 0.3195,0.95831 0,2.0203 0,3.03045 0,2.02031 0,4.04061 0,6.06092 0,0.52823 -0.1328,3.775 0,4.04061 0.213,0.42592 0.8596,0.5584 1.0102,1.01015 0.2129,0.63888 -0.213,1.38143 0,2.02031 0.1506,0.45175 0.7972,0.58423 1.0101,1.01015 0.1506,0.30117 -0.1505,0.70898 0,1.01015 0.213,0.42592 0.7972,0.58424 1.0102,1.01015 0.3186,0.63728 -0.3186,4.41349 0,5.05077 0.213,0.42592 0.7972,0.58423 1.0101,1.01015 0.1827,0.36531 0,4.34816 0,5.05076"
       id="path3041"
       inkscape:connector-curvature="0"
       transform="translate(0,852.36218)" />
    <path
       style="fill:none;stroke:#000000;stroke-width:1px;stroke-linecap:butt;stroke-linejoin:miter;stroke-opacity:1"
       d="m 1041.4673,75.751237 c 4.3365,-1.445492 6.3856,-1.811096 10.1015,-4.04061 0.4083,-0.244998 0.6018,-0.765155 1.0102,-1.010153 7.3239,-4.394346 0.9248,0.938958 9.0913,-6.060915 0.7231,-0.619801 1.2279,-1.492019 2.0203,-2.020305 1.253,-0.835294 2.6938,-1.34687 4.0406,-2.020305 1.3469,-0.673435 2.6938,-1.34687 4.0407,-2.020305 1.3468,-0.673435 2.8152,-1.14505 4.0406,-2.020305 1.1624,-0.830341 1.9458,-2.100756 3.0304,-3.030458 9.9532,-8.53129 -0.9234,1.344856 7.0711,-5.050763 0.7437,-0.594947 1.2766,-1.425357 2.0203,-2.020305 0.948,-0.758412 1.9894,-1.39568 3.0304,-2.020305 0.6457,-0.387376 1.4324,-0.539805 2.0204,-1.010153 1.1155,-0.892421 1.819,-2.273316 3.0304,-3.030457 1.5377,-0.961036 3.4289,-1.209382 5.0508,-2.020305 1.0859,-0.542941 2.0203,-1.34687 3.0304,-2.020305 6.7311,-4.487381 7.9163,-5.034677 13.132,-9.091373 3.4038,-2.647366 6.7344,-5.38748 10.1015,-8.081221 1.6836,-1.34687 3.2569,-2.844652 5.0508,-4.04061 0.2802,-0.186777 0.709,0.150585 1.0102,0 1.0858,-0.54294 2.0592,-1.291874 3.0304,-2.020305 0.381,-0.285714 0.5842,-0.797194 1.0102,-1.010152 0.3011,-0.150585 0.6734,0 1.0101,0 0.2819,0 6.2729,0 3.0305,0"
       id="path3043"
       inkscape:connector-curvature="0"
       transform="translate(0,852.36218)" />
    <path
       style="fill:none;stroke:#000000;stroke-width:1px;stroke-linecap:butt;stroke-linejoin:miter;stroke-opacity:1"
       d="m 1147.5333,12.111627 c 4.3414,2.118202 8.529,4.526588 13.132,6.060915 1.3171,0.439026 2.7407,0.52268 4.0406,1.010152 1.41,0.528738 2.612,1.544115 4.0406,2.020305 1.6288,0.542941 3.4062,0.516797 5.0508,1.010153 1.7368,0.521042 3.3583,1.369376 5.0507,2.020305 1.5289,0.588044 11.6782,4.482161 14.1422,5.050763 13.1313,3.030301 1.2774,-1.280273 13.1319,3.030457 1.7041,0.619676 3.3467,1.40063 5.0508,2.020306 2.0014,0.727772 4.0669,1.272556 6.0609,2.020305 3.3957,1.273369 6.6786,2.842575 10.1015,4.04061 3.3181,1.161325 6.7665,1.91878 10.1016,3.030457 3.7389,1.24631 7.358,2.839435 11.1116,4.040611 4.6695,1.494218 9.4184,2.728437 14.1422,4.04061 1.3377,0.371576 2.7302,0.55152 4.0406,1.010152 5.4308,1.900781 10.8339,3.890013 16.1624,6.060916 3.7679,1.53506 7.4078,3.367175 11.1117,5.050762 3.7039,1.683588 7.4413,3.295355 11.1117,5.050763 4.0754,1.949117 7.9868,4.241528 12.1218,6.060915 3.481,1.531625 24.0026,9.147321 27.2741,10.101526 3.2965,0.96148 6.7789,1.153524 10.1016,2.020305 4.4315,1.156055 8.7871,2.592333 13.1319,4.04061 3.739,1.24631 7.2696,3.162418 11.1117,4.04061 7.9867,1.825535 16.1701,2.648616 24.2437,4.04061 1.692,0.291719 3.3632,0.693743 5.0507,1.010153 10.1378,1.900822 20.251,3.740852 30.3046,6.060912 1.3528,0.31218 2.663,0.83796 4.0406,1.01016 8.1687,1.02108 0.3412,-1.23316 7.0711,1.01015"
       id="path3045"
       inkscape:connector-curvature="0"
       transform="translate(0,852.36218)" />
    <path
       style="fill:none;stroke:#000000;stroke-width:1px;stroke-linecap:butt;stroke-linejoin:miter;stroke-opacity:1"
       d="m 1191.98,155.55329 c 11.4484,0 22.8968,0 34.3452,0 8.7951,0 7.4247,0.33412 16.1624,-1.01015 1.697,-0.26108 3.3672,-0.67344 5.0508,-1.01016 1.6836,-0.33671 3.4062,-0.51679 5.0508,-1.01015 1.7368,-0.52104 3.3305,-1.4469 5.0507,-2.0203 0.3195,-0.10648 0.7007,0.13263 1.0102,0 2.0761,-0.88978 3.9527,-2.21961 6.0609,-3.03046 8.8146,-2.51845 4.795,-1.1099 12.1218,-4.04061 1.6836,-0.67344 3.3938,-1.28387 5.0508,-2.02031 1.376,-0.61158 2.5983,-1.5876 4.0406,-2.0203 1.9618,-0.58854 4.0739,-0.5134 6.0609,-1.01016 0.7304,-0.18261 1.2776,-0.88637 2.0203,-1.01015 10.5626,0 -0.389,0.60234 6.0609,-1.01015 1.6333,-0.40833 3.3999,0.33018 5.0508,0 0.7383,-0.14766 1.282,-0.86249 2.0203,-1.01015 1.0667,-0.21334 5.6102,0 7.0711,0 0.6734,0 1.3814,0.21296 2.0203,0 0.4517,-0.15059 0.5842,-0.7972 1.0101,-1.01016 0.3634,-0.18169 5.0215,0.006 5.0508,0 0.7383,-0.14766 1.3212,-0.73052 2.0203,-1.01015 0.9886,-0.39545 2.0066,-0.71763 3.0304,-1.01015 3.9746,-1.1356 8.0866,-2.13372 12.1219,-3.03046 3.3521,-0.74491 6.8125,-1.03359 10.1015,-2.0203 1.7368,-0.52105 3.2916,-1.58052 5.0508,-2.02031 2.3098,-0.57746 4.7225,-0.61872 7.071,-1.01015 1.6936,-0.28226 3.3616,-0.70302 5.0508,-1.01015 6.0447,-1.09905 12.138,-1.93142 18.1827,-3.03046 1.6893,-0.30713 3.3748,-0.6377 5.0508,-1.01015 1.3553,-0.30117 2.6712,-0.78192 4.0406,-1.01016 2.6778,-0.44629 5.4312,-0.42125 8.0812,-1.01015 0.4649,-0.1033 0.5388,-0.94281 1.0102,-1.01015 3,-0.42857 6.0609,0 9.0914,0 1.3468,0 2.7041,0.16706 4.0406,0 1.3776,-0.1722 2.6711,-0.78192 4.0406,-1.01015 0.5488,-0.0915 4.6141,0.21832 5.0507,0 0.426,-0.21296 0.5843,-0.7972 1.0102,-1.01016 0.6023,-0.30117 1.5441,0.47619 2.0203,0 0.2381,-0.23809 -0.2381,-0.77205 0,-1.01015 0.4762,-0.47619 1.5441,0.47619 2.0203,0 0.2381,-0.23809 -0.2381,-0.77206 0,-1.01015 0.2381,-0.2381 0.7721,0.23809 1.0102,0 0.2381,-0.2381 -0.2381,-0.77206 0,-1.01015 0.2381,-0.2381 0.772,0.23809 1.0101,0 1.3469,-1.34687 -1.6836,-1.01016 1.0102,-1.01016"
       id="path3047"
       inkscape:connector-curvature="0"
       transform="translate(0,852.36218)" />
    <path
       style="fill:none;stroke:#000000;stroke-width:1px;stroke-linecap:butt;stroke-linejoin:miter;stroke-opacity:1"
       d="m 1181.8785,108.07612 c 1.1939,-3.33042 3.4219,-0.46721 5.0507,-1.01015 0.7143,-0.2381 1.3469,-0.67344 2.0203,-1.01016 1.0102,-0.33671 2.0067,-0.71763 3.0305,-1.01015 1.3349,-0.3814 2.7235,-0.57113 4.0406,-1.01015 0.7143,-0.2381 1.2899,-0.82754 2.0203,-1.01015 0.6533,-0.16334 1.367,0.16333 2.0203,0 0.7305,-0.18262 1.3469,-0.67344 2.0203,-1.01016 1.3469,-0.33671 2.6793,-0.73788 4.0406,-1.01015 0.3302,-0.066 0.709,0.15059 1.0102,0 5.0542,-2.527094 -8.38,0.66585 5.0508,-2.020305 0.6603,-0.132071 1.3814,0.212959 2.0203,0 0.7142,-0.238095 1.2898,-0.827541 2.0203,-1.010152 0.1829,-0.04573 4.9878,0.06289 5.0507,0 0.2381,-0.238095 -0.3011,-0.859568 0,-1.010153 0.6024,-0.301169 1.3469,0 2.0203,0 0.3367,0 0.7721,0.238096 1.0102,0 0.4489,-0.448956 -0.7857,-1.908066 1.0101,-1.010152 0.418,0.208975 2.7451,2.602291 3.0305,3.030457 0.4176,0.62647 0.5925,1.393835 1.0101,2.020305 1.2323,1.84831 1.2879,0.10078 2.0204,3.03046 0.1633,0.65333 -0.1321,1.35995 0,2.0203 0.2088,1.04412 0.7519,1.99746 1.0101,3.03046 0.2161,0.86422 0,4.0411 0,5.05076 0,3.7039 0,7.40779 0,11.11168 0,1.68359 0,3.36718 0,5.05076 0,1.01016 -0.3194,2.07215 0,3.03046 0.1506,0.45176 0.7972,0.58424 1.0102,1.01015 0.3011,0.60234 -0.3012,1.41797 0,2.02031 0.2129,0.42592 0.7972,0.58423 1.0101,1.01015 0.3012,0.60234 -0.1633,1.36698 0,2.02031 0.2583,1.033 0.7519,1.99745 1.0102,3.03045 0.1718,0.68746 -0.2763,2.47803 0,3.03046 0.2129,0.42592 0.7972,0.58424 1.0101,1.01016 0.1506,0.30116 -0.2381,0.77205 0,1.01015 0.2381,0.23809 0.7721,-0.2381 1.0102,0 0.033,0.0325 0,2.78547 0,3.03046"
       id="path3049"
       inkscape:connector-curvature="0"
       transform="translate(0,852.36218)" />
    <path
       style="fill:none;stroke:#000000;stroke-width:1px;stroke-linecap:butt;stroke-linejoin:miter;stroke-opacity:1"
       d="m 1211.1729,34.334983 c 0.4444,2.325436 -0.3333,4.737734 0,7.071067 0.1963,1.374369 0.8138,2.666242 1.0102,4.040611 0.1428,1 -0.1429,2.030457 0,3.030457 1.2551,8.786054 1.0101,-0.08748 1.0101,7.071068 0,2.020305 0,4.04061 0,6.060915 0,0.336718 0,0.673435 0,1.010153 0,0.336717 -0.1506,0.708983 0,1.010152 0.213,0.425918 0.7972,0.584235 1.0102,1.010153 0.1505,0.301169 -0.1506,0.708983 0,1.010152 0.2129,0.425918 0.7972,0.584235 1.0101,1.010153 0.1506,0.301169 -0.125,0.697518 0,1.010153 0.5593,1.398143 1.3469,2.69374 2.0203,4.04061 0.3367,0.673435 0.7721,1.306019 1.0102,2.020305 0.1064,0.319438 0,0.673435 0,1.010152 0,0.673435 -0.213,1.381429 0,2.020305 0.1506,0.451754 0.7972,0.584235 1.0101,1.010153 0.3012,0.602339 -0.1633,1.366977 0,2.020305 0.2583,1.033002 0.7519,1.997456 1.0102,3.030458 0.1633,0.653328 -0.1634,1.366977 0,2.020305 0.2582,1.033002 0.7519,1.997455 1.0101,3.030457 0.082,0.326664 -0.1506,0.708984 0,1.010153 0.213,0.425918 0.7972,0.584235 1.0102,1.010153 0.404,0.808122 -0.4041,2.222335 0,3.030457 0.2129,0.425918 0.7972,0.584235 1.0101,1.010153 0.1506,0.301169 -0.1506,0.708983 0,1.010152 0.213,0.425918 0.7972,0.584235 1.0102,1.010153 0.6967,1.393361 -1.2234,0.903554 1.0101,2.020305 0.3012,0.150585 0.6735,0 1.0102,0 0.3367,0 1.3469,0 1.0101,0 -0.6734,0 -2.0203,0.673435 -2.0203,0 0,-0.752923 1.3061,-0.772057 2.0203,-1.010153 3.0071,-1.002351 -2.0726,2.391911 3.0305,-1.010152 0.3962,-0.264143 0.5584,-0.859568 1.0102,-1.010153 1.2777,-0.425917 2.7628,0.425918 4.0406,0 0.4517,-0.150584 0.5842,-0.797193 1.0101,-1.010152 0.3012,-0.150585 0.7721,0.238095 1.0102,0 0.2381,-0.238096 -0.2381,-0.772058 0,-1.010153 0.2381,-0.238095 0.6734,0 1.0101,0 1.0102,0 2.0203,0 3.0305,0 2.6937,0 5.3875,0 8.0812,0 1.3469,0 2.734,0.326664 4.0406,0 1.4609,-0.365221 2.6307,-1.491567 4.0406,-2.020305 1.2999,-0.487472 2.6938,-0.673435 4.0406,-1.010152 1.3469,-0.336718 2.6793,-0.737881 4.0406,-1.010153 0.3302,-0.06604 0.709,0.150585 1.0102,0 0.4259,-0.212959 0.5842,-0.797194 1.0101,-1.010153 0.3075,-0.153711 2.5756,0 3.0305,0 2.0203,0 4.0406,0 6.0609,0 0.6735,0 1.418,0.30117 2.0203,0 0.3012,-0.150584 -0.2381,-0.772057 0,-1.010152 0.2431,-0.243074 3.7976,0.243074 4.0406,0 0.2381,-0.238095 -0.2381,-0.772057 0,-1.010153 0.2381,-0.238095 0.709,0.150585 1.0102,0 0.4259,-0.212958 0.5842,-0.797193 1.0101,-1.010152 0.3012,-0.150585 0.709,0.150584 1.0102,0 0.4259,-0.212959 0.5584,-0.859568 1.0101,-1.010153 0.7898,-0.263243 5.5051,0.277945 6.061,0 0.4259,-0.212959 0.5842,-0.797193 1.0101,-1.010152 0.5939,-0.296956 3.2114,0.207306 4.0406,0 1.033,-0.258251 1.9864,-0.801329 3.0305,-1.010153 0.6603,-0.132071 1.3814,0.212959 2.0203,0 0.4517,-0.150584 0.5842,-0.797193 1.0101,-1.010152 0.8082,-0.404061 2.2224,0.404061 3.0305,0 0.4259,-0.212959 0.5842,-0.797194 1.0101,-1.010153 0.3012,-0.150585 0.7721,0.238095 1.0102,0 0.2381,-0.238095 -0.1506,-0.708983 0,-1.010152 0.213,-0.425918 0.7972,-0.584235 1.0102,-1.010153 0.1305,-0.261176 0,-5.344917 0,-6.060915 0,-1.010153 0,-2.020305 0,-3.030458 0,-0.336717 -0.3368,-1.010152 0,-1.010152 0.3367,0 0,0.673435 0,1.010152 -1.3469,0.673435 -2.6425,1.461047 -4.0407,2.020305 -0.6252,0.250106 -1.3468,0 -2.0203,0 -1.6836,0 -3.3671,0 -5.0507,0 -5.7242,0 -11.4484,0 -17.1726,0 -9.4281,0 -18.8562,0 -28.2843,0 -0.4763,0 -5.005,0.04578 -5.0508,0 -0.238,-0.238095 0.2381,-0.772057 0,-1.010152 -0.238,-0.238096 -0.7089,0.150584 -1.0101,0 -0.4259,-0.212959 -0.5842,-0.797194 -1.0102,-1.010153 -0.3011,-0.150585 -0.7089,0.150585 -1.0101,0 -0.8518,-0.425918 -1.1685,-1.594387 -2.0203,-2.020305 -0.3012,-0.150585 -0.709,0.150585 -1.0102,0 -0.8084,-0.404211 -1.2119,-1.616095 -2.0203,-2.020305 -0.6023,-0.301169 -1.4179,0.301169 -2.0203,0 -2.9727,-1.486343 1.5681,-1.010153 -3.0304,-1.010153 -0.4518,-0.150584 -0.5584,-0.859568 -1.0102,-1.010152 -0.6389,-0.212959 -1.418,0.301169 -2.0203,0 -0.3012,-0.150585 0.2381,-0.772057 0,-1.010153 -0.5324,-0.532397 -1.4879,-0.477755 -2.0203,-1.010152 -0.5324,-0.532397 -0.4778,-1.487908 -1.0102,-2.020305 -0.238,-0.238096 -0.772,0.238095 -1.0101,0 -0.2381,-0.238096 0.2381,-0.772058 0,-1.010153 -0.5324,-0.532397 -1.3938,-0.592506 -2.0203,-1.010152 -0.7924,-0.528286 -1.3469,-1.346871 -2.0203,-2.020306 -1.3469,-1.34687 -2.6938,-2.69374 -4.0406,-4.04061 -1.0102,-1.010152 -2.1733,-1.8876 -3.0305,-3.030457 -1.178,-1.570707 -1.1973,-3.869722 -3.0304,-5.050763 -0.595,-0.743685 -1.6859,-1.128563 -2.0203,-2.020305 -0.7192,-1.917764 -0.6735,-4.04061 -1.0102,-6.060915 z"
       id="path3051"
       inkscape:connector-curvature="0"
       transform="translate(0,852.36218)" />
    <path
       style="fill:none;stroke:#000000;stroke-width:1px;stroke-linecap:butt;stroke-linejoin:miter;stroke-opacity:1"
       d="m 1246.5282,69.690322 c -5.985,0.94354 -2.8939,0.873591 -6.0609,4.04061 -0.3367,0.336717 -0.6139,0.746009 -1.0101,1.010152 -0.6265,0.417647 -1.5686,0.407814 -2.0203,1.010153 -0.6389,0.851835 -0.534,2.078077 -1.0102,3.030458 -0.2129,0.425917 -0.7972,0.584234 -1.0101,1.010152 -0.3012,0.602339 0.4762,1.544115 0,2.020305 -0.2381,0.238095 -0.7721,-0.238095 -1.0102,0 -0.4762,0.476191 0.4762,1.544115 0,2.020305 -0.2381,0.238096 -0.772,-0.238095 -1.0101,0 -0.3546,0.354583 0.3488,4.353017 0,5.050763 -0.213,0.425918 -0.7972,0.584235 -1.0102,1.010153 -0.2003,0.400517 0.2065,2.823945 0,3.030457 -0.2381,0.238095 -0.7721,-0.238095 -1.0101,0 -0.2381,0.238095 0.1505,0.708983 0,1.010153 -0.213,0.425917 -0.7972,0.584235 -1.0102,1.010152 -0.1506,0.30117 0.1506,0.708984 0,1.010153 -1.2095,2.418906 -2.0203,-0.636592 -2.0203,2.020305"
       id="path3053"
       inkscape:connector-curvature="0"
       transform="translate(0,852.36218)" />
    <path
       style="fill:none;stroke:#000000;stroke-width:1px;stroke-linecap:butt;stroke-linejoin:miter;stroke-opacity:1"
       d="m 1249.5587,93.933983 c -1.3469,1.34687 -2.8212,2.577331 -4.0406,4.04061 -0.964,1.156823 -1.185,2.787667 -2.0203,4.040607 -0.991,1.48642 -3.0497,2.5542 -4.0406,4.04061 -0.4177,0.62647 -0.5584,1.41797 -1.0102,2.02031 -1.9876,2.65014 -2.628,1.51932 -4.0406,5.05076 -0.2501,0.62527 0.213,1.38143 0,2.02031 -0.1506,0.45175 -0.746,0.61393 -1.0101,1.01015 -0.8353,1.25294 -1.1851,2.78767 -2.0203,4.04061 -0.2642,0.39621 -0.8596,0.5584 -1.0102,1.01015 -0.213,0.63888 0,1.34687 0,2.02031 0,0.33671 0.1506,0.70898 0,1.01015 -1.2482,2.49649 -1.0102,-0.34868 -1.0102,2.0203"
       id="path3055"
       inkscape:connector-curvature="0"
       transform="translate(0,852.36218)" />
    <path
       style="fill:none;stroke:#000000;stroke-width:1px;stroke-linecap:butt;stroke-linejoin:miter;stroke-opacity:1"
       d="m 1268.7516,91.913678 c -12.5277,9.395752 0.2385,-1.120003 -5.0508,5.050762 -1.5495,1.807754 -3.4829,3.25891 -5.0507,5.05076 -1.9114,1.12048 -1.804,3.51762 -3.0305,5.05077 -9.8205,9.82048 0.9065,-1.54536 -4.0406,5.05076 -1.1429,1.52381 -2.984,2.45575 -4.0406,4.04061 -0.8353,1.25294 -1.2732,2.73317 -2.0203,4.04061 -0.6024,1.05409 -1.4774,1.94458 -2.0203,3.03046 -0.8109,1.62184 -1.2094,3.42891 -2.0203,5.05076 -0.8781,1.7561 -1.9899,3.38582 -3.0305,5.05076 -0.6434,1.02952 -1.5694,1.90324 -2.0203,3.03046 -0.9104,2.27601 -1.0247,4.831 -2.0203,7.07107 -4.3852,9.86671 -0.1457,-4.61376 -3.0304,4.04061 -0.1065,0.31944 0,0.67343 0,1.01015 -0.6735,0.67344 -1.4921,1.22788 -2.0204,2.02031 -0.1867,0.28016 0.3368,1.01015 0,1.01015 -0.3367,0 0,-0.67344 0,-1.01015"
       id="path3057"
       inkscape:connector-curvature="0"
       transform="translate(0,852.36218)" />
    <path
       style="fill:none;stroke:#000000;stroke-width:1px;stroke-linecap:butt;stroke-linejoin:miter;stroke-opacity:1"
       d="m 1282.8937,88.88322 c -2.324,3.662704 -6.4141,5.744792 -9.0913,9.091373 -0.4704,0.587934 -0.5584,1.417966 -1.0102,2.020305 -5.4495,7.266002 1.1217,-2.131805 -4.0406,3.030462 -0.8585,0.85846 -1.4774,1.94457 -2.0203,3.03045 -0.1506,0.30117 0.2381,0.77206 0,1.01016 -0.2381,0.23809 -0.7721,-0.2381 -1.0102,0 -0.4762,0.47619 0.3012,1.41796 0,2.0203 -0.4259,0.85184 -1.5943,1.16847 -2.0203,2.02031 -0.1506,0.30117 0.1506,0.70898 0,1.01015 -0.2129,0.42592 -0.7972,0.58423 -1.0101,1.01015 -0.3012,0.60234 0.3012,1.41797 0,2.02031 -0.213,0.42591 -0.7972,0.58423 -1.0102,1.01015 -0.1506,0.30117 0.1506,0.70898 0,1.01015 -0.2129,0.42592 -0.7972,0.58424 -1.0101,1.01015 -0.3012,0.60234 0.4762,1.54412 0,2.02031 -0.2381,0.23809 -0.7721,-0.2381 -1.0102,0 -0.2381,0.23809 0.1506,0.70898 0,1.01015 -0.2694,0.53895 -1.7508,1.48136 -2.0203,2.02031 -1.244,2.48795 2.9322,-0.9119 -1.0101,3.03045 -0.2381,0.2381 -0.7721,-0.23809 -1.0102,0 -0.2381,0.2381 0,0.67344 0,1.01016 -0.6734,0.33671 -1.4879,0.47775 -2.0203,1.01015 -0.2381,0.23809 0.2381,0.77206 0,1.01015 -0.2381,0.2381 -0.8596,-0.30117 -1.0101,0 -0.3012,0.60234 0.1633,1.36698 0,2.02031 -0.1827,0.73044 -0.7721,1.30602 -1.0102,2.0203 -0.213,0.63888 0.3012,1.41797 0,2.02031 -0.213,0.42591 -0.7972,0.58423 -1.0101,1.01015 -0.1506,0.30117 0.1505,0.70898 0,1.01015 -0.213,0.42592 -0.7972,0.58424 -1.0102,1.01015 -0.1506,0.30117 0.2381,0.77206 0,1.01016 -0.2381,0.23809 -0.7721,-0.2381 -1.0102,0 -0.505,0.50507 0.5051,2.52538 0,3.03045 -0.238,0.2381 -0.772,-0.23809 -1.0101,0 -0.2381,0.2381 0.2381,0.77206 0,1.01016 -0.2381,0.23809 -0.7721,-0.2381 -1.0102,0 -0.4761,0.47619 0.4762,1.54411 0,2.0203 -0.2381,0.2381 -0.772,-0.23809 -1.0101,0 -0.2381,0.2381 0.1506,0.70899 0,1.01016 -0.213,0.42591 -0.7972,0.58423 -1.0102,1.01015 -0.1505,0.30117 0.2381,0.77205 0,1.01015 -0.2381,0.2381 -0.772,-0.2381 -1.0101,0 -0.4762,0.47619 0.4762,1.54411 0,2.02031 -0.2381,0.23809 -0.7721,-0.2381 -1.0102,0 0,2.69374 0.3367,-0.33672 -1.0101,1.01015 -0.2381,0.23809 0.3367,1.01015 0,1.01015 -0.3367,0 0,-0.67343 0,-1.01015"
       id="path3059"
       inkscape:connector-curvature="0"
       transform="translate(0,852.36218)" />
    <path
       style="fill:none;stroke:#000000;stroke-width:1px;stroke-linecap:butt;stroke-linejoin:miter;stroke-opacity:1"
       d="m 1275.8227,143.43146 c 0,-3.28891 -0.426,-4.19893 1.0101,-7.07107 0.213,-0.42592 0.746,-0.61394 1.0102,-1.01015 0.4176,-0.62647 0.5925,-1.39384 1.0101,-2.02031 0.2642,-0.39621 0.746,-0.61394 1.0102,-1.01015 0.4176,-0.62647 0.6734,-1.34687 1.0101,-2.02031 1.0102,-2.0203 1.9335,-4.08639 3.0305,-6.06091 0.5896,-1.06127 1.594,-1.89371 2.0203,-3.03046 0.6028,-1.60761 0.5385,-3.39989 1.0101,-5.05076 0.2069,-0.72396 0.6735,-1.34687 1.0102,-2.02031 0.6734,-1.34687 1.3469,-2.69374 2.0203,-4.04061 0.6734,-1.34687 1.2456,-2.74935 2.0203,-4.04061 0.245,-0.40833 0.746,-0.61393 1.0102,-1.01015 4.7004,-7.050628 -4.4824,4.96639 3.0304,-5.050762 0.6345,-0.845929 2.6172,-2.203827 3.0305,-3.030458 0.1506,-0.301169 -0.1506,-0.708983 0,-1.010152 2.102,-4.204013 -0.07,1.079889 2.0203,-1.010153 0.2381,-0.238095 -0.1506,-0.708983 0,-1.010152 0.2129,-0.425918 0.7972,-0.584235 1.0101,-1.010153 0.1506,-0.301169 -0.2381,-0.772057 0,-1.010152 0.2381,-0.238096 0.7721,0.238095 1.0102,0 0.4762,-0.476191 -0.4762,-1.544115 0,-2.020305 0.2381,-0.238096 0.772,0.238095 1.0101,0 0.2381,-0.238096 -0.2381,-0.772058 0,-1.010153 0.2381,-0.238095 0.7721,0.238095 1.0102,0 0.4762,-0.47619 -0.3012,-1.417966 0,-2.020305 0.2129,-0.425918 0.7972,-0.584235 1.0101,-1.010153 0.1506,-0.301169 -0.1505,-0.708983 0,-1.010152 0.213,-0.425918 0.7972,-0.584235 1.0102,-1.010153 0.1506,-0.301169 -0.2381,-0.772057 0,-1.010152 0.2381,-0.238095 0.7721,0.238095 1.0101,0 0.2381,-0.238095 -0.1505,-0.708984 0,-1.010153 0.213,-0.425918 0.7972,-0.584235 1.0102,-1.010152 0.1506,-0.30117 -0.1506,-0.708984 0,-1.010153 0.213,-0.425918 0.7972,-0.584235 1.0102,-1.010152 0.1505,-0.30117 -0.2381,-0.772058 0,-1.010153 0.238,-0.238095 1.0101,-0.336718 1.0101,0 0,0.336718 -0.6734,0 -1.0101,0"
       id="path3061"
       inkscape:connector-curvature="0"
       transform="translate(0,852.36218)" />
    <path
       style="fill:none;stroke:#000000;stroke-width:1px;stroke-linecap:butt;stroke-linejoin:miter;stroke-opacity:1"
       d="m 1301.0765,133.32993 c 0.8633,-2.2361 -0.6475,-4.80473 0,-7.07107 0.4137,-1.4479 1.3468,-2.69374 2.0203,-4.04061 1.3469,-2.69374 2.6937,-5.38748 4.0406,-8.08122 12.9301,-25.860173 -4.3721,8.37074 8.0812,-15.152285 1.7614,-3.327122 3.3672,-6.73435 5.0508,-10.101525 1.0101,-2.020305 1.8178,-4.155278 3.0304,-6.060915 9.6126,-15.105476 0.3176,0.586715 6.0609,-7.071068 0.4518,-0.602339 0.5926,-1.393835 1.0102,-2.020305 0.2641,-0.396215 0.7972,-0.584235 1.0102,-1.010153 0.3011,-0.602338 -0.4762,-1.544114 0,-2.020305 1.3468,-1.34687 1.0101,1.683588 1.0101,-1.010152"
       id="path3063"
       inkscape:connector-curvature="0"
       transform="translate(0,852.36218)" />
    <path
       style="fill:none;stroke:#000000;stroke-width:1px;stroke-linecap:butt;stroke-linejoin:miter;stroke-opacity:1"
       d="m 1313.1983,107.06597 c 16.8359,0 33.6718,0 50.5076,0 3.3672,0 6.7344,0 10.1016,0 0.582,0 4.6825,-0.18409 5.0507,0 0.4259,0.21295 0.5843,0.79719 1.0102,1.01015 0.3011,0.15058 0.6734,0 1.0101,0 0.3367,0 0.6735,0 1.0102,0 1.3469,0 2.6937,0 4.0406,0 4.3773,0 8.7546,0 13.132,0 8.4179,0 16.8359,0 25.2538,0 2.6937,0 5.3875,0 8.0812,0 0.6734,0 1.3469,0 2.0203,0 0.3367,0 1.3469,0 1.0102,0 -1.0102,0 -4.0406,0 -3.0305,0 1.6836,0 3.3672,0 5.0508,0"
       id="path3065"
       inkscape:connector-curvature="0"
       transform="translate(0,852.36218)" />
    <path
       style="fill:none;stroke:#000000;stroke-width:1px;stroke-linecap:butt;stroke-linejoin:miter;stroke-opacity:1"
       d="m 1631.3964,130.29947 c 0.9292,-3.71678 0.5683,-4.19859 3.0304,-7.07106 1.2396,-1.44621 2.8712,-2.53709 4.0406,-4.04061 6.4088,-10.68124 -0.6845,0.21536 7.0711,-9.09138 0.482,-0.57841 0.6228,-1.37468 1.0101,-2.0203 0.6247,-1.04104 1.3957,-1.98942 2.0204,-3.03046 0.7747,-1.29125 1.185,-2.78767 2.0203,-4.04061 0.2641,-0.39621 0.7972,-0.58423 1.0101,-1.010152 0.6967,-1.393361 -1.2233,-0.903554 1.0102,-2.020305 0.6023,-0.301169 1.5441,0.47619 2.0203,0 0.2381,-0.238095 -0.3012,-0.859568 0,-1.010153 2.0203,-1.010152 1.5152,0.505077 3.0304,0 0.7143,-0.238095 1.3939,-0.592505 2.0203,-1.010152 0.3962,-0.264143 0.5584,-0.859568 1.0102,-1.010153 1.5152,-0.505076 3.5355,0.505077 5.0507,0 0.4518,-0.150584 0.614,-0.746009 1.0102,-1.010152 0.3602,-2.481452 2.1445,-0.419511 3.0305,-1.010153 0.7924,-0.528286 1.2278,-1.492019 2.0203,-2.020305 0.2801,-0.186777 0.7089,0.150585 1.0101,0 0.4259,-0.212959 0.5842,-0.797194 1.0102,-1.010152 0.3011,-0.150585 0.6734,0 1.0101,0 0.3367,-0.336718 0.5843,-0.797194 1.0102,-1.010153 0.5524,-0.276219 2.343,0.171864 3.0304,0 1.033,-0.258251 1.9975,-0.751902 3.0305,-1.010153 0.7959,-0.198975 3.3817,0 4.0406,0 1.3133,0 2.7498,-0.21514 4.0406,0 1.6936,0.282262 3.3511,0.767343 5.0508,1.010153 0.6666,0.09524 1.3814,-0.212959 2.0203,0 0.4517,0.150585 0.6734,0.673435 1.0101,1.010153 0.6735,0.673435 1.2584,1.448876 2.0203,2.020305 0.6024,0.451754 1.3469,0.673435 2.0203,1.010152 0.6735,0.336718 1.3061,0.772057 2.0203,1.010153 11.6004,2.90008 -2.6953,-1.155154 7.0711,3.030457 1.2761,0.546887 2.7646,0.463266 4.0406,1.010153 1.1159,0.478239 2.001,1.376859 3.0305,2.020305 1.6649,1.040592 3.3858,1.989862 5.0507,3.030462 1.0296,0.64344 1.9895,1.39568 3.0305,2.0203 0.6456,0.38738 1.3747,0.62278 2.0203,1.01015 1.041,0.62463 1.9146,1.54207 3.0305,2.02031 1.276,0.54689 2.7515,0.49454 4.0406,1.01015 0.4421,0.17685 0.6018,0.76516 1.0101,1.01015 1.2913,0.77476 2.8153,1.14505 4.0406,2.02031 1.1625,0.83034 2.0203,2.0203 3.0305,3.03046 0.6734,0.67343 1.1685,1.59438 2.0203,2.0203 1.2418,0.62088 2.7989,0.38928 4.0406,1.01015 1.3055,0.65274 4.817,5.78044 5.0508,6.06092 0.6097,0.73164 1.492,1.22788 2.0203,2.0203 0.1868,0.28017 -0.2381,0.77206 0,1.01016 5.665,5.66505 1.1634,1.06123 4.0406,2.0203 3.2974,1.09915 0.8467,1.31964 5.0507,2.02031 0.9965,0.16606 2.0204,0 3.0305,0 1.0102,0 2.0203,0 3.0305,0 2.0203,0 4.0406,0 6.0609,0 0.6734,0 1.356,0.11071 2.0203,0 4.5139,-0.75232 8.3814,-2.37908 12.1218,-5.05077 0.775,-0.55356 1.2584,-1.44887 2.0203,-2.0203 0.6024,-0.45175 1.3469,-0.67344 2.0203,-1.01015 2.357,-1.34687 4.8993,-2.41179 7.0711,-4.04061 0.6023,-0.45176 0.3837,-1.60266 1.0101,-2.02031 0.5604,-0.37355 1.3815,0.21296 2.0204,0 0.7959,-0.26531 3.0693,-3.55499 4.0406,-4.04061 0.3011,-0.15058 0.7089,0.15059 1.0101,0 0.4259,-0.21296 0.5842,-0.79719 1.0102,-1.01015 0.3011,-0.15059 0.772,0.23809 1.0101,0 0.2381,-0.2381 -0.2381,-0.77206 0,-1.01015 0.2381,-0.2381 0.7721,0.23809 1.0102,0 0.2381,-0.2381 -0.1506,-0.70899 0,-1.01016 0.2166,-0.4332 4.9145,-4.94861 5.0507,-5.05076 0.6024,-0.45175 1.3469,-0.67343 2.0203,-1.01015 2.0203,-1.01015 4.0406,-2.02031 6.061,-3.03046 14.6667,-7.333385 -9.5886,5.14702 9.0913,-6.060915 1.5549,-0.932924 3.3938,-1.283862 5.0508,-2.020305 15.9387,-7.083868 -5.9294,2.459631 7.0711,-4.04061 0.3011,-0.150585 0.7299,0.186777 1.0101,0 0.7924,-0.528286 1.2887,-1.410606 2.0203,-2.020305 1.2934,-1.077807 2.7473,-1.952651 4.0406,-3.030458 1.7395,-1.449551 3.4494,-3.449404 5.0508,-5.050762 0.6734,-0.673435 1.2279,-1.49202 2.0203,-2.020306 1.1545,-0.76964 3.8774,-1.785628 5.0508,-2.020305 1.3207,-0.264143 2.6937,0 4.0406,0 2.357,0 4.714,0 7.071,0 4.0406,0 8.0813,0 12.1219,0 1.6836,0 3.3774,-0.185921 5.0507,0 1.3799,0.153315 2.6938,0.673435 4.0406,1.010153 1.3469,0.336717 2.6938,0.673435 4.0406,1.010152 1.3469,0.336718 2.7407,0.522681 4.0407,1.010153 1.4099,0.528738 2.6565,1.427123 4.0406,2.020305 3.4048,1.459231 3.2265,0.738795 7.071,2.020305 16.5862,5.52872 -4.9896,-1.239759 9.0914,4.04061 1.2999,0.487473 2.7407,0.522681 4.0406,1.010153 4.105,1.53938 6.1857,3.711411 10.1015,6.060915 15.531,9.31856 -12.238,-8.832138 10.1016,6.060915 1.0101,0.673435 2.2532,1.087645 3.0304,2.020305 0.964,1.15682 1.0563,2.88379 2.0203,4.04061 0.7773,0.93266 2.0825,1.26189 3.0305,2.02031 0.7437,0.59494 1.3469,1.34687 2.0203,2.0203 1.0101,1.01015 2.0203,2.02031 3.0305,3.03046 0.6734,0.67343 1.4253,1.27662 2.0203,2.0203 1.9113,1.12048 1.8039,3.51762 3.0304,5.05077 0.8924,1.11552 2.1381,1.91493 3.0305,3.03045 0.4703,0.58794 0.4222,1.54996 1.0101,2.02031 1.1759,0.94069 2.8838,1.05628 4.0406,2.0203 0.9327,0.77722 1.0877,2.25324 2.0203,3.03046 1.6969,1.41401 5.8855,2.78648 8.0813,3.03046 4.0159,0.44621 8.0951,-0.33555 12.1218,0 1.711,0.14258 3.3389,0.87847 5.0508,1.01015 2.6858,0.2066 5.3874,0 8.0812,0 5.0507,0 10.1015,0 15.1523,0 2.357,0 4.714,0 7.071,0 2.3571,0 4.7222,0.19574 7.0711,0 1.711,-0.14258 3.3443,-0.82055 5.0508,-1.01015 1.3386,-0.14874 2.7041,0.16706 4.0406,0 1.3776,-0.1722 2.6937,-0.67344 4.0406,-1.01015 2.6937,-0.67344 5.3983,-1.30487 8.0812,-2.02031 1.1506,-0.30683 11.6678,-3.24195 13.132,-4.04061 1.8928,-1.03242 3.2568,-2.84465 5.0507,-4.04061 1.253,-0.83529 2.8648,-1.07961 4.0407,-2.0203 0.5879,-0.47035 0.5925,-1.39384 1.0101,-2.02031 7.4246,-9.89942 0.5145,-0.18399 4.0406,-6.06091 0.6246,-1.04105 1.2619,-2.08245 2.0203,-3.03046 0.595,-0.74369 1.5944,-1.16847 2.0203,-2.02031 0.3012,-0.60234 -0.185,-1.37278 0,-2.0203 0.4982,-1.74351 1.5222,-3.30725 2.0203,-5.050765 0.185,-0.647523 -0.074,-1.350989 0,-2.020305 2.2174,-19.95593 -0.1567,1.950509 2.0203,-11.111678 0.1108,-0.664272 -0.6023,-1.719135 0,-2.020305 1.2047,-0.602338 2.6938,0 4.0407,0 0.1834,0 6.6578,0.137727 7.071,0 0.4518,-0.150584 0.614,-0.746009 1.0102,-1.010152 0.6264,-0.417647 1.306,-0.772058 2.0203,-1.010153 1.3171,-0.439026 2.7235,-0.571126 4.0406,-1.010152 0.7143,-0.238096 1.2898,-0.827542 2.0203,-1.010153 0.6533,-0.163332 1.367,0.163332 2.0203,0 0.7304,-0.182611 1.2899,-0.827542 2.0203,-1.010152 0.6533,-0.163332 1.367,0.163332 2.0203,0 0.7305,-0.182611 1.282,-0.862493 2.0203,-1.010153 0.9905,-0.198107 2.0399,0.198107 3.0305,0 0.7383,-0.14766 1.282,-0.862492 2.0203,-1.010153 0.9905,-0.198107 2.0203,0 3.0304,0 3.0305,0 6.0609,0 9.0914,0 6.3976,0 12.7953,0 19.1929,0 23.9069,0 47.8139,0 71.7208,0 5.7242,0 11.4484,0 17.1726,0 2.0203,0 4.0406,0 6.0609,0 0.6735,0 1.367,0.163332 2.0203,0 0.7305,-0.18261 1.2899,-0.827541 2.0204,-1.010152 0.7681,-0.192047 4.2048,0 5.0507,0 0.3367,0 0.6907,0.106479 1.0102,0 0.7143,-0.238095 1.282,-0.862492 2.0203,-1.010153 1.6509,-0.330178 3.4174,0.40833 5.0507,0 0.7305,-0.18261 1.3469,-0.673435 2.0203,-1.010152"
       id="path3067"
       inkscape:connector-curvature="0"
       transform="translate(0,852.36218)" />
    <path
       style="fill:none;stroke:#000000;stroke-width:1px;stroke-linecap:butt;stroke-linejoin:miter;stroke-opacity:1"
       d="m 1675.8431,118.17764 c 2.2396,2.15032 1.5503,5.61429 3.0304,8.08122 -0.8643,4.68651 2.172,1.16184 3.0305,2.02031 0.5324,0.5324 0.4777,1.48791 1.0101,2.0203 0.2381,0.2381 0.7721,-0.23809 1.0102,0 0.2381,0.2381 0,0.67344 0,1.01016 0,0.89791 0.2381,1.60422 -1.0102,2.0203 -0.6388,0.21296 -1.3814,-0.21296 -2.0203,0 -0.4517,0.15059 -0.5584,0.85957 -1.0101,1.01015 -0.5431,0.18103 -3.1854,0 -4.0406,0 -0.3367,0 -0.8596,0.30117 -1.0102,0 -0.3011,-0.60233 0,-1.34687 0,-2.0203 0,-0.67344 0,-1.34687 0,-2.02031 0,-1.3981 -0.2229,-5.1691 0,-6.06091 0.1155,-0.46197 0.9319,-0.54044 1.0102,-1.01015 0.2768,-1.66068 -1.5632,-4.4255 0,-5.05077 1.8229,-0.72918 3.2946,2.15241 5.0507,3.03046 0.3012,0.15059 0.7721,-0.23809 1.0102,0 0.033,0.0325 0,2.78547 0,3.03046 0,0.33672 0,0.67343 0,1.01015 0,0.33672 0.2381,0.77206 0,1.01015 -0.2381,0.2381 -0.6734,0 -1.0102,0 -0.3367,0 -0.772,0.2381 -1.0101,0 -0.2381,-0.23809 0.1506,-0.70898 0,-1.01015 -1.2141,-2.4281 -4.0406,-4.35636 -4.0406,-7.07107 0,-0.24341 5.0436,-8.07767 7.071,-9.09137 0.6024,-0.30117 1.3469,0 2.0203,0 0.3368,0 0.6735,0 1.0102,0 0.3367,0 0.8596,-0.30117 1.0102,0 1.096,2.19215 1.0101,3.89646 1.0101,6.06092 0,1.01015 0,2.0203 0,3.03045 0,0.33672 0.3367,1.01016 0,1.01016 -0.3367,0 0,-0.67344 0,-1.01016"
       id="path3069"
       inkscape:connector-curvature="0"
       transform="translate(0,852.36218)" />
    <path
       style="fill:none;stroke:#000000;stroke-width:1px;stroke-linecap:butt;stroke-linejoin:miter;stroke-opacity:1"
       d="m 1770.7974,98.984745 c 0.3367,-1.34687 -0.3367,-4.377327 1.0102,-4.04061 1.3468,0.336718 -2.2519,4.661487 -1.0102,4.04061 1.7561,-0.878051 1.804,-3.517617 3.0305,-5.050762 0.072,-0.08939 2.9366,-0.09386 3.0304,0 0.2381,0.238095 0,0.673435 0,1.010152 0,0.488305 0.099,5.895925 0,6.060915 -2.2789,3.7982 -4.2854,3.15288 -8.0812,5.05076 -0.4259,0.21296 -0.6734,0.67344 -1.0101,1.01016 -1.0102,0.67343 -1.9146,1.54206 -3.0305,2.0203 -2.5476,1.09182 -3.0936,1.01015 -5.0508,1.01015 -0.6734,0 -1.4179,0.30117 -2.0203,0 -0.3011,-0.15058 0,-0.67343 0,-1.01015 0,-0.67343 0,-1.34687 0,-2.0203 0,-3.74243 -0.4433,-4.38576 2.0203,-8.081225 0.7771,-1.16556 2.2535,-1.864897 3.0305,-3.030457 1.5476,-2.321475 0.084,-2.020305 2.0203,-2.020305 0.3367,0 0.7721,-0.238096 1.0101,0 0.2381,0.238095 -0.238,0.772057 0,1.010152 1.5246,1.524554 4.8363,1.895266 5.0508,4.04061 0.2416,2.416055 -3.0545,3.842085 -4.0406,6.060915 -0.4103,0.92309 0,2.02031 0,3.03046 0,2.35702 0,4.71404 0,7.07107 0,0.33671 0.2381,0.77205 0,1.01015 -0.2381,0.23809 -0.6734,0 -1.0102,0 -0.3367,0 -0.8595,0.30117 -1.0101,0 -1.4185,-2.83697 -1.0102,-6.09261 -1.0102,-9.09137 0,-3.36718 0,-6.73435 0,-10.10153 0,-0.336717 0,-0.673435 0,-1.010152 0,-0.336718 -0.2381,-0.772057 0,-1.010153 0.2381,-0.238095 0.7178,-0.167058 1.0102,0 2.1082,1.204677 5.5847,1.659658 6.0609,4.04061 0.3367,1.683585 -3.3572,0.727892 -5.0508,1.010153 -0.3321,0.05535 -0.6734,0 -1.0101,0 -1.3469,0 -1.0102,0.336722 -1.0102,-1.010153 0,-1.683587 0,-3.367175 0,-5.050762 0,-0.673435 -0.3011,-1.417967 0,-2.020305 0.426,-0.851836 1.5304,-1.203646 2.0203,-2.020305 0.5479,-0.913054 0.2573,-2.277535 1.0102,-3.030458 0.4762,-0.476191 1.3469,0 2.0203,0 0.3367,0 0.6734,0 1.0102,0 0.3367,0 0.772,-0.238095 1.0101,0 0.2381,0.238095 0,0.673435 0,1.010152 0,0.673435 0,1.346871 0,2.020306 0,2.893983 0.3284,3.030457 -3.0304,3.030457 -0.6735,0 -1.418,0.301169 -2.0204,0 -0.3011,-0.150584 0,-0.673435 0,-1.010152 0,-0.336718 0,-0.673435 0,-1.010153"
       id="path3071"
       inkscape:connector-curvature="0"
       transform="translate(0,852.36218)" />
    <path
       style="fill:none;stroke:#000000;stroke-width:1px;stroke-linecap:butt;stroke-linejoin:miter;stroke-opacity:1"
       d="m 1881.9142,115.14719 c 0,-1.68359 -0.5324,-3.45358 0,-5.05077 0.2381,-0.71428 1.3938,-0.5925 2.0203,-1.01015 1.5152,-1.01015 1.0101,-2.0203 3.0305,-3.03046 1.2046,-0.60234 2.7628,0.42592 4.0406,0 0.4517,-0.15058 0.5842,-0.79719 1.0101,-1.01015 0.284,-0.14197 4.7668,-0.14197 5.0508,0 0.4259,0.21296 0.8595,0.5584 1.0101,1.01015 0.213,0.63888 -0.1107,1.35604 0,2.02031 1.2552,7.5309 1.0102,0.82577 1.0102,7.07107 0,0.67343 0.2129,1.38142 0,2.0203 -0.817,2.45105 -1.9859,4.51989 -4.0406,6.06092 -0.6024,0.45175 -1.3469,0.67343 -2.0203,1.01015 -4.643,2.32147 -2.5348,2.0203 -6.0609,2.0203 -0.6735,0 -1.3469,0 -2.0204,0 -1.0101,0 -2.2544,0.64669 -3.0304,0 -1.5083,-1.25692 -1.8893,-3.45309 -3.0305,-5.05076 -1.1071,-1.54997 -2.8977,-2.5168 -4.0406,-4.04061 -0.7837,-1.04502 -1.7656,-4.03215 -2.0203,-5.05076 -0.1381,-0.55263 -0.099,-2.93136 0,-3.03046 0.5324,-0.5324 1.3469,-0.67343 2.0203,-1.01015 0.6735,-0.33672 1.2777,-0.88637 2.0203,-1.01015 1.9928,-0.33214 4.0406,0 6.0609,0 0.6735,0 1.3469,0 2.0203,0 0.6735,0 1.5442,-0.47619 2.0204,0 0.7529,0.75292 0.8013,1.98634 1.0101,3.03045 0.033,0.16408 0.043,4.92024 0,5.05077 -0.8007,2.40208 -5.6757,0.46219 -6.0609,0 -1.0778,-1.29337 0,-3.36718 0,-5.05077 0,-0.33671 0,-0.67343 0,-1.01015 0,-0.33672 -0.2381,-0.77206 0,-1.01015 0.2381,-0.2381 0.6734,0 1.0101,0 0.6735,0 1.3469,0 2.0203,0 0.3368,0 0.7721,-0.2381 1.0102,0 0.2381,0.23809 0.1671,0.7178 0,1.01015 -1.2047,2.10819 -4.8084,3.75741 -4.0406,6.06092 0.6209,1.86263 3.1629,-2.49108 5.0508,-3.03046 0.7239,-0.20685 1.4879,0.47775 2.0203,1.01015 0.2381,0.2381 0,0.67344 0,1.01015 0,1.68359 0,3.36718 0,5.05077"
       id="path3073"
       inkscape:connector-curvature="0"
       transform="translate(0,852.36218)" />
    <path
       style="fill:none;stroke:#000000;stroke-width:1px;stroke-linecap:butt;stroke-linejoin:miter;stroke-opacity:1"
       d="m 2018.2848,101.00505 c 4.6429,-3.482211 2.5347,-2.277534 6.0609,-4.04061 0.6734,-0.336717 1.2899,-0.827541 2.0203,-1.010152 0.6533,-0.163332 1.3469,0 2.0203,0 1.0102,0 2.0203,0 3.0305,0 0.3367,0 0.8595,-0.301169 1.0101,0 0.079,0.158048 0,4.768352 0,5.050762 0,0.67344 0,1.34687 0,2.02031 0,0.67343 0.3012,1.41796 0,2.0203 -0.4259,0.85184 -1.3468,1.34687 -2.0203,2.02031 -0.6734,0.67343 -1.1685,1.59438 -2.0203,2.0203 -3.5435,1.77175 -5.2358,0.58176 -9.0914,1.01015 -13.5013,1.50015 8.2629,1.01016 -10.1015,1.01016 -3.3218,0 -9.1812,0.83052 -11.1117,-3.03046 -0.6208,-1.24175 -0.7819,-2.67118 -1.0101,-4.04061 -0.1107,-0.66427 0,-1.34687 0,-2.02031 0,-4.313423 -0.2749,-7.51222 4.0406,-10.101522 0.5775,-0.34648 1.4049,0.273508 2.0203,0 2.4807,-1.102546 4.4957,-3.182146 7.0711,-4.040611 1.5972,-0.532397 3.3671,0 5.0507,0 0.3367,0 0.7472,-0.210345 1.0102,0 5.4838,4.387034 3.2423,2.655747 5.0507,8.081221 2.5206,7.561562 2.0203,2.301386 2.0203,9.091372 0,0.67344 0.3465,1.44284 0,2.02031 -0.9992,1.66537 -3.1038,3.39164 -5.0507,4.04061 -0.3195,0.10648 -0.6734,0 -1.0102,0 -1.0101,0 -2.0203,0 -3.0304,0 -0.6735,0 -1.46,0.37355 -2.0203,0 -0.6265,-0.41765 -0.7721,-1.30602 -1.0102,-2.02031 -1.1735,-3.52045 -1.0101,-3.22151 -1.0101,-6.06091 0,-1.34687 -0.426,-2.76286 0,-4.040615 0.617,-1.851059 5.0708,-3.545575 6.0609,-4.04061 0.6734,-0.336717 1.2898,-0.827542 2.0203,-1.010152 0.9157,-0.228938 3.8773,0 5.0507,0 0.3368,0 0.9037,-0.319439 1.0102,0 0.3194,0.958315 0,2.020305 0,3.030457 0,0.336718 0,0.673435 0,1.010153 0,0.336717 0.1506,0.708983 0,1.010152 -0.213,0.425918 -0.7972,0.584235 -1.0102,1.010153 -0.1505,0.301172 0,0.673432 0,1.010152 0,0.67344 0.213,1.38143 0,2.02031 -0.1505,0.45175 -0.568,1.187 -1.0101,1.01015 -1.5632,-0.62527 -2.6937,-2.02031 -4.0406,-3.03046 z"
       id="path3075"
       inkscape:connector-curvature="0"
       transform="translate(0,852.36218)" />
    <path
       style="fill:none;stroke:#000000;stroke-width:1px;stroke-linecap:butt;stroke-linejoin:miter;stroke-opacity:1"
       d="m 2156.6757,115.14719 c 2.7552,-0.3444 5.326,-1.67591 8.0812,-2.02031 1.3365,-0.16706 2.6937,0 4.0406,0 2.6938,-0.33672 5.3981,-0.59736 8.0812,-1.01015 7.4245,-1.14223 2.6618,-1.01015 7.0711,-1.01015 0.3367,0 0.7721,-0.2381 1.0102,0 0.2381,0.23809 0,0.67343 0,1.01015 0,0.33672 0.2381,0.77206 0,1.01015 -2.0175,2.01742 -5.6697,3.076 -8.0813,4.04061 -7.6924,3.07699 -2.2559,1.16625 -9.0913,3.03046 -2.365,0.64499 -4.6531,1.61731 -7.0711,2.0203 -1.6607,0.27678 -3.3755,-0.16752 -5.0508,0 -13.4033,1.34034 3.2377,1.01016 -10.1015,1.01016 -3.0692,0 -7.1136,0.83988 -8.0812,-3.03046 -0.1633,-0.65333 0,-1.34687 0,-2.02031 0,-1.83492 -0.3012,-2.46702 1.0101,-4.04061 1.2194,-1.46327 2.4558,-2.98403 4.0406,-4.04061 4.496,-2.99729 11.0114,-3.03045 16.1625,-3.03045 1.3469,0 2.6937,0 4.0406,0 0.6734,0 1.3814,-0.21296 2.0203,0 0.4518,0.15058 0.7972,0.58423 1.0102,1.01015 0.4761,0.95238 0.8013,1.98634 1.0101,3.03046 0.1273,0.63657 0.1588,3.80681 -1.0101,4.04061 -2.9717,0.59432 -6.1715,-0.81109 -9.0914,0 -3.3403,0.92784 -5.9354,3.61622 -9.0914,5.05076 -0.6131,0.27867 -1.3469,0 -2.0203,0 -0.6734,0 -1.3469,0 -2.0203,0 -0.6734,0 -1.418,0.30117 -2.0203,0 -0.3012,-0.15059 0,-0.67344 0,-1.01015 0,-0.67344 0,-1.34687 0,-2.02031 0,-0.33672 -0.2381,-0.77206 0,-1.01015 0.5324,-0.5324 1.306,-0.77206 2.0203,-1.01015 0.5014,-0.16714 2.9444,-0.086 3.0305,0 0.2381,0.23809 0.2381,0.77205 0,1.01015 -0.2381,0.23809 -0.6735,0 -1.0102,0 -0.3367,0 -0.7721,0.23809 -1.0101,0 -0.6735,-0.67344 0.7142,-1.92168 1.0101,-2.02031 0.6389,-0.21296 1.3469,0 2.0203,0 0.5196,0 4.0406,-0.55523 4.0406,1.01016 0,0.33671 -0.6734,0 -1.0101,0 -0.6735,0 -1.3469,0 -2.0203,0 -1.0102,0 -2.0203,0 -3.0305,0 -0.3367,0 -0.7721,0.23809 -1.0101,0 -0.2381,-0.2381 0,-0.67344 0,-1.01016 0,-0.67343 -0.3012,-1.41796 0,-2.0203 0.575,-1.15003 2.7319,-2.7033 4.0406,-3.03046 0.6533,-0.16333 1.3669,0.16333 2.0203,0 4.6429,-1.16074 0.2292,-1.01015 3.0304,-1.01015 0.3367,0 1.3469,0 1.0102,0 -0.6735,0 -1.3469,0 -2.0203,0"
       id="path3077"
       inkscape:connector-curvature="0"
       transform="translate(0,852.36218)" />
    <path
       style="fill:none;stroke:#000000;stroke-width:1px;stroke-linecap:butt;stroke-linejoin:miter;stroke-opacity:1"
       d="m 1676.8532,41.40605 c 0.3367,-1.34687 0.3893,-2.798857 1.0102,-4.04061 0.4259,-0.851835 1.3468,-1.34687 2.0203,-2.020305 1.0101,-1.010152 2.0203,-2.020305 3.0304,-3.030458 1.735,-1.734962 4.2704,-4.628503 6.061,-6.060915 0.5879,-0.470347 1.4076,-0.572525 2.0203,-1.010152 14.1605,-11.328396 -3.6976,2.588309 10.1015,-7.071068 1.7663,-1.23641 3.2844,-2.8042 5.0507,-4.04061 1.6085,-1.125927 3.4531,-1.889264 5.0508,-3.030458 0.775,-0.55356 1.3469,-1.34687 2.0203,-2.0203051 1.3469,-1.34687 2.5773,-2.8212113 4.0406,-4.0406102 0.5784,-0.4820097 1.3469,-0.673435 2.0203,-1.0101525"
       id="path3079"
       inkscape:connector-curvature="0"
       transform="translate(0,852.36218)" />
    <path
       style="fill:none;stroke:#000000;stroke-width:1px;stroke-linecap:butt;stroke-linejoin:miter;stroke-opacity:1"
       d="m 1717.2593,38.375593 c 2.2327,-1.788047 5.2694,-3.658649 7.0711,-6.060916 1.5757,-2.100898 0.2548,-1.70631 2.0203,-3.030457 0.9712,-0.728432 2.0592,-1.291874 3.0305,-2.020305 0.8459,-0.634447 2.2038,-2.617143 3.0304,-3.030458 0.3012,-0.150585 0.7721,0.238095 1.0102,0 0.2381,-0.238095 -0.2381,-0.772057 0,-1.010152 0.2381,-0.238096 0.772,0.238095 1.0101,0 0.2381,-0.238096 -0.2381,-0.772058 0,-1.010153 0.2381,-0.238095 0.7721,0.238095 1.0102,0 3.7262,-3.726193 -2.4191,-0.407608 3.0304,-4.04061 0.2802,-0.186777 0.6735,0 1.0102,0 0.6734,-0.673435 1.4489,-1.2584 2.0203,-2.020305 0.4517,-0.602339 0.4777,-1.487908 1.0101,-2.020305 0.2381,-0.238096 0.709,0.150584 1.0102,0 0.4259,-0.212959 0.5842,-0.797194 1.0101,-1.010153 0.3012,-0.150585 0.7721,0.238095 1.0102,0 0.2381,-0.238095 -0.1506,-0.708983 0,-1.010152 2.102,-4.2040134 -0.07,1.079889 2.0203,-1.010153 0.2381,-0.238095 -0.2381,-0.772057 0,-1.010153 0.2381,-0.2380948 0.7721,0.238096 1.0102,0 0.2381,-0.2380948 -0.2381,-0.7720568 0,-1.0101521 0.2381,-0.2380952 0.772,0.2380953 1.0101,0 0.2381,-0.2380952 -0.2381,-0.7720573 0,-1.0101525 0.2381,-0.2380953 0.7721,0.2380952 1.0102,0 0,-2.6937401 -0.3368,0.3367175 1.0101,-1.0101526 0,-1.486343 -0.2381,-0.7720573 1.0102,-2.0203051"
       id="path3081"
       inkscape:connector-curvature="0"
       transform="translate(0,852.36218)" />
    <path
       style="fill:none;stroke:#000000;stroke-width:1px;stroke-linecap:butt;stroke-linejoin:miter;stroke-opacity:1"
       d="m 1775.8482,34.334983 c 1.6836,-0.336718 3.4659,-0.349796 5.0507,-1.010153 8.2941,-3.45584 14.8309,-10.23596 21.2132,-16.162441 2.4427,-2.26817 4.7141,-4.714045 7.0711,-7.071068 0.03,-0.03028 3.8366,-3.6325972 4.0406,-4.0406097 0.1506,-0.3011693 -0.1506,-0.7089833 0,-1.0101526 0.2698,-0.5395061 2.4987,-2.4986482 3.0305,-3.0304576 0.3367,-0.3367175 0.6734,-0.673435 1.0101,-1.01015253 0.3367,-0.33671752 0.5843,-0.79719369 1.0102,-1.01015255 1.3469,-0.67343503 1.0101,1.01015255 1.0101,-1.01015252"
       id="path3083"
       inkscape:connector-curvature="0"
       transform="translate(0,852.36218)" />
    <path
       style="fill:none;stroke:#000000;stroke-width:1px;stroke-linecap:butt;stroke-linejoin:miter;stroke-opacity:1"
       d="m 1829.3863,9.0811689 c 5.4842,7.3123301 0.138,1.4388681 7.071,6.0609151 0.7925,0.528286 1.2584,1.448877 2.0203,2.020305 0.6024,0.451754 1.4879,0.477756 2.0203,1.010153 0.5324,0.532397 0.4778,1.487908 1.0102,2.020305 0.2381,0.238095 0.772,-0.238095 1.0101,0 0.5324,0.532397 0.5925,1.393835 1.0102,2.020305 0.2854,0.428166 2.6125,2.821482 3.0305,3.030458 0.9523,0.47619 2.1174,0.46232 3.0304,1.010152 1.225,0.734994 2.0203,2.020305 3.0305,3.030458 0.5318,0.531809 2.7607,2.490951 3.0304,3.030457 0.1506,0.30117 -0.1506,0.708984 0,1.010153 0.4259,0.851835 1.5944,1.16847 2.0203,2.020305 0.1506,0.301169 -0.2381,0.772057 0,1.010153 0.2381,0.238095 0.7721,-0.238096 1.0102,0 0.2381,0.238095 0.3367,1.010152 0,1.010152 -0.3367,0 0,-0.673435 0,-1.010152 0,-0.336718 0,-0.673435 0,-1.010153 0,-3.007054 -0.3012,-2.578704 2.0203,-6.060915 0.5283,-0.792429 1.4489,-1.2584 2.0203,-2.020305 0.4517,-0.602339 0.6734,-1.34687 1.0101,-2.020305 1.3469,-1.34687 2.6938,-2.69374 4.0407,-4.040611 1.0101,-1.010152 2.0203,-2.020305 3.0304,-3.030457 2.0203,-2.020305 4.0406,-4.04061 6.0609,-6.060915 0.3367,-0.336718 0.6735,-0.673435 1.0102,-1.010153 0.3367,-0.336717 0.5842,-0.797194 1.0101,-1.010153 0.6024,-0.3011688 1.3815,0.212959 2.0203,0 0.7143,-0.2380948 1.3061,-0.7720568 2.0203,-1.0101521 0.3195,-0.1064794 0.709,0.1505847 1.0102,0 0.4259,-0.2129588 0.5842,-0.7971937 1.0101,-1.0101525 0.3012,-0.1505847 0.6735,0 1.0102,0 0.3367,0 0.7721,-0.2380953 1.0102,0 0.238,0.2380952 -0.2381,0.7720573 0,1.0101525 2.09,2.0900411 -0.082,-3.1938603 2.0203,1.0101521 0.1505,0.30117 -0.1065,0.690715 0,1.010153 0.4762,1.428571 1.461,2.642467 2.0203,4.04061 0.3954,0.988637 0.4623,2.117404 1.0101,3.030458 0.49,0.81666 1.492,1.227876 2.0203,2.020305 0.1868,0.280166 0,0.673435 0,1.010152 1.6836,1.346871 3.5262,2.516057 5.0508,4.040611 0.5324,0.532397 0.3837,1.602658 1.0101,2.020305 0.5604,0.373554 1.4429,-0.34648 2.0203,0 13.3115,7.986897 -5.4266,-0.554413 6.061,4.04061 0.699,0.279629 1.2673,1.010152 2.0203,1.010152 0.4762,0 0.5842,-0.797193 1.0101,-1.010152 0.3012,-0.150585 0.73,0.186777 1.0102,0 2.0906,-1.393728 2.4967,-3.12094 4.0406,-5.050763 2.7229,-3.403626 6.6551,-3.763299 10.1015,-6.060915 0.7924,-0.528286 1.2584,-1.448877 2.0203,-2.020305 0.6734,-0.336718 1.3469,-0.673435 2.0203,-1.010153 0.3367,0 0.709,0.150585 1.0102,0 0.8518,-0.425917 1.1684,-1.594387 2.0203,-2.020305 0.3011,-0.150584 0.772,0.238095 1.0101,0 0.2381,-0.238095 -0.3011,-0.859568 0,-1.010152 0.6024,-0.30117 1.3815,0.212959 2.0203,0 0.4518,-0.150585 0.5843,-0.797194 1.0102,-1.010153 0.8081,-0.404061 2.2223,0.404061 3.0304,0 0.426,-0.212959 0.6735,-0.673435 1.0102,-1.010152"
       id="path3085"
       inkscape:connector-curvature="0"
       transform="translate(0,852.36218)" />
    <path
       style="fill:none;stroke:#000000;stroke-width:1px;stroke-linecap:butt;stroke-linejoin:miter;stroke-opacity:1"
       d="m 1959.6959,33.32483 c 2.0203,0 4.0681,0.332136 6.061,0 2.1006,-0.350102 3.9786,-1.574094 6.0609,-2.020305 2.6544,-0.568809 5.4247,-0.450895 8.0812,-1.010153 3.7568,-0.790909 7.3746,-2.151136 11.1117,-3.030457 1.9937,-0.469112 4.0439,-0.65421 6.0609,-1.010153 3.7073,-0.654235 7.4202,-1.282003 11.1117,-2.020305 1.3613,-0.272272 2.657,-0.894859 4.0406,-1.010152 2.6844,-0.223703 5.3875,0 8.0812,0 3.0304,0 6.0609,0 9.0914,0 1.6836,0 3.3774,-0.185922 5.0507,0 4.6485,0.516493 5.4777,1.504784 8.0812,6.060915 0.3342,0.584705 -0.1204,1.357732 0,2.020305 0.5554,3.054308 1.51,6.029229 2.0204,9.091373 0.166,0.996408 0,2.020305 0,3.030457 0,6.405519 0.1904,11.181939 -2.0204,18.182746 -0.6492,2.055967 -2.516,3.52621 -4.0406,5.050763 -1.5245,1.524553 -3.1579,3.008184 -5.0507,4.04061 -5.1938,2.832968 -12.4199,3.030458 -18.1828,3.030458 -3.0304,0 -6.0609,0 -9.0913,0 -0.3368,0 -0.6735,0 -1.0102,0 -0.3367,0 -0.7721,0.238095 -1.0102,0 -0.094,-0.09386 -0.089,-2.958943 0,-3.030458 3.4829,-2.786251 6.1119,-3.388412 10.1016,-5.050763 2.3671,-0.986293 4.7576,-1.924048 7.071,-3.030457 11.5925,-5.54421 18.4233,-9.821641 30.3046,-14.142136 2.6095,-0.948899 5.4059,-1.277153 8.0812,-2.020305 3.3872,-0.940884 6.7493,-1.97185 10.1016,-3.030458 3.0461,-0.961928 6.0135,-2.1755 9.0913,-3.030457 2.9912,-0.830869 6.0797,-1.267382 9.0914,-2.020305 17.6658,-4.416448 -7.0457,0.601029 21.2132,-5.050763 3.6915,-0.738302 7.4407,-1.185987 11.1117,-2.020305 3.7437,-0.850841 7.3549,-2.239548 11.1117,-3.030458 2.6564,-0.559257 5.3981,-0.597362 8.0812,-1.010152 3.1421,-0.149352 6.0292,-1.509948 9.0914,-2.020305 0.6642,-0.110712 1.3669,0.163332 2.0203,0 0.7304,-0.182611 1.306,-0.772058 2.0203,-1.010153 0.3194,-0.106479 0.709,0.150585 1.0101,0 2.4965,-1.248248 -0.3487,-1.010152 2.0203,-1.010152"
       id="path3087"
       inkscape:connector-curvature="0"
       transform="translate(0,852.36218)" />
    <path
       style="fill:none;stroke:#000000;stroke-width:1px;stroke-linecap:butt;stroke-linejoin:miter;stroke-opacity:1"
       d="m 2008.1833,41.40605 c 7.6483,-7.104937 -6.8069,3.90851 -5.0508,3.030458 1.7561,-0.878052 3.0874,-3.030458 5.0508,-3.030458 1.9633,0 3.346,2.056347 5.0507,3.030458 0.9104,2.005483 2.7989,0.389276 4.0406,1.010153 0.3012,0.150584 -0.1064,0.690714 0,1.010152 0.2381,0.714286 1.0102,1.267382 1.0102,2.020305 0,0.336718 -0.6734,0 -1.0102,0 -0.6734,0 -1.3468,0 -2.0203,0 -2.0203,0 -4.0406,0 -6.0609,0 -0.6734,0 -1.367,0.163332 -2.0203,0 -0.7304,-0.182611 -1.4879,-0.477755 -2.0203,-1.010152 -0.5494,-0.54943 3.0305,-14.856269 3.0305,-6.060916 0,12.795266 -6.1732,5.050763 -1.0102,5.050763 0.4762,0 -0.6734,0.673435 -1.0101,1.010153 -0.3368,0.336717 -0.5584,0.859568 -1.0102,1.010152 -0.5431,0.181022 -3.1854,0 -4.0406,0 -0.3367,0 -0.7721,0.238095 -1.0102,0 -0.2381,-0.238095 0,-0.673435 0,-1.010152 0,-0.336718 0,-0.673435 0,-1.010153 0,-0.673435 0,-1.34687 0,-2.020305 0,-0.336717 -0.2381,-0.772057 0,-1.010153 0.2381,-0.238095 0.6735,0 1.0102,0 0.3367,0 0.772,-0.238095 1.0101,0 0.2381,0.238096 0.2381,0.772058 0,1.010153 -2.09,2.090042 0.082,-3.19386 -2.0203,1.010153 -0.274,0.547995 0.2764,3.76421 0,4.04061 -0.2381,0.238095 -0.6734,0 -1.0101,0 -0.3367,0 -0.6734,0 -1.0102,0 -2.6937,0 -5.3874,0 -8.0812,0"
       id="path3089"
       inkscape:connector-curvature="0"
       transform="translate(0,852.36218)" />
    <path
       style="fill:none;stroke:#000000;stroke-width:1px;stroke-linecap:butt;stroke-linejoin:miter;stroke-opacity:1"
       d="m 2093.0361,57.568491 c 6.6029,0 11.3309,0.213395 18.1827,-1.010152 5.789,-1.033741 11.4063,-2.887346 17.1726,-4.040611 2.662,-0.532397 5.4103,-0.524531 8.0812,-1.010152 4.7433,-0.862418 9.4147,-2.08497 14.1422,-3.030458 3.6915,-0.738302 7.3908,-1.447868 11.1116,-2.020305 0.6657,-0.102401 1.3614,0.138735 2.0204,0 5.7543,-1.211448 11.3959,-2.940294 17.1725,-4.04061 1.4551,-0.277161 6,0 8.0813,0"
       id="path3091"
       inkscape:connector-curvature="0"
       transform="translate(0,852.36218)" />
    <path
       style="fill:none;stroke:#000000;stroke-width:1px;stroke-linecap:butt;stroke-linejoin:miter;stroke-opacity:1"
       d="m 2177.8889,13.121779 c 14.2274,1.422739 9.3578,0.249419 26.264,6.060915 5.4413,1.870455 10.6512,4.407564 16.1624,6.060916 1.2901,0.38702 2.7121,-0.221424 4.0406,0 2.7389,0.456477 5.3707,1.417966 8.0812,2.020305 0.3287,0.07304 0.6835,-0.08167 1.0102,0 1.033,0.25825 2.0781,0.533962 3.0304,1.010152 2.4965,1.248248 -0.3486,1.010153 2.0203,1.010153 0.3368,0 0.6908,0.106479 1.0102,0 0.7143,-0.238095 1.3212,-0.730524 2.0203,-1.010153 4.9523,-1.980926 12.1472,-4.531438 17.1726,-6.060915 4.6903,-1.427473 9.4339,-2.673693 14.1421,-4.04061 10.7968,-3.134538 25.5083,-7.726515 36.3655,-10.1015256 4.3265,-0.9464266 8.7634,-1.2922104 13.132,-2.0203051 1.6936,-0.2822614 3.3572,-0.7278911 5.0508,-1.0101526 2.3485,-0.3914261 4.7285,-0.5842348 7.071,-1.0101525 6.4542,-1.1734845 1.7985,-1.0101525 6.0609,-1.0101525 0.3368,0 0.7721,-0.2380953 1.0102,0 0.2381,0.2380952 0,0.673435 0,1.0101525 0,2.0203051 -0.2857,4.0609153 0,6.0609148 0.3927,2.748738 1.2575,5.411411 2.0203,8.081221 1.9315,6.760348 3.609,13.613568 6.0609,20.203051 7.9548,21.378393 12.823,28.093247 24.2437,48.487322 16.7505,29.911685 8.3807,18.023385 25.2538,39.395945 1.336,1.69225 2.5161,3.52621 4.0406,5.05077 1.5246,1.52455 3.4554,2.59029 5.0508,4.04061 2.1141,1.92192 4.0406,4.04061 6.0609,6.06091 0.6734,0.67344 1.2279,1.49202 2.0203,2.02031 0.2802,0.18677 0.6734,0 1.0101,0 0.3368,0 0.6735,0 1.0102,0 3.6587,0 6.8594,-2.74378 10.1015,-4.04061 3.6593,-1.46372 7.3952,-2.72891 11.1117,-4.04061 2.0082,-0.70877 4.1035,-1.18142 6.0609,-2.02031 4.2161,-1.80689 15.1176,-7.6932 18.1828,-10.10152 6.3764,-5.01006 12.1648,-10.72694 18.1827,-16.16244 12.5532,-11.338366 21.7338,-19.949006 33.335,-33.335038 6.7505,-7.788945 12.6337,-16.293058 19.1929,-24.243661 4.5557,-5.52204 9.6702,-10.572426 14.1422,-16.162441 2.3669,-2.958626 6.7654,-10.154885 9.0913,-14.142136 2.3024,-3.94691 4.7944,-7.688896 6.061,-12.1218302 0.2775,-0.9712858 0,-2.0203051 0,-3.0304576 0,-0.3367175 0.3011,-0.8595679 0,-1.0101525 -0.6024,-0.3011693 -1.3537,0.095238 -2.0203,0 -10.3069,-1.4724028 0.7088,-1.0101526 -12.1219,-1.0101526 -13.3902,0 -14.4238,-0.5785239 -28.2842,2.0203051 -5.7798,1.0837122 -11.4322,2.7649466 -17.1726,4.0406102 -3.3521,0.7449084 -6.8125,1.0335931 -10.1016,2.0203046 -7.798,3.119228 -11.3025,4.750359 -19.1929,7.071068 -6.6055,1.942795 -9.1895,1.572517 -15.1523,5.050763 -1.8623,1.086368 -3.2568,2.844652 -5.0507,4.04061 -1.253,0.835294 -2.7399,1.261553 -4.0406,2.020305 -17.6538,11.033592 -1.3075,1.172352 -12.1219,7.071068 -2.3832,1.299942 -4.7261,2.67275 -7.071,4.04061 -1.696,0.989292 -3.2947,2.152406 -5.0508,3.030458 -3.639,1.819521 -7.4438,3.290165 -11.1117,5.050763 -4.7514,2.280693 -9.379,4.814854 -14.1421,7.071067 -1.6387,0.776241 -3.4564,1.156671 -5.0508,2.020306 -6.5001,3.520906 -12.7613,7.4671 -19.1929,11.111678 -29.3186,16.61387 8.6876,-5.127858 -24.2436,12.12183 -2.8139,1.473959 -5.24,3.63015 -8.0812,5.050763 -3.2437,1.621846 -6.7344,2.69374 -10.1016,4.04061 -1.6836,0.673435 -3.3841,1.306019 -5.0507,2.020305 -0.6921,0.296591 -1.2899,0.827542 -2.0203,1.010153 -3.3287,0.832165 -0.9557,-1.06462 -3.0305,1.010152"
       id="path3093"
       inkscape:connector-curvature="0"
       transform="translate(0,852.36218)" />
    <path
       style="fill:none;stroke:#000000;stroke-width:1px;stroke-linecap:butt;stroke-linejoin:miter;stroke-opacity:1"
       d="m 2446.5895,69.690322 c 4.714,0 9.4281,0 14.1421,0 1.2389,0 5.0356,-0.527751 6.0609,1.010152 0.3736,0.560332 0,1.34687 0,2.020305 0,0.673435 0.213,1.381429 0,2.020305 -0.1506,0.451754 -0.8596,0.558399 -1.0101,1.010153 -0.213,0.638876 0.2129,1.381428 0,2.020305 -0.1506,0.451754 -0.8947,0.54818 -1.0102,1.010153 -0.2658,1.063111 0,4.610928 0,6.060915 0,0.336717 0.2381,0.772057 0,1.010152 -0.2381,0.238096 -0.772,-0.238095 -1.0101,0 -0.2381,0.238096 0.1505,0.708984 0,1.010153 -0.213,0.425918 -0.7972,0.584235 -1.0102,1.010152 -0.298,0.596011 0.2316,2.335643 0,3.030458 -2.439,7.316956 0.2912,-1.592614 -2.0203,3.030458 -0.3012,0.602338 0.213,1.381428 0,2.020305 -0.616,1.848068 -1.7301,2.740293 -3.0305,4.04061 -0.3367,0.336722 -0.7972,0.584232 -1.0101,1.010152 -0.3012,0.60234 0.4762,1.54412 0,2.02031 -0.2381,0.23809 -0.8234,-0.28017 -1.0102,0 -0.5906,0.88596 -0.6147,2.04182 -1.0101,3.03045 -0.8154,2.03852 -0.7356,1.74577 -2.0203,3.03046 -0.3367,0.33672 -0.7972,0.58424 -1.0102,1.01015 -1.6427,3.28548 -0.255,2.40283 -2.0203,5.05077 -0.2641,0.39621 -0.7127,0.63831 -1.0101,1.01015 -1.0518,1.31466 -1.9788,2.72595 -3.0305,4.04061 0.1008,2.00117 -1.4879,0.47775 -2.0203,1.01015 -0.5324,0.5324 -0.7721,1.30602 -1.0101,2.02031 -0.1672,0.50139 -0.086,2.94443 0,3.03045 0.238,0.2381 0.7089,-0.15058 1.0101,0 0.4259,0.21296 0.5842,0.7972 1.0102,1.01016 0.3011,0.15058 0.772,-0.2381 1.0101,0 0.2381,0.23809 -0.3012,0.85956 0,1.01015 0.6024,0.30117 1.367,-0.16333 2.0203,0 0.7305,0.18261 1.3469,0.67343 2.0203,1.01015"
       id="path3095"
       inkscape:connector-curvature="0"
       transform="translate(0,852.36218)" />
    <path
       style="fill:none;stroke:#000000;stroke-width:1px;stroke-linecap:butt;stroke-linejoin:miter;stroke-opacity:1"
       d="m 2565.7875,104.03551 c 0.01,-7.332335 -0.9856,-8.130301 2.0203,-14.142137 0.5429,-1.085882 1.4179,-1.976366 2.0203,-3.030458 0.7471,-1.307441 1.0563,-2.883787 2.0203,-4.04061 0.7772,-0.932661 2.172,-1.161841 3.0304,-2.020305 1.5246,-1.524554 2.3843,-3.670497 4.0406,-5.050763 0.5174,-0.431123 1.3728,0.185007 2.0204,0 1.7435,-0.498146 3.2916,-1.58052 5.0507,-2.020305 0.98,-0.244998 2.0203,0 3.0305,0 4.5403,0 7.4279,-0.326664 12.1218,2.020305 3.6762,1.83812 6.8134,4.604971 10.1015,7.071068 3.4497,2.587253 6.9109,5.180596 10.1016,8.08122 0.5571,0.506471 0.6445,1.362132 1.0101,2.020305 2.9408,5.293343 5.7656,9.06028 7.0711,15.15229 0.4233,1.97546 0,4.04061 0,6.06091 0,1.68359 0,3.36718 0,5.05077 0,0.67343 0.3011,1.41796 0,2.0203 -0.1506,0.30117 -0.6735,0 -1.0102,0 -1.1066,0 -3.6463,0.56693 -4.0406,-1.01015 -0.245,-0.97999 0.084,-2.0238 0,-3.03046 -0.2532,-3.03857 -0.7067,-6.0574 -1.0101,-9.09137 -1.0722,-10.721488 0,-21.549923 0,-32.324883 0,-19.861581 -1.3756,-4.276804 2.0203,-16.162441 0.8528,-2.984938 0.9471,-6.178397 2.0203,-9.091373 2.1306,-5.783204 4.909,-11.517556 10.1015,-15.152288 2.1711,-1.519803 7.5087,-2.742369 10.1015,-3.030458 1.3387,-0.148736 2.6938,0 4.0406,0 9.2175,0 10.5449,-1.289903 19.1929,6.060916 9.0558,7.697436 10.8345,14.228309 14.1422,25.253813 4.6939,15.646461 4.0406,12.127083 4.0406,24.243661 0,5.387481 0.947,10.858857 0,16.162443 -1.7122,9.58815 -7.3807,15.81779 -14.1422,22.22335 -3.1303,2.96562 -6.4221,5.83269 -10.1015,8.08122 -2.4548,1.50017 -5.3817,2.0359 -8.0812,3.03046 -3.6982,1.36249 -7.3003,3.03761 -11.1117,4.04061 -1.8278,0.48101 -13.8264,2.33606 -16.1624,0 -3.806,-3.80596 -5.4814,-8.92588 -6.0609,-14.14213 -0.3719,-3.34658 0,-6.73435 0,-10.10153 0,-3.03046 0,-6.06091 0,-9.09137 0,-2.69374 -0.617,-5.45909 0,-8.081222 0.7595,-3.228127 2.201,-6.332059 4.0406,-9.091373 3.7787,-5.668082 10.0199,-8.808239 16.1624,-11.111678 12.1077,-4.540365 11.8492,-3.56874 22.2234,-5.050763 6.7412,-0.963035 13.4197,-2.431928 20.203,-3.030457 4.6958,-0.414336 9.4281,0 14.1422,0 4.0406,0 8.0812,0 12.1218,0 5.0507,0 10.2752,-1.313065 15.1523,0 4.2393,1.141351 7.6993,4.308724 11.1117,7.071068 8.194,6.633275 11.5844,10.688725 15.1522,20.20305 2.1828,5.820725 5.3844,18.487795 6.061,25.253815 0.3015,3.01542 0,6.06091 0,9.09137 0,2.69374 0,5.38748 0,8.08122 0,1.80749 0.7142,4.36712 -2.0204,5.05077 -1.9599,0.48999 -4.0445,-0.12603 -6.0609,0 -23.6674,1.47921 5.6462,1.01015 -24.2436,1.01015 -4.7141,0 -9.4755,0.66666 -14.1422,0 -9.1962,-1.31375 -21.144,-6.27985 -28.2842,-12.12183 -3.3374,-2.73058 -6.6167,-6.04578 -8.0813,-10.10153 -6.2589,-17.33244 -5.0507,-28.266794 -5.0507,-45.456863 0,-9.091373 -1.3323,-18.280901 0,-27.274119 2.8306,-19.106845 10.9467,-34.805922 21.2132,-50.5076269 4.7039,-7.19424 7.908,-13.7247561 15.1523,-18.1827461 2.1839,-1.343976 4.6776,-2.109904 7.071,-3.030457 1.9877,-0.764478 3.9387,-1.843453 6.061,-2.020305 6.0399,-0.503332 12.1218,0 18.1827,0 4.2444,0 17.3636,-0.949576 22.2234,2.020305 3.6569,2.234785 5.9705,6.154095 9.0913,9.091373 5.4162,5.0975339 10.0895,7.8380482 14.1422,14.1421352 1.3867,2.157088 2.1099,4.6776298 3.0304,7.0710678 2.4475,6.36356 5.198,12.637218 7.0711,19.192898 0.8376,2.93179 0.8004,6.049492 1.0101,9.091373 0.464,6.726785 0.7695,13.464584 1.0102,20.203051 0.2043,5.720551 0,11.448396 0,17.172593 0,1.010153 0.4518,2.12695 0,3.030458 -0.2808,0.561642 -5.5986,7.239788 -7.0711,8.08122 -1.2054,0.688801 -2.7235,0.571127 -4.0406,1.010153 -1.7202,0.573409 -3.2621,1.722204 -5.0507,2.020305 -2.325,0.387492 -4.7141,0 -7.0711,0 -3.0305,0 -6.0609,0 -9.0914,0 -0.6037,0 -2.0203,0.238095 -2.0203,-1.010152 0,-0.336718 0.6734,0 1.0102,0 1.6836,0 3.3671,0 5.0507,0 4.3198,0 11.0277,-0.292353 15.1523,1.010152 5.8846,1.85828 11.7448,4.673715 16.1625,9.091373 1.5245,1.524552 2.6082,3.439312 4.0406,5.050762 0.5169,0.58158 7.071,6.30839 7.071,8.08122 0,4.19723 -9.306,3.03046 -11.1116,3.03046 -2.3571,0 -4.7141,0 -7.0711,0 -0.6734,0 -1.3469,0 -2.0203,0 -0.3367,0 -0.7721,0.23809 -1.0102,0 -0.2381,-0.2381 0,-0.67344 0,-1.01015 0,-0.33672 -0.202,-0.74078 0,-1.01016 3.2746,-4.3661 5.1301,-4.04061 10.1016,-4.04061 0.6734,0 1.3468,0 2.0203,0 0.3367,0 0.772,-0.23809 1.0101,0 0.2381,0.2381 0,0.67344 0,1.01016 0,1.68358 0.7529,3.54491 0,5.05076 -1.3246,2.64919 -6.965,3.9876 -9.0914,5.05076 -4.4141,2.20708 -1.5103,2.02031 -4.0406,2.02031 -0.6734,0 -1.7191,0.60234 -2.0203,0 -0.3367,-0.67344 0.3837,-1.60266 1.0102,-2.02031 2.5059,-1.67059 5.2726,-2.95341 8.0812,-4.04061 7.6467,-2.96001 15.294,-6.03232 23.2335,-8.08122 2.6083,-0.67311 5.3875,0 8.0812,0 1.6836,0 3.3672,0 5.0508,0 3.1756,0 5.0869,-0.37516 8.0812,2.02031 0.5259,0.42069 0,1.34687 0,2.0203 0,0.33672 0.2381,0.77206 0,1.01015 -0.2381,0.2381 -0.6734,0 -1.0101,0 -1.3469,0 -2.6938,0 -4.0407,0 -1.3468,0 -2.7628,0.42592 -4.0406,0 -0.9035,-0.30117 -1.4106,-1.28866 -2.0203,-2.0203 -1.0778,-1.29337 -2.498,-2.44342 -3.0304,-4.04061 -0.5324,-1.59719 0,-3.36718 0,-5.05076 0,-1.34687 0,-2.69374 0,-4.040615 0,-1.34687 -0.4259,-2.762857 0,-4.04061 0.362,-1.086146 4.4361,-3.777174 5.0507,-4.04061 2.9133,-1.24854 6.0001,-1.216238 9.0914,-1.010152 3.3765,0.225098 6.8912,-0.05995 10.1015,1.010152 1.1518,0.383917 1.3147,2.042543 2.0203,3.030458 0.9786,1.369991 2.3673,2.493149 3.0305,4.04061 0.3979,0.928477 0,2.020305 0,3.030457 0,0.67344 0,1.34687 0,2.02031 0,0.67343 0.5387,1.61624 0,2.0203 -1.1107,0.83299 -2.6712,0.78191 -4.0406,1.01015 -3.0127,0.50212 -2.8672,-0.52043 -4.0406,-4.04061 -1.2743,-3.822883 -1.0102,-5.33311 -1.0102,-9.09137 0,-2.69374 0,-5.38748 0,-8.08122 0,-1.34687 0,-2.69374 0,-4.04061 0,-0.673435 -0.3465,-1.44284 0,-2.020305 2.2306,-3.717594 2.4549,-2.310027 5.0508,-4.040611 0.3962,-0.264143 0.5584,-0.859568 1.0101,-1.010152 0.6389,-0.212959 1.5442,0.47619 2.0203,0 0.3368,-0.336718 -0.568,-0.8333 -1.0101,-1.010153 -1.289,-0.51561 -2.8352,-0.321352 -4.0406,-1.010152 -1.2404,-0.70877 -1.8876,-2.173315 -3.0305,-3.030458 -1.5707,-1.17803 -3.4171,-1.941368 -5.0507,-3.030458 -1.126,-0.750614 -3.7745,-4.729996 -4.0406,-6.060915 -0.1982,-0.990536 0,-2.020305 0,-3.030457 0,-0.673435 -0.5604,-1.646751 0,-2.020306 1.7315,-1.154358 8.7763,-2.738539 11.1116,-3.030457 2.7987,-0.349839 5.4911,0.716639 8.0813,-1.010153 0.2801,-0.186777 0.3011,-0.859568 0,-1.010152 -1.2418,-0.620877 -2.7768,-0.435661 -4.0407,-1.010153 -2.4713,-1.123352 -4.5954,-2.926592 -7.071,-4.04061 -4.2769,-1.924583 -8.7887,-3.281266 -13.132,-5.050763 -16.2993,-6.640436 -12.5825,-6.34036 -30.3046,-11.111678 -1.9656,-0.529216 -19.6897,-3.850168 -21.2132,-4.04061 -1.6706,-0.208823 -3.3802,0.208823 -5.0508,0 -1.0565,-0.132071 -1.9801,-0.835101 -3.0304,-1.010152 -1.3286,-0.221425 -2.6938,0 -4.0406,0 -0.3367,0 -0.6735,0 -1.0102,0 -0.3367,0 -0.7408,-0.202031 -1.0101,0 -3.5767,-0.0759 -2.3843,3.670497 -4.0406,5.050762 -1.5083,1.256928 -3.4801,1.852428 -5.0508,3.030458 -1.1429,0.857143 -2.0203,2.020305 -3.0305,3.030458 -3.3671,3.367175 -6.5308,6.950946 -10.1015,10.101525 -4.3439,3.832845 -9.6917,6.392869 -14.1421,10.101525 -15.1475,12.622896 4.5709,-1.912922 -10.1015,9.091373 -0.9713,0.728432 -2.0978,1.243088 -3.0305,2.020305 -2.142,1.784993 -4.0764,4.076444 -6.0609,6.060916 -0.5669,0.566853 -4.7018,4.46919 -5.0508,5.050762 -0.5478,0.913054 -0.6147,2.041821 -1.0101,3.030458 -0.5593,1.398143 -1.5441,2.612039 -2.0203,4.04061 -0.1065,0.319439 0.1505,0.708984 0,1.010153 -0.213,0.425918 -0.7972,0.584235 -1.0102,1.010152 -0.1506,0.30117 0.1506,0.708984 0,1.010153 -0.2129,0.425918 -0.7972,0.584235 -1.0101,1.010152 -0.1506,0.30117 0,0.673435 0,1.010153 0,0.336718 0,0.673435 0,1.010153 0,2.69374 0.3367,-0.336718 -1.0102,1.010152 -0.2381,0.238095 0.3367,1.010153 0,1.010153 -0.7705,0 -2.0179,-3.02322 -2.0203,-3.030458 -0.1065,-0.319438 0.1065,-0.690714 0,-1.010153 -0.2381,-0.714285 -0.8864,-1.277626 -1.0102,-2.020305 -0.2214,-1.328544 0.1488,-2.701978 0,-4.04061 -1.2742,-11.468659 -1.0101,0.664725 -1.0101,-9.091373 0,-2.020305 0,-4.04061 0,-6.060915 0,-0.673435 -0.3225,-1.429099 0,-2.020305 4.3582,-7.990059 7.4767,-10.983274 14.1421,-17.172593 4.8321,-4.486919 8.2628,-6.794394 14.1422,-10.101526 5.607,-3.153941 8.9838,-4.827232 15.1523,-6.060915 6.7319,-1.346382 13.3972,-1.010153 20.203,-1.010153 12.4586,0 24.9171,0 37.3757,0"
       id="path3097"
       inkscape:connector-curvature="0"
       transform="translate(0,852.36218)" />
    <path
       style="fill:none;stroke:#000000;stroke-width:1px;stroke-linecap:butt;stroke-linejoin:miter;stroke-opacity:1"
       d="m 2895.0972,23.223305 c 0,3.367175 0,6.73435 0,10.101525 0,5.050763 0,10.101525 0,15.152288 0,0.336718 0,0.673435 0,1.010153 0,0.336717 -0.2381,0.772057 0,1.010152 0.4762,0.476191 1.418,-0.301169 2.0203,0 0.4259,0.212959 0.5584,0.859568 1.0102,1.010153 0.5568,0.185625 5.2036,0 6.0609,0 4.0406,0 8.0812,0 12.1218,0 1.3469,0 2.6937,0 4.0406,0 0.3367,0 1.0102,-0.336718 1.0102,0 0,0.336717 -1.3469,0 -1.0102,0 1.0102,0 2.0203,0 3.0305,0 0.3367,0 0.8595,0.301169 1.0101,0 0.4518,-0.903508 0,-2.020305 0,-3.030458 0,-2.69374 0,-5.38748 0,-8.08122 0,-1.683588 0,-3.367175 0,-5.050763 0,-0.336717 0,-0.673435 0,-1.010152 0,-0.336718 -0.1506,-0.708984 0,-1.010153 0.213,-0.425918 0.7972,-0.584235 1.0102,-1.010153 0.1506,-0.301169 0,-0.673435 0,-1.010152 0,-0.336718 0,-0.673435 0,-1.010153 0,-2.020305 0,-4.04061 0,-6.060915 0,-0.995722 0,-3.016027 0,-2.020305 0,0.673435 0,2.69374 0,2.020305 0,-1.010152 0.3194,-2.072143 0,-3.030458 0,-0.0139 -2.9332,-0.09731 -3.0305,0 -1.3469,1.346871 1.6836,1.010153 -1.0101,1.010153 -4.0406,0 -8.0813,0 -12.1219,0 -0.3709,0 -3.9999,0.04065 -4.0406,0 -1.3468,-1.34687 1.6836,-1.010153 -1.0101,-1.010153 -0.6735,0 -1.3469,0 -2.0203,0 -0.3368,0 -1.3469,0 -1.0102,0 1.0102,0 4.0406,0 3.0305,0 -1.3469,0 -2.7258,-0.292177 -4.0406,0 -1.7701,0.393356 -3.4959,2.95323 -5.0508,2.020306 -1.4437,-0.866199 -0.3302,-3.39987 0,-5.050763 0.1321,-0.660358 1.5441,0.47619 2.0203,0 0.2381,-0.238095 -0.2381,-0.772057 0,-1.010153 0.2381,-0.238095 0.709,0.150585 1.0102,0 0.4259,-0.212959 0.5842,-0.797193 1.0101,-1.010152 0.6023,-0.30117 1.5441,0.47619 2.0203,0 0.2381,-0.238095 -0.3012,-0.859568 0,-1.010153 0.6023,-0.301169 1.3814,0.212959 2.0203,0 0.9035,-0.301169 1.1685,-1.594387 2.0203,-2.020305 0.3012,-0.150585 0.7721,0.238095 1.0102,0 0.2381,-0.238095 -0.2381,-0.772057 0,-1.010152 0.4762,-0.476191 1.4179,0.301169 2.0203,0 4.204,-2.102007 -1.0799,0.06974 1.0101,-2.020306 0.2381,-0.2380948 0.7721,0.238096 1.0102,0 0.2381,-0.2380948 -0.2381,-0.7720568 0,-1.0101521 0.4762,-0.4761904 1.5441,0.4761905 2.0203,0 0.2381,-0.2380952 -0.2381,-0.7720573 0,-1.0101525 0.2381,-0.2380953 0.772,0.2380952 1.0101,0 0.2381,-0.2380953 0.3368,-1.0101526 0,-1.0101526 -0.4761,0 -1.4863,1.0101526 -1.0101,1.0101526 0.7529,0 1.6026,-0.3836825 2.0203,-1.0101526 0,-5.7241977 -0.6734,-0.3367175 1.0101,-2.0203051 0.2381,-0.2380952 -0.238,-0.7720573 0,-1.0101525 0.2381,-0.2380952 0.709,0.1505847 1.0102,0 0.4259,-0.2129589 0.5842,-0.7971937 1.0102,-1.0101525 0.3653,-0.1826525 4.3481,0 5.0507,0 1.1932,0 5.4602,-0.2002317 6.0609,0 0.4518,0.1505846 0.5584,0.8595679 1.0102,1.0101525 0.9583,0.3194383 2.0203,0 3.0304,0 0.245,0 2.998,-0.032486 3.0305,0 0.2381,0.2380952 -0.2381,0.7720573 0,1.0101525 0.2381,0.2380953 0.6734,0 1.0101,0 0.4763,0 5.005,-0.045782 5.0508,0 0.2381,0.2380953 0,0.6734351 0,1.0101526 0,0.3367175 0,0.673435 0,1.0101525 0,0.3367176 0,1.3468701 0,1.0101526 0,-0.673435 0,-2.6937401 0,-2.0203051 0,4.0406097 0,8.0812207 0,12.1218307 0,0.97705 -0.1498,5.761318 0,6.060915 0.213,0.425918 0.7972,0.584235 1.0102,1.010153 0.1505,0.301169 0,0.673435 0,1.010152 0,0.336718 0,0.673435 0,1.010153 0,1.010152 0,2.020305 0,3.030457 0,0.336718 0,1.34687 0,1.010153 0,-1.010153 0,-4.04061 0,-3.030458 0,1.683588 0,3.367175 0,5.050763 0,0.673435 0,1.34687 0,2.020305 0,0.336718 0.3367,1.010153 0,1.010153 -0.3368,0 0.3367,-1.010153 0,-1.010153 -2.9558,0 0.1972,1.416607 -1.0102,2.020305 -0.6023,0.301169 -1.3814,-0.212959 -2.0203,0 -3.153,1.051003 0.3367,0.673435 -1.0101,2.020305 -0.2381,0.238096 -0.709,-0.150584 -1.0102,0 -0.4259,0.212959 -0.5842,0.797194 -1.0102,1.010153 -0.3011,0.150584 -1.0101,0.336717 -1.0101,0 0,-0.336718 1.0101,-0.336718 1.0101,0 0,1.675127 -1.4166,0.708303 -2.0203,1.010152 -0.4259,0.212959 -0.5842,0.797194 -1.0101,1.010153 -2.6937,0 0.3367,-0.336718 -1.0102,1.010152 -0.2381,0.238096 -0.772,-0.238095 -1.0101,0 -0.2381,0.238096 0.2381,0.772058 0,1.010153 -0.2381,0.238095 -1.0102,0.336718 -1.0102,0 0,-0.47619 1.4864,-1.010153 1.0102,-1.010153 -5.1031,0 -0.7763,0.776327 -2.0203,2.020306 -0.4762,0.47619 -1.418,-0.30117 -2.0203,0 -0.4259,0.212958 -0.5843,0.797193 -1.0102,1.010152 -0.3011,0.150585 -0.772,-0.238095 -1.0101,0 -0.2381,0.238095 0.2381,0.772057 0,1.010153 -0.4762,0.47619 -1.5441,-0.476191 -2.0203,0 -0.2381,0.238095 0.2381,0.772057 0,1.010152 -0.4762,0.476191 -1.5441,-0.47619 -2.0203,0 -1.3469,1.34687 1.6835,1.010153 -1.0102,1.010153"
       id="path3099"
       inkscape:connector-curvature="0"
       transform="translate(0,852.36218)" />
    <path
       style="fill:none;stroke:#000000;stroke-width:1px;stroke-linecap:butt;stroke-linejoin:miter;stroke-opacity:1"
       d="m 2922.3713,21.202999 c 1.3469,-0.336717 2.6938,-0.673435 4.0406,-1.010152 0.3367,-0.336718 0.5843,-0.797194 1.0102,-1.010153 0.3011,-0.150584 0.772,0.238096 1.0101,0 0.2381,-0.238095 -0.1506,-0.708983 0,-1.010152 0.213,-0.425918 0.7972,-0.584235 1.0102,-1.010153 0.1506,-0.301169 -0.2381,-0.772057 0,-1.010152 0.2381,-0.238095 0.709,0.150584 1.0101,0 0.426,-0.212959 0.5843,-0.797194 1.0102,-1.010153 0.3012,-0.150584 0.6734,0 1.0101,0 0.6735,-0.336717 1.3939,-0.592506 2.0203,-1.010152 0.3963,-0.264143 0.5843,-0.797194 1.0102,-1.010153 0.3012,-0.150585 0.7721,0.238095 1.0101,0 0.2381,-0.238095 -0.238,-0.772057 0,-1.010152 0.2381,-0.238096 0.7721,0.238095 1.0102,0 0.2381,-0.238096 -0.2381,-0.772058 0,-1.010153 0.2381,-0.238095 0.7721,0.238095 1.0102,0 0.238,-0.238095 -0.2381,-0.772057 0,-1.010153 0.238,-0.2380948 0.6734,0 1.0101,0 0,-0.336717 -0.1506,-0.7089828 0,-1.0101521 0.842,-1.6840693 2.0203,-0.4564262 2.0203,-3.0304576"
       id="path3101"
       inkscape:connector-curvature="0"
       transform="translate(0,852.36218)" />
  </g>
</svg>
